<svg width="19" height="18" viewBox="0 0 19 18" fill="none" xmlns="http://www.w3.org/2000/svg">
<g clip-path="url(#clip0_1012_129373)">
<path fill-rule="evenodd" clip-rule="evenodd" d="M18.0723 1.27584C17.9457 1.17608 17.8007 1.10228 17.6455 1.05866C17.4904 1.01504 17.3281 1.00247 17.1681 1.02165C17.0081 1.04084 16.8534 1.09141 16.713 1.17047C16.5725 1.24953 16.4491 1.35553 16.3496 1.48238L7.0189 13.3576L3.11527 8.67379C3.01216 8.55004 2.88569 8.4478 2.74307 8.37293C2.60045 8.29805 2.44448 8.252 2.28406 8.2374C2.12365 8.2228 1.96193 8.23994 1.80813 8.28784C1.65434 8.33574 1.51149 8.41346 1.38773 8.51657C1.26398 8.61968 1.16174 8.74615 1.08687 8.88877C1.01199 9.03139 0.965937 9.18736 0.951338 9.34777C0.936738 9.50819 0.953878 9.66991 1.00178 9.8237C1.04968 9.9775 1.1274 10.1203 1.23051 10.2441L6.10451 16.0923C6.13033 16.1233 6.16811 16.1347 6.19625 16.1625C6.22491 16.2007 6.25591 16.2371 6.28908 16.2714C6.34324 16.307 6.40026 16.338 6.45955 16.3641C6.50059 16.3898 6.54315 16.4129 6.587 16.4334C6.73202 16.4962 6.88789 16.5303 7.04592 16.5337L7.04692 16.5335L7.05004 16.5332C7.17265 16.5306 7.29419 16.5097 7.41063 16.4712C7.43889 16.4624 7.46587 16.4535 7.49358 16.4427C7.61281 16.3976 7.72418 16.3341 7.82358 16.2543L7.83206 16.2495C7.83865 16.244 7.84106 16.2358 7.8475 16.2302C7.9074 16.1805 7.9624 16.1251 8.01175 16.0649L18.2793 2.99801C18.48 2.7421 18.571 2.41699 18.5321 2.09409C18.4933 1.77119 18.3279 1.4769 18.0723 1.27584Z" fill="#079355"/>
</g>
<defs>
<clipPath id="clip0_1012_129373">
<rect width="18" height="18" fill="white" transform="translate(0.75)"/>
</clipPath>
</defs>
</svg>
