<svg width="17" height="16" viewBox="0 0 17 16" fill="none" xmlns="http://www.w3.org/2000/svg">
<path fill-rule="evenodd" clip-rule="evenodd" d="M9.76835 8.00047L14.9972 2.77147C15.1977 2.57008 15.3102 2.29736 15.3099 2.01315C15.3095 1.72895 15.1965 1.45647 14.9955 1.25551C14.7946 1.05454 14.5221 0.941509 14.2379 0.941208C13.9537 0.940906 13.681 1.05336 13.4796 1.2539L8.25083 6.48283L3.0221 1.25389C2.82085 1.05264 2.54791 0.939579 2.2633 0.939575C1.9787 0.939571 1.70575 1.05263 1.50451 1.25387C1.30326 1.45511 1.1902 1.72806 1.19019 2.01266C1.19019 2.29726 1.30324 2.57021 1.50449 2.77146L6.73332 8.00046L1.50449 13.2295C1.40484 13.3291 1.3258 13.4474 1.27187 13.5776C1.21794 13.7078 1.19018 13.8473 1.19019 13.9883C1.19019 14.2729 1.30325 14.5458 1.5045 14.7471C1.70574 14.9483 1.97869 15.0614 2.2633 15.0614C2.40422 15.0614 2.54376 15.0336 2.67396 14.9797C2.80415 14.9257 2.92245 14.8467 3.0221 14.747L8.25083 9.51811L13.4796 14.747C13.6808 14.9483 13.9538 15.0613 14.2384 15.0613C14.523 15.0613 14.7959 14.9483 14.9972 14.747C15.1984 14.5458 15.3115 14.2729 15.3115 13.9883C15.3115 13.7037 15.1984 13.4307 14.9972 13.2295L9.76835 8.00047Z" fill="#222222"/>
</svg>
