<svg width="12" height="12" viewBox="0 0 12 12" fill="none" xmlns="http://www.w3.org/2000/svg">
<path d="M0 5.86401C0 2.6424 2.61164 0.0307617 5.83325 0.0307617C9.05487 0.0307617 11.6665 2.6424 11.6665 5.86401C11.6665 9.08563 9.05487 11.6973 5.83325 11.6973C2.61164 11.6973 0 9.08563 0 5.86401Z" fill="url(#paint0_linear_377_16659)"/>
<g clip-path="url(#clip0_377_16659)">
<path d="M3.25772 7.88781L2.47314 4.261C2.39241 3.8878 2.85747 3.63663 3.14391 3.89873L4.43946 5.08415L5.4689 2.97596C5.61411 2.67859 6.05178 2.67859 6.19699 2.97596L7.22643 5.08415L8.52198 3.89873C8.80843 3.63663 9.27349 3.8878 9.19276 4.261L8.40817 7.88781C8.36916 8.06813 8.2047 8.1973 8.01413 8.1973H3.65176C3.4612 8.1973 3.29673 8.06813 3.25772 7.88781Z" fill="white"/>
</g>
<defs>
<linearGradient id="paint0_linear_377_16659" x1="0" y1="0.0307617" x2="12.7277" y2="1.33408" gradientUnits="userSpaceOnUse">
<stop stop-color="#B539C8"/>
<stop offset="0.66" stop-color="#7155FA"/>
<stop offset="1" stop-color="#3B63FB"/>
</linearGradient>
<clipPath id="clip0_377_16659">
<rect width="7.77767" height="7.77767" fill="white" transform="translate(1.94434 1.9751)"/>
</clipPath>
</defs>
</svg>
