<svg xmlns="http://www.w3.org/2000/svg" width="26" height="26" viewBox="0 0 26 26" fill="none">
<path d="M17.6154 6.8085L13.709 2.90088C13.5262 2.71808 13.278 2.61523 13.0197 2.61523C12.7613 2.61523 12.5131 2.71806 12.3303 2.90088L8.42336 6.8085C8.0425 7.18936 8.0425 7.80636 8.42336 8.18722C8.80422 8.56808 9.42121 8.56808 9.80207 8.18722L12.025 5.96363V22.425C12.025 22.9633 12.4617 23.4 13 23.4C13.5383 23.4 13.975 22.9633 13.975 22.425V5.92459L16.2367 8.18722C16.4271 8.37764 16.6766 8.47286 16.926 8.47286C17.1755 8.47286 17.425 8.37765 17.6154 8.18722C17.9963 7.80636 17.9962 7.18936 17.6154 6.8085Z" fill="white"/>
</svg>

