<svg width="25" height="24" viewBox="0 0 25 24" fill="none" xmlns="http://www.w3.org/2000/svg">
<path d="M20.4844 0H4.40444C1.97194 0 0 1.97194 0 4.40444V19.5956C0 22.0281 1.97194 24 4.40444 24H20.4844C22.917 24 24.8889 22.0281 24.8889 19.5956V4.40444C24.8889 1.97194 22.917 0 20.4844 0Z" fill="#EB1000"/>
<path d="M9.58528 16.6975C9.58528 16.7953 9.54081 16.8397 9.44301 16.8397H7.41193C7.33191 16.8397 7.30078 16.782 7.30078 16.6975V6.19529C7.30078 6.10196 7.33191 6.06641 7.42528 6.06641H13.9363C14.0475 6.06641 14.0741 6.09752 14.0919 6.20418L14.2741 7.9775C14.2919 8.0753 14.243 8.1197 14.1364 8.1197H9.58528V10.6175H13.6875C13.7808 10.6175 13.8253 10.6486 13.8253 10.7464V12.5419C13.8253 12.6397 13.7764 12.6709 13.6963 12.6709H9.58528V16.6975Z" fill="white"/>
<path d="M15.4922 8.80477C15.4922 8.71139 15.5367 8.66699 15.63 8.66699H17.6522C17.7588 8.66699 17.79 8.69362 17.79 8.80027V16.6847C17.79 16.7914 17.7588 16.8358 17.6388 16.8358H15.6567C15.5455 16.8358 15.4922 16.7869 15.4922 16.6803V8.80027V8.80477Z" fill="white"/>
<path d="M17.1375 6.88873L18.1419 7.1154C18.5376 7.20429 18.8131 6.73317 18.5376 6.43539L17.8398 5.67984C17.7464 5.58206 17.7108 5.44428 17.742 5.31095L17.9686 4.3065C18.0576 3.91095 17.582 3.63984 17.2842 3.91539L16.5286 4.61317C16.4309 4.7065 16.2886 4.74206 16.1598 4.71095L15.1553 4.48428C14.7597 4.39539 14.4842 4.86651 14.7597 5.16428L15.4575 5.91984C15.5508 6.01761 15.5864 6.1554 15.5553 6.28872L15.3286 7.29317C15.2397 7.68876 15.7153 7.95981 16.0131 7.68426L16.7686 6.9865C16.8664 6.89317 17.0086 6.85761 17.1375 6.88873Z" fill="white"/>
</svg>
