<svg width="25" height="24" viewBox="0 0 25 24" fill="none" xmlns="http://www.w3.org/2000/svg">
<path d="M4.89258 0.299805H20.3707C22.6863 0.299805 24.6363 2.16543 24.6363 4.56543V19.4436C24.6363 21.7592 22.7707 23.7092 20.3707 23.7092H4.89258C2.56758 23.6998 0.626953 21.8342 0.626953 19.4436V4.55605C0.626953 2.16543 2.49258 0.299805 4.89258 0.299805Z" fill="#B30B00"/>
<path d="M19.7703 13.8279C18.6453 12.6279 15.5797 13.1529 14.839 13.2279C13.789 12.1779 13.0484 10.9873 12.7484 10.5373C13.1234 9.4123 13.4234 8.14668 13.4234 6.94668C13.4234 5.82168 12.9734 4.70605 11.7828 4.70605C11.3328 4.70605 10.9578 4.93105 10.7328 5.30605C10.2078 6.20605 10.4328 7.99668 11.2578 9.8623C10.8078 11.2123 10.0578 13.2279 9.16716 14.7936C7.96716 15.2436 5.35153 16.4342 5.12653 17.7842C5.05153 18.1592 5.20153 18.6092 5.50153 18.8342C5.80153 19.1342 6.17653 19.2092 6.55153 19.2092C8.11716 19.2092 9.69216 17.0436 10.8172 15.0936C11.7172 14.7936 13.1328 14.3436 14.5578 14.1186C16.1984 15.6186 17.6984 15.8342 18.4484 15.8342C19.4984 15.8342 19.8734 15.3842 20.014 15.0092C20.2109 14.6529 20.0703 14.1279 19.7703 13.8279ZM18.7203 14.5779C18.6453 14.8779 18.2703 15.1779 17.5953 15.0279C16.7703 14.8029 16.0297 14.4279 15.4297 13.9029C15.9547 13.8279 17.2203 13.6779 18.1203 13.8279C18.4203 13.9029 18.7953 14.1279 18.7203 14.5779ZM11.464 5.60605C11.539 5.45605 11.689 5.38105 11.839 5.38105C12.214 5.38105 12.289 5.83105 12.289 6.20605C12.214 7.10605 12.064 8.07168 11.764 8.89668C11.164 7.25605 11.239 6.05605 11.464 5.60605ZM11.389 14.0529C11.764 13.3779 12.214 12.1123 12.364 11.6623C12.739 12.3373 13.414 13.0873 13.714 13.4529C13.789 13.3873 12.439 13.6779 11.389 14.0529ZM8.84841 15.7779C7.80778 17.4186 6.83278 18.4686 6.23278 18.4686C6.15778 18.4686 6.00778 18.4686 5.93278 18.3936C5.85778 18.2436 5.78278 18.0936 5.85778 17.9436C5.93278 17.3436 7.13278 16.5186 8.84841 15.7779Z" fill="white"/>
</svg>
