<svg width="26" height="24" viewBox="0 0 26 24" fill="none" xmlns="http://www.w3.org/2000/svg">
<path d="M20.8834 0H4.98593C2.57853 0 0.626953 1.95158 0.626953 4.35897V19.641C0.626953 22.0484 2.57853 24 4.98593 24H20.8834C23.2908 24 25.2423 22.0484 25.2423 19.641V4.35897C25.2423 1.95158 23.2908 0 20.8834 0Z" fill="#00005B"/>
<path d="M10.5158 14.3587H6.70129L5.9252 16.7742C5.91463 16.8182 5.88906 16.8571 5.85288 16.8842C5.81671 16.9114 5.7722 16.925 5.72703 16.9228H3.79504C3.68486 16.9228 3.64633 16.8623 3.67945 16.7412L6.98203 7.26911C7.01504 7.17006 7.04809 7.07321 7.08109 6.94651C7.12434 6.7262 7.14646 6.50227 7.14714 6.27776C7.14491 6.26206 7.14636 6.24605 7.15137 6.23101C7.15639 6.21596 7.16484 6.20229 7.17606 6.19108C7.18727 6.17986 7.20094 6.17141 7.21598 6.16639C7.23103 6.16137 7.24703 6.15992 7.26273 6.16215H9.88829C9.96516 6.16215 10.0092 6.18968 10.0204 6.24473L13.7688 16.7577C13.8018 16.8679 13.7688 16.9229 13.6697 16.9228H11.5231C11.4862 16.9269 11.4491 16.9175 11.4187 16.8962C11.3883 16.8749 11.3667 16.8433 11.3579 16.8073L10.5158 14.3587ZM7.29579 12.322H9.90481C9.83876 12.102 9.76168 11.8543 9.67359 11.579C9.58535 11.3039 9.49179 11.0094 9.39289 10.6955C9.29384 10.3818 9.19476 10.0681 9.09566 9.75429C8.9966 9.44056 8.90578 9.13783 8.82318 8.84609C8.74065 8.55454 8.66635 8.28759 8.60027 8.04523H8.58375C8.49083 8.49121 8.37509 8.93213 8.23699 9.36624C8.08269 9.86164 7.92582 10.368 7.76639 10.8854C7.60669 11.403 7.44982 11.8819 7.29579 12.322Z" fill="#9999FF"/>
<path d="M19.8461 13.4186H16.5931C16.6329 13.7405 16.7398 14.0504 16.9068 14.3284C17.0915 14.6037 17.3526 14.8189 17.6581 14.9476C18.0721 15.1268 18.5199 15.2146 18.9709 15.2049C19.3287 15.1981 19.6852 15.1589 20.036 15.088C20.3497 15.0457 20.6572 14.9655 20.9517 14.8493C21.0066 14.8054 21.0343 14.8328 21.0343 14.9319V16.5006C21.037 16.5433 21.0285 16.586 21.0095 16.6244C20.9906 16.6545 20.9652 16.6798 20.9352 16.6987C20.6085 16.8434 20.2647 16.9458 19.9121 17.0035C19.4331 17.0935 18.9463 17.135 18.459 17.1273C17.6772 17.1273 17.0222 17.0062 16.494 16.7641C15.9946 16.5441 15.5536 16.2105 15.206 15.7898C14.8813 15.3934 14.6398 14.9357 14.4959 14.444C14.3534 13.9587 14.2811 13.4554 14.2813 12.9496C14.2797 12.3973 14.3661 11.8482 14.5372 11.3231C14.702 10.8108 14.9625 10.3345 15.3051 9.91949C15.6429 9.50932 16.0654 9.17698 16.5435 8.94523C17.0278 8.70863 17.6003 8.62375 18.2608 8.62375C18.8086 8.6099 19.3527 8.71702 19.8543 8.93748C20.2762 9.11738 20.6475 9.39784 20.9359 9.75435C21.2065 10.1035 21.4133 10.4976 21.5469 10.9185C21.677 11.3242 21.7438 11.7475 21.7451 12.1735C21.7451 12.4158 21.7368 12.6359 21.7203 12.834C21.7038 13.0321 21.69 13.1753 21.679 13.2633C21.6747 13.2997 21.6572 13.3333 21.6298 13.3577C21.6024 13.382 21.567 13.3955 21.5304 13.3954C21.4643 13.3954 21.3515 13.4037 21.1919 13.4202C21.0322 13.4367 20.834 13.4477 20.5974 13.4532C20.3606 13.4589 20.1103 13.4186 19.8461 13.4186ZM16.5931 11.9143H18.7562C19.0205 11.9143 19.2159 11.9116 19.3424 11.9061C19.4271 11.8976 19.5089 11.8705 19.5819 11.8267V11.7276C19.5786 11.5985 19.5563 11.4705 19.5159 11.3478C19.4268 11.0661 19.2476 10.8215 19.006 10.6514C18.7644 10.4814 18.4736 10.3954 18.1783 10.4066C17.9004 10.3898 17.6236 10.4543 17.3817 10.5921C17.1398 10.7299 16.9433 10.9351 16.816 11.1827C16.7029 11.413 16.6276 11.6601 16.5931 11.9143Z" fill="#9999FF"/>
</svg>
