<svg width="25" height="24" viewBox="0 0 25 24" fill="none" xmlns="http://www.w3.org/2000/svg">
<g clip-path="url(#clip0_970_102242)">
<path d="M20.2672 0H4.36972C1.96232 0 0.0107422 1.95158 0.0107422 4.35897V19.641C0.0107422 22.0484 1.96232 24 4.36972 24H20.2672C22.6745 24 24.6261 22.0484 24.6261 19.641V4.35897C24.6261 1.95158 22.6745 0 20.2672 0Z" fill="#330000"/>
<path d="M11.9386 14.4029H8.12414L7.34805 16.8138C7.33747 16.8578 7.31189 16.8967 7.27572 16.9238C7.23955 16.9509 7.19504 16.9646 7.14988 16.9624H5.21789C5.10771 16.9624 5.06918 16.9019 5.1023 16.7808L8.40484 7.2694C8.43789 7.17034 8.47093 7.0575 8.50395 6.93089C8.54714 6.71057 8.56926 6.48665 8.57 6.26214C8.56776 6.24644 8.5692 6.23043 8.57422 6.21538C8.57924 6.20034 8.58769 6.18666 8.5989 6.17545C8.61012 6.16423 8.62379 6.15578 8.63883 6.15076C8.65388 6.14574 8.66989 6.14429 8.68559 6.14653H11.3111C11.388 6.14653 11.432 6.17406 11.4432 6.22911L15.1916 16.7973C15.2247 16.9075 15.1916 16.9625 15.0925 16.9624H12.9459C12.909 16.9665 12.8719 16.957 12.8415 16.9358C12.8111 16.9145 12.7895 16.8829 12.7807 16.8468L11.9386 14.4029ZM8.71859 12.3223H11.3276C11.2616 12.1023 11.1845 11.8546 11.0965 11.5792C11.0082 11.3042 10.9146 11.0097 10.8158 10.6958C10.7166 10.3821 10.6175 10.0683 10.5185 9.75458C10.4194 9.44085 10.3286 9.13812 10.246 8.84637C10.1635 8.55483 10.0892 8.28788 10.0231 8.04552H10.0066C9.91364 8.49148 9.79791 8.9324 9.65985 9.36653C9.50555 9.86192 9.34867 10.3683 9.1892 10.8857C9.02949 11.4033 8.87263 11.8822 8.71859 12.3223Z" fill="#FF9A00"/>
<path d="M17.4202 7.89673C17.2517 7.9035 17.0838 7.87463 16.9273 7.81203C16.7708 7.74943 16.6293 7.6545 16.512 7.53345C16.395 7.40715 16.3041 7.25898 16.2446 7.09745C16.1851 6.93592 16.1581 6.76422 16.1652 6.59222C16.1592 6.42192 16.1892 6.25227 16.2532 6.09435C16.3172 5.93643 16.4138 5.7938 16.5367 5.67575C16.6584 5.55893 16.8021 5.46741 16.9594 5.40647C17.1167 5.34553 17.2845 5.31639 17.4532 5.32074C17.8495 5.32074 18.1605 5.43907 18.3862 5.67575C18.5001 5.79875 18.5886 5.94301 18.6467 6.10027C18.7048 6.25753 18.7313 6.42471 18.7247 6.59222C18.7316 6.76489 18.7037 6.93719 18.6427 7.09888C18.5817 7.26057 18.4889 7.40835 18.3696 7.53345C18.245 7.65628 18.0963 7.75197 17.9329 7.81449C17.7695 7.87701 17.5949 7.90502 17.4202 7.89673ZM16.2807 16.7971V8.904C16.2807 8.80494 16.3246 8.75538 16.4129 8.75538H18.444C18.532 8.75538 18.576 8.80492 18.5761 8.904V16.7971C18.5761 16.9073 18.532 16.9623 18.444 16.9623H16.4294C16.3303 16.9623 16.2808 16.9072 16.2807 16.7971Z" fill="#FF9A00"/>
</g>
<defs>
<clipPath id="clip0_970_102242">
<rect width="24.6154" height="24" fill="white" transform="translate(0.0107422)"/>
</clipPath>
</defs>
</svg>
