<svg width="22" height="23" viewBox="0 0 22 23" fill="none" xmlns="http://www.w3.org/2000/svg">
<g clip-path="url(#clip0_82776_18913)">
<path fill-rule="evenodd" clip-rule="evenodd" d="M12.0824 14.9683C11.6893 14.9683 11.2962 14.8155 10.9926 14.5076C10.6611 14.1734 10.4868 13.7019 10.5181 13.2149L10.791 9.12811L7.98026 6.28501C7.35705 5.65003 7.34223 4.60684 7.94494 3.95635C8.26338 3.6138 8.69519 3.41566 9.16516 3.46102L13.0782 3.74987L15.7903 0.804103C16.3896 0.152414 17.3836 0.132125 18.008 0.761129C18.3447 1.10368 18.5167 1.57396 18.4854 2.05736V2.06094L18.2108 6.14296L21.0232 8.98726C21.6442 9.61986 21.6607 10.6619 21.0614 11.3123C20.7361 11.6621 20.2855 11.8423 19.8275 11.8101L15.9242 11.5224L13.2132 14.4682C12.9044 14.8012 12.4931 14.9683 12.0824 14.9683ZM11.1123 6.05465L12.6686 7.62898C13.0007 7.96437 13.175 8.43584 13.1437 8.92281L12.9927 11.1858L14.4938 9.55541C14.8259 9.2033 15.2771 9.03023 15.7294 9.05768L17.8907 9.21643L16.3349 7.64329C16.0034 7.31387 15.8262 6.83882 15.8581 6.34946L16.0102 4.08644L14.5097 5.71568C14.1856 6.06897 13.723 6.2492 13.2622 6.2134L11.1123 6.05465ZM12.8309 4.0184C12.8298 4.0184 12.8292 4.0196 12.8286 4.02078L12.8309 4.0184ZM13.4239 3.77491L13.433 3.77611C13.4302 3.77491 13.4268 3.77491 13.4239 3.77491Z" fill="#292929"/>
<path fill-rule="evenodd" clip-rule="evenodd" d="M9.16154 18.4795L7.53533 16.8329L7.69326 14.4682C7.71487 14.1592 7.60462 13.8579 7.39156 13.641C6.996 13.2383 6.3628 13.2492 5.97692 13.6675L4.40882 15.3735L2.14717 15.2065C1.85144 15.1893 1.56463 15.3017 1.36424 15.5233C1.17875 15.7231 1.07893 15.9885 1.0834 16.2678C1.08712 16.5472 1.19514 16.8079 1.38734 17.003L3.01354 18.6528L2.85338 21.0206C2.83476 21.3202 2.94129 21.6168 3.15061 21.8353C3.3443 22.0351 3.59683 22.135 3.85086 22.135C4.11084 22.135 4.37158 22.0304 4.57047 21.8182L6.1423 20.1184L8.39947 20.2776C8.69074 20.3073 8.98127 20.1824 9.1757 19.9686C9.36417 19.7688 9.46697 19.5034 9.46474 19.2225C9.46251 18.9415 9.35597 18.6778 9.16154 18.4795Z" fill="#292929"/>
</g>
<defs>
<clipPath id="clip0_82776_18913">
<rect width="21" height="22" fill="white" transform="translate(0.5 0.25)"/>
</clipPath>
</defs>
</svg>
