<svg width="22" height="22" viewBox="0 0 22 22" fill="none" xmlns="http://www.w3.org/2000/svg">
<path fill-rule="evenodd" clip-rule="evenodd" d="M18 6V4C18 2.89746 17.1025 2 16 2H14C12.8975 2 12 2.89746 12 4V6H10.0245L10 4C10 2.89746 9.10254 2 8 2H6C4.89746 2 4 2.89746 4 4.01172L4.02417 6H4C2.3457 6 1 7.3457 1 9V17C1 18.6543 2.3457 20 4 20H18C19.6543 20 21 18.6543 21 17V9C21 7.3457 19.6543 6 18 6ZM14 4H16V6H14V4ZM6 4L8 4.01172L8.02417 6H6.02454L6 4ZM19 17C19 17.5518 18.5518 18 18 18H4C3.44824 18 3 17.5518 3 17V9C3 8.44824 3.44824 8 4 8H18C18.5518 8 19 8.44824 19 9V17Z" fill="#292929"/>
</svg>
