<svg width="22" height="22" viewBox="0 0 22 22" fill="none" xmlns="http://www.w3.org/2000/svg">
<path fill-rule="evenodd" clip-rule="evenodd" d="M7.72192 6.36528C7.19 6.05287 6.5 6.41222 6.5 7.00166V10.9984C6.5 11.5878 7.19 11.9471 7.72192 11.6347L11.1246 9.63639C11.6251 9.34244 11.6251 8.65754 11.1246 8.36362L7.72192 6.36528Z" fill="#292929"/>
<path fill-rule="evenodd" clip-rule="evenodd" d="M6 17C3.24316 17 1 14.7568 1 12V6C1 3.24316 3.24316 1 6 1H12C14.7568 1 17 3.24316 17 6V9C17 9.55273 16.5527 10 16 10C15.4473 10 15 9.55273 15 9V6C15 4.3457 13.6543 3 12 3H6C4.3457 3 3 4.3457 3 6V12C3 13.6543 4.3457 15 6 15C6.55273 15 7 15.4473 7 16C7 16.5527 6.55273 17 6 17Z" fill="#292929"/>
<path fill-rule="evenodd" clip-rule="evenodd" d="M19.25 22H11.75C10.2334 22 9 20.7666 9 19.25V14.75C9 13.2334 10.2334 12 11.75 12H19.25C20.7666 12 22 13.2334 22 14.75V19.25C22 20.7666 20.7666 22 19.25 22ZM11.75 13.5C11.0605 13.5 10.5 14.0605 10.5 14.75V19.25C10.5 19.9395 11.0605 20.5 11.75 20.5H19.25C19.9395 20.5 20.5 19.9395 20.5 19.25V14.75C20.5 14.0605 19.9395 13.5 19.25 13.5H11.75Z" fill="#292929"/>
<path fill-rule="evenodd" clip-rule="evenodd" d="M14.1254 16.0947C14.4449 16.0947 14.6381 16.1415 14.7581 16.1857C14.8276 16.2021 14.892 16.1907 14.9437 16.1528C14.9741 16.1288 15.0258 16.0745 15.0258 15.9735L15.0334 15.1451C15.0334 15.0251 14.9816 14.9443 14.8819 14.9076C14.7089 14.8407 14.4487 14.8079 14.085 14.8079C12.6504 14.8079 11.6489 15.7361 11.6489 17.0659C11.6489 18.3717 12.5872 19.2847 13.9322 19.2847C14.3515 19.2847 14.6571 19.2405 14.8768 19.1509C14.9349 19.1345 15.0334 19.0839 15.0334 18.9311V18.0951L15.0221 17.9802L14.9551 17.9309C14.9185 17.9057 14.8554 17.8792 14.7632 17.907C14.6583 17.9385 14.4323 17.9739 14.1406 17.9739C13.8337 17.9739 13.1214 17.8817 13.1214 17.0267C13.1214 16.4344 13.4877 16.0947 14.1254 16.0947Z" fill="#292929"/>
<path fill-rule="evenodd" clip-rule="evenodd" d="M19.273 17.9309C19.2364 17.9057 19.172 17.8792 19.081 17.9069C18.9762 17.9385 18.7502 17.9739 18.4584 17.9739C18.1516 17.9739 17.438 17.8817 17.438 17.0267C17.438 16.4344 17.8043 16.0947 18.4433 16.0947C18.7628 16.0947 18.956 16.1415 19.076 16.1857C19.1454 16.2021 19.2098 16.1907 19.2616 16.1528C19.2919 16.1288 19.3437 16.0745 19.3437 15.9735L19.3513 15.1451C19.3513 15.0251 19.2995 14.9443 19.1997 14.9076C19.0267 14.8407 18.7666 14.8079 18.4029 14.8079C16.9683 14.8079 15.9668 15.7361 15.9668 17.0659C15.9668 18.3717 16.9051 19.2847 18.2488 19.2847C18.6693 19.2847 18.975 19.2405 19.1947 19.1509C19.2528 19.1345 19.3513 19.0839 19.3513 18.9311V18.0951L19.3399 17.9802L19.273 17.9309Z" fill="#292929"/>
</svg>
