<svg width="22" height="22" viewBox="0 0 22 22" fill="none" xmlns="http://www.w3.org/2000/svg">
<g clip-path="url(#clip0_55_43528)">
<path fill-rule="evenodd" clip-rule="evenodd" d="M11.4935 3.33109C11.6859 3.62015 12.0032 3.7764 12.3265 3.7764C12.5169 3.7764 12.7093 3.72171 12.8802 3.60843C13.3402 3.30179 13.4642 2.68167 13.1575 2.22171C13.0423 2.04886 12.9153 1.88187 12.7777 1.72464C12.4163 1.30569 11.7825 1.26175 11.3675 1.62503C10.9505 1.98733 10.9056 2.61819 11.2679 3.03519C11.3489 3.12992 11.4251 3.22855 11.4935 3.33109Z" fill="#292929"/>
<path fill-rule="evenodd" clip-rule="evenodd" d="M9 2C9.10742 2 9.21387 2.00586 9.31934 2.01758C9.35645 2.02149 9.39356 2.02344 9.42969 2.02344C9.93262 2.02344 10.3662 1.64453 10.4229 1.13282C10.4834 0.58399 10.0869 0.08985 9.53809 0.0293C9.36035 0.00976 9.18164 0 9 0H8.92871C8.37598 0 7.96484 0.44726 7.96484 1C7.96484 1.55274 8.44726 2 9 2Z" fill="#292929"/>
<path fill-rule="evenodd" clip-rule="evenodd" d="M12.0005 5.64258V6.14258C12.0005 6.69531 12.4478 7.14258 13.0005 7.14258C13.5532 7.14258 14.0005 6.69531 14.0005 6.14258V5.64258C14.0005 5.08985 13.5532 4.64258 13.0005 4.64258C12.4478 4.64258 12.0005 5.08985 12.0005 5.64258Z" fill="#292929"/>
<path fill-rule="evenodd" clip-rule="evenodd" d="M1.00049 6.2861C1.55323 6.2861 2.00049 5.83883 2.00049 5.2861L2.0044 4.83981C2.03467 4.28805 1.6128 3.81637 1.06104 3.78708C0.524898 3.71774 0.0375983 4.17868 0.00829828 4.73044C0.00341828 4.82028 0.000488281 4.90915 0.000488281 4.99997V5.2861C0.000488281 5.83884 0.447748 6.2861 1.00049 6.2861Z" fill="#292929"/>
<path fill-rule="evenodd" clip-rule="evenodd" d="M5.4292 2H5.92896C6.4817 2 6.92896 1.55273 6.92896 1C6.92896 0.44727 6.48169 0 5.92896 0H5.4292C4.87646 0 4.4292 0.44726 4.4292 1C4.4292 1.55274 4.87647 2 5.4292 2Z" fill="#292929"/>
<path fill-rule="evenodd" clip-rule="evenodd" d="M1.00049 9.78613C1.55323 9.78613 2.00049 9.33886 2.00049 8.78613V8.28613C2.00049 7.7334 1.55322 7.28613 1.00049 7.28613C0.447758 7.28613 0.000488281 7.7334 0.000488281 8.28613V8.78613C0.000488281 9.33887 0.447748 9.78613 1.00049 9.78613Z" fill="#292929"/>
<path fill-rule="evenodd" clip-rule="evenodd" d="M2.223 3.12108C2.47202 3.12108 2.72105 3.02831 2.91538 2.84276C3.0062 2.75585 3.1019 2.67284 3.20249 2.59764C3.64487 2.26659 3.73472 1.63963 3.40269 1.19823C3.07163 0.75487 2.44468 0.66698 2.00327 0.99803C1.83823 1.12205 1.68003 1.25584 1.53061 1.3994C1.13217 1.78221 1.11948 2.41502 1.50131 2.81346C1.6976 3.01854 1.96031 3.12108 2.223 3.12108Z" fill="#292929"/>
<path fill-rule="evenodd" clip-rule="evenodd" d="M9.28855 9.68848C8.84348 9.23218 8.29514 9 7.71115 9C7.11252 9 6.53439 9.25049 6.12521 9.68726C5.74508 10.0923 5.53561 10.6243 5.53561 11.1841V11.3684C5.39889 11.3855 5.26705 11.3965 5.14059 11.3999L5.03512 11.4016C4.77096 11.4016 4.52975 11.3677 4.29781 11.2979C4.01119 11.2122 3.71041 11.0623 3.40035 10.8516C3.03707 10.604 2.6147 10.4739 2.17769 10.4739C1.57808 10.4739 0.999473 10.7258 0.589803 11.165C-0.0879371 11.8872 -0.193887 12.9853 0.335893 13.8313C0.640093 14.3174 0.982383 14.7654 1.35201 15.1628C1.52682 15.3501 1.70894 15.5278 1.894 15.6917C2.50728 16.2388 3.22701 16.6985 4.02682 17.0527C4.5317 17.2786 5.04342 17.45 5.5361 17.5879V17.8152C5.5361 18.375 5.74606 18.907 6.12668 19.3132C6.53244 19.7478 7.11203 20 7.71213 20C8.10227 20 8.47239 19.8879 8.801 19.6934C9.69114 21.0767 11.2366 22 13.0002 22H17C19.7568 22 22 19.7568 22 17V13C22 10.2432 19.7568 8 17 8H12.9546C12.4018 8 11.9546 8.44727 11.9546 9C11.9546 9.06445 11.9612 9.33423 11.9612 9.48535C11.9612 10.0369 12.2493 10.542 12.7952 10.6279C12.8469 10.6357 12.8996 10.6397 12.9504 10.6397C13.3616 10.6397 13.7165 10.3782 13.866 10H17C18.6543 10 20 11.3457 20 13V17C20 18.6543 18.6543 20 17 20H13.0002C11.7934 20 10.7576 19.2798 10.2817 18.25L12.4316 15.9522C12.447 15.9356 12.4624 15.9187 12.4773 15.9014C13.1719 15.1062 13.1716 13.9072 12.4768 13.1123L9.28855 9.68848ZM7.8259 17.9485C7.79172 17.9834 7.75608 17.9934 7.7219 17.9956C7.65159 17.9932 7.60593 17.967 7.58469 17.9443C7.5549 17.9124 7.53562 17.8677 7.53562 17.815L7.53538 16.3677V16.0059C6.91282 15.8733 6.2429 15.73 5.57908 15.5088C5.55808 15.5017 4.99705 15.2957 4.8364 15.2239C4.249 14.9641 3.69235 14.6162 3.21872 14.1936C3.07712 14.0681 2.94284 13.9365 2.81589 13.8001C2.51608 13.4783 2.25583 13.1296 2.03024 12.7695C1.98874 12.7029 1.98532 12.6004 2.05221 12.5291C2.10983 12.4678 2.20114 12.4548 2.27243 12.5034C2.42868 12.6094 3.53122 13.156 3.72019 13.2124C4.21238 13.3613 4.70554 13.4146 5.19627 13.3992C5.61229 13.3875 7.13841 13.0933 7.50169 13.0071C7.53514 12.9993 7.53514 11.1841 7.53514 11.1841C7.53514 11.1335 7.55443 11.0923 7.58202 11.0608C7.60497 11.033 7.65062 11.0066 7.70287 11.0034C7.75512 11.0066 7.79076 11.0166 7.82518 11.0518L10.6838 14.1201L10.9709 14.4285C11.0251 14.4903 10.9915 14.5628 10.9709 14.5859L10.7805 14.7896L10.0002 15.6238L7.8259 17.9485Z" fill="#292929"/>
</g>
<defs>
<clipPath id="clip0_55_43528">
<rect width="22" height="22" fill="white"/>
</clipPath>
</defs>
</svg>
