<svg width="22" height="22" viewBox="0 0 22 22" fill="none" xmlns="http://www.w3.org/2000/svg">
<path fill-rule="evenodd" clip-rule="evenodd" d="M16 21H6C3.24316 21 1 18.7568 1 16V6C1 3.24316 3.24316 1 6 1H16C18.7568 1 21 3.24316 21 6V16C21 18.7568 18.7568 21 16 21ZM6 3C4.3457 3 3 4.3457 3 6V16C3 17.6543 4.3457 19 6 19H16C17.6543 19 19 17.6543 19 16V6C19 4.3457 17.6543 3 16 3H6Z" fill="#292929"/>
<path fill-rule="evenodd" clip-rule="evenodd" d="M6.01682 8.17874C5.50461 8.17874 5.05393 7.81448 5.00803 7.29593C4.9343 6.45902 5.37326 5.66898 6.12668 5.28128C7.04563 4.80765 8.15939 5.07816 8.77268 5.92093C9.09788 6.36722 8.99973 6.9932 8.55344 7.31839C8.10617 7.64261 7.48117 7.54398 7.15647 7.09866C7.13596 7.07132 7.09104 7.03518 7.04026 7.06057C7.08909 7.61037 6.66233 8.126 6.11204 8.17483C6.0803 8.17678 6.04855 8.17874 6.01682 8.17874Z" fill="#292929"/>
<path fill-rule="evenodd" clip-rule="evenodd" d="M8.28808 13.834C8.20019 13.834 8.11083 13.8223 8.02197 13.7979C6.76904 13.4531 5.89404 12.3223 5.89404 11.0479C5.89404 9.46582 7.19922 8.17871 8.80371 8.17871C9.49365 8.17871 10.1455 8.42383 10.688 8.88867C11.1074 9.24805 11.1563 9.8789 10.7974 10.2988C10.438 10.7188 9.80714 10.7666 9.38721 10.4082C8.78321 9.89063 7.89405 10.3672 7.89405 11.0479C7.89405 11.4307 8.1587 11.7617 8.55323 11.8701C9.08546 12.0166 9.39844 12.5674 9.25196 13.0996C9.1294 13.543 8.72705 13.834 8.28808 13.834Z" fill="#292929"/>
<path fill-rule="evenodd" clip-rule="evenodd" d="M13.5444 16.9482C11.6392 16.9482 10.0894 15.4219 10.0894 13.5449C10.0894 11.668 11.6392 10.1416 13.5444 10.1416C15.4497 10.1416 17 11.668 17 13.5449C17 15.4219 15.4497 16.9482 13.5444 16.9482ZM13.5444 12.1416C12.7422 12.1416 12.0894 12.7715 12.0894 13.5449C12.0894 14.3184 12.7422 14.9482 13.5444 14.9482C14.3472 14.9482 15 14.3184 15 13.5449C15 12.7715 14.3472 12.1416 13.5444 12.1416Z" fill="#292929"/>
</svg>
