<svg width="22" height="22" viewBox="0 0 22 22" fill="none" xmlns="http://www.w3.org/2000/svg">
<path fill-rule="evenodd" clip-rule="evenodd" d="M7.72192 6.36528C7.19 6.05287 6.5 6.41222 6.5 7.00166V10.9984C6.5 11.5878 7.19 11.9471 7.72192 11.6347L11.1246 9.63639C11.6251 9.34244 11.6251 8.65754 11.1246 8.36362L7.72192 6.36528Z" fill="#292929"/>
<path fill-rule="evenodd" clip-rule="evenodd" d="M14.2715 22C12.4678 22 11 20.6602 11 19.0127V15.0381C11 13.3906 12.4678 12.0508 14.2715 12.0508C14.8242 12.0508 15.2715 12.4981 15.2715 13.0508C15.2715 13.6035 14.8242 14.0508 14.2715 14.0508C13.582 14.0508 13 14.5029 13 15.0381V19.0127C13 19.5479 13.582 20 14.2715 20C14.8242 20 15.2715 20.4473 15.2715 21C15.2715 21.5527 14.8242 22 14.2715 22Z" fill="#292929"/>
<path fill-rule="evenodd" clip-rule="evenodd" d="M18.7285 22C18.1758 22 17.7285 21.5527 17.7285 21C17.7285 20.4473 18.1758 20 18.7285 20C19.418 20 20 19.5478 20 19.0127V15.0381C20 14.5029 19.418 14.0508 18.7285 14.0508C18.1758 14.0508 17.7285 13.6035 17.7285 13.0508C17.7285 12.4981 18.1758 12.0508 18.7285 12.0508C20.5322 12.0508 22 13.3906 22 15.0381V19.0127C22 20.6602 20.5322 22 18.7285 22Z" fill="#292929"/>
<path fill-rule="evenodd" clip-rule="evenodd" d="M8 17H6C3.24316 17 1 14.7568 1 12V6C1 3.24317 3.24316 1 6 1H12C14.7568 1 17 3.24316 17 6V9C17 9.55273 16.5527 10 16 10C15.4473 10 15 9.55273 15 9V6C15 4.3457 13.6543 3 12 3H6C4.3457 3 3 4.3457 3 6V12C3 13.6543 4.3457 15 6 15H8C8.55273 15 9 15.4473 9 16C9 16.5527 8.55273 17 8 17Z" fill="#292929"/>
</svg>
