<svg width="22" height="22" viewBox="0 0 22 22" fill="none" xmlns="http://www.w3.org/2000/svg">
<path fill-rule="evenodd" clip-rule="evenodd" d="M20 16H7C6.44873 16 6 15.5518 6 15V2C6 1.44727 5.55225 1 5 1C4.44775 1 4 1.44727 4 2V4H2C1.44775 4 1 4.44727 1 5C1 5.55273 1.44775 6 2 6H4V15C4 16.6543 5.3457 18 7 18H16V20C16 20.5527 16.4478 21 17 21C17.5522 21 18 20.5527 18 20V18H20C20.5522 18 21 17.5527 21 17C21 16.4473 20.5522 16 20 16Z" fill="#292929"/>
<path fill-rule="evenodd" clip-rule="evenodd" d="M8.9989 5.99805H15.0034C15.554 5.99805 16.0023 6.4458 16.0023 6.99707V13.001C16.0023 13.5532 16.4495 14 17.0011 14C17.5527 14 18 13.5532 18 13.001V6.99707C18 5.34424 16.6558 4 15.0034 4H8.9989C8.44726 4 8 4.44678 8 4.99902C8 5.55126 8.44727 5.99805 8.9989 5.99805Z" fill="#292929"/>
</svg>
