<svg width="22" height="22" viewBox="0 0 22 22" fill="none" xmlns="http://www.w3.org/2000/svg">
<path fill-rule="evenodd" clip-rule="evenodd" d="M7 21H15C17.7568 21 20 18.7568 20 16V8.65724C20 7.85744 19.688 7.10353 19.1211 6.53517L14.4644 1.87891C13.898 1.3125 13.1445 1 12.3433 1H7C4.24316 1.00001 2 3.24317 2 6.00001V16C2 18.7568 4.24316 21 7 21ZM13 3.25947C13.0153 3.27296 13.0358 3.27851 13.0503 3.29298L17.7061 7.94825C17.7211 7.96339 17.7267 7.98414 17.7407 8.00001H14C13.4487 8.00001 13 7.55177 13 7.00001V3.25947ZM4 6.00001C4 4.34571 5.3457 3.00001 7 3.00001H11V7.00001C11 8.65431 12.3457 10 14 10H18V16C18 17.6543 16.6543 19 15 19H7C5.3457 19 4 17.6543 4 16V6.00001Z" fill="#292929"/>
</svg>
