<svg width="22" height="22" viewBox="0 0 22 22" fill="none" xmlns="http://www.w3.org/2000/svg">
<g clip-path="url(#clip0_950_51169)">
<path fill-rule="evenodd" clip-rule="evenodd" d="M16.0457 9.02442C15.7215 9.02442 15.4159 8.9004 15.1825 8.67383C14.9188 8.41797 14.7821 8.06153 14.8075 7.69629L14.9618 5.48633L13.3734 3.94922C12.8812 3.47168 12.869 2.6836 13.346 2.19141C13.6029 1.92871 13.9642 1.79493 14.3221 1.81641L16.5243 1.97168L18.0555 0.38086C18.2845 0.14258 18.5936 0.00684 18.9256 0C19.2767 0 19.5726 0.11719 19.8124 0.34863C20.0775 0.60644 20.2137 0.96289 20.1888 1.32812V1.33007L20.034 3.5371L21.6229 5.07519C22.1151 5.55273 22.1273 6.34081 21.6502 6.833C21.3944 7.0957 21.0418 7.23046 20.6742 7.208L18.471 7.05273L16.9408 8.64355C16.7113 8.88281 16.4012 9.01757 16.0687 9.02441L16.0457 9.02442ZM16.2582 3.95802L16.6068 4.29493C16.8704 4.55177 17.0062 4.90723 16.9813 5.27247L16.9481 5.75099L17.2767 5.40919C17.5389 5.14161 17.8949 5.00587 18.2567 5.03224L18.7381 5.06642L18.3895 4.72951C18.1263 4.48049 17.9862 4.11916 18.0145 3.74513L18.0477 3.27345L17.7196 3.61427C17.4559 3.88478 17.0985 4.00782 16.7254 3.99122L16.2582 3.95802ZM20.0096 3.88282L20.0091 3.89063C20.0091 3.8877 20.0096 3.88575 20.0096 3.88282ZM19.7713 3.28321L19.786 3.29688C19.7811 3.29297 19.7762 3.28809 19.7713 3.28321ZM16.8612 1.99513L16.8773 1.99708C16.8719 1.9961 16.8665 1.9961 16.8612 1.99513Z" fill="#292929"/>
<path fill-rule="evenodd" clip-rule="evenodd" d="M13.9634 10.8064C13.988 10.7464 13.998 10.6851 13.9988 10.6236C13.9988 10.6206 14.0005 10.618 14.0005 10.6151C14.0004 10.6111 13.9982 10.6077 13.998 10.6038C13.9963 10.5419 13.9836 10.482 13.9589 10.4246C13.9576 10.4217 13.9569 10.4186 13.9556 10.4157C13.9282 10.3553 13.8928 10.2976 13.8409 10.2491L12.8073 9.28572L12.8742 8.36015L12.9075 7.9017C12.9128 7.83048 12.8984 7.76339 12.8759 7.69943C12.8721 7.68894 12.8677 7.67958 12.8632 7.66936C12.8128 7.55153 12.7225 7.45179 12.5944 7.3966C12.5924 7.39574 12.5903 7.39583 12.5883 7.39501C12.5624 7.38275 12.5374 7.38152 12.5105 7.37439C12.4676 7.36344 12.4253 7.35708 12.3821 7.35663C12.3779 7.35722 12.3736 7.35409 12.3695 7.35486C12.3649 7.35495 12.361 7.35736 12.3564 7.35754C12.2954 7.35977 12.2366 7.37162 12.1799 7.39397C12.1734 7.39651 12.1667 7.39806 12.1602 7.40083C12.1005 7.42713 12.0437 7.46074 11.9954 7.50889L10.9976 8.50746L9.56414 8.40971C9.48334 8.40399 9.40781 8.42093 9.33675 8.44732C9.33693 8.44723 9.33656 8.44741 9.33675 8.44732C9.20883 8.49497 9.10029 8.58536 9.04154 8.7135C9.03787 8.72149 9.03782 8.72999 9.03458 8.73807C9.0343 8.73871 9.03425 8.73948 9.03402 8.74011C9.01027 8.79993 9.00063 8.86098 9.00049 8.9223C9.00044 8.92975 9.00105 8.93684 9.00138 8.94428C9.00378 8.99992 9.0153 9.05361 9.03632 9.10562C9.04004 9.11516 9.04258 9.12452 9.04685 9.13387C9.07281 9.1882 9.1063 9.23939 9.15229 9.28385C9.1553 9.28685 9.15624 9.29089 9.15934 9.29384L10.1915 10.2587L10.1379 10.9947L10.0902 11.6456C10.0898 11.6513 10.093 11.6565 10.0928 11.6621C10.0912 11.7229 10.1017 11.7806 10.1205 11.8359C10.1266 11.8539 10.1342 11.8702 10.1424 11.8876C10.1645 11.9344 10.1933 11.9766 10.229 12.0149C10.2375 12.0242 10.2404 12.0366 10.2497 12.0453C10.2533 12.0488 10.2582 12.0497 10.2619 12.053C10.3036 12.0897 10.3512 12.1212 10.4054 12.1445C10.4065 12.145 10.4077 12.1448 10.4088 12.1452C10.4764 12.1737 10.5478 12.1907 10.6203 12.1907C10.7591 12.1907 10.8976 12.1391 11.0026 12.0352L12.0011 11.041L13.4387 11.134C13.4638 11.1368 13.4872 11.1253 13.5121 11.1238C13.5462 11.121 13.58 11.1188 13.6127 11.1099C13.6459 11.1005 13.6756 11.0889 13.7064 11.073C13.7458 11.0542 13.7811 11.0301 13.8147 11.0024C13.8249 10.9937 13.8385 10.9901 13.8481 10.9806C13.851 10.9777 13.8519 10.9737 13.8548 10.9707C13.8962 10.9293 13.9321 10.8823 13.9575 10.8273C13.9595 10.8229 13.9594 10.8183 13.9613 10.8139C13.9623 10.8115 13.9625 10.8089 13.9634 10.8064Z" fill="#292929"/>
<path fill-rule="evenodd" clip-rule="evenodd" d="M20.9336 9.44873C20.8991 9.35107 20.8459 9.26709 20.7846 9.18555C20.6021 8.94434 20.3262 8.77832 20 8.77832C19.679 8.77832 19.4064 8.93896 19.2234 9.17383C19.2233 9.17383 19.2231 9.17432 19.223 9.17481C19.1589 9.25684 19.1034 9.34376 19.0674 9.44385C19.0258 9.54737 19 9.65869 19 9.77832V14H3V8H6.95831L7.00262 7.90918C7.06414 7.77295 7.14245 7.6416 7.23474 7.51758C7.50848 7.10938 7.92663 6.76563 8.43945 6.57422C8.71905 6.47119 8.99469 6.42285 9.26867 6.41504L10.0298 6.4502L10.3843 6.09571C10.6103 5.8711 10.8686 5.69727 11.1601 5.56934L11.2666 5.52246L11.335 5.50098C11.4487 5.46192 11.5644 5.42969 11.6816 5.40625L11.821 5.35742L11.7866 5.32422C10.8707 4.43555 10.6038 3.13818 10.9694 2H6C3.24316 2 1 4.24316 1 7V15C1 17.7568 3.24316 20 6 20H16C18.7568 20 21 17.7568 21 15V9.77832C21 9.66064 20.9744 9.55127 20.9336 9.44873ZM5 4.41504C5 4.07764 5.21875 3.8042 5.48877 3.8042H6.95557C7.22559 3.8042 7.44434 4.07764 7.44434 4.41504V5.6377C7.44434 5.9751 7.22559 6.24854 6.95557 6.24854H5.48877C5.21875 6.24854 5 5.9751 5 5.6377V4.41504ZM7.49023 17.6548C7.49023 17.9995 7.26635 18.2798 6.99023 18.2798H5.49023C5.21411 18.2798 4.99023 17.9995 4.99023 17.6548V16.4048C4.99023 16.0596 5.21411 15.7798 5.49023 15.7798H6.99023C7.26635 15.7798 7.49023 16.0596 7.49023 16.4048V17.6548ZM12.2451 17.6548C12.2451 17.9995 12.0212 18.2798 11.7451 18.2798H10.2451C9.969 18.2798 9.74512 17.9995 9.74512 17.6548V16.4048C9.74512 16.0596 9.969 15.7798 10.2451 15.7798H11.7451C12.0212 15.7798 12.2451 16.0596 12.2451 16.4048V17.6548ZM17 17.6548C17 17.9995 16.7761 18.2798 16.5 18.2798H15C14.7239 18.2798 14.5 17.9995 14.5 17.6548V16.4048C14.5 16.0596 14.7239 15.7798 15 15.7798H16.5C16.7761 15.7798 17 16.0596 17 16.4048V17.6548Z" fill="#292929"/>
</g>
<defs>
<clipPath id="clip0_950_51169">
<rect width="22" height="22" fill="white"/>
</clipPath>
</defs>
</svg>
