<svg width="22" height="22" viewBox="0 0 22 22" fill="none" xmlns="http://www.w3.org/2000/svg">
<path fill-rule="evenodd" clip-rule="evenodd" d="M3 13C2.44775 13 2 12.5527 2 12V9.5C2 8.94727 2.44775 8.5 3 8.5C3.55225 8.5 4 8.94727 4 9.5V12C4 12.5527 3.55225 13 3 13Z" fill="#292929"/>
<path fill-rule="evenodd" clip-rule="evenodd" d="M19 14C18.4477 14 18 13.5527 18 13V8.5C18 7.94727 18.4477 7.5 19 7.5C19.5523 7.5 20 7.94727 20 8.5V13C20 13.5527 19.5523 14 19 14Z" fill="#292929"/>
<path fill-rule="evenodd" clip-rule="evenodd" d="M7 17.75C6.44775 17.75 6 17.3027 6 16.75V4.75C6 4.19727 6.44775 3.75 7 3.75C7.55225 3.75 8 4.19727 8 4.75V16.75C8 17.3027 7.55225 17.75 7 17.75Z" fill="#292929"/>
<path fill-rule="evenodd" clip-rule="evenodd" d="M11 15.75C10.4477 15.75 10 15.3027 10 14.75V6.75C10 6.19727 10.4477 5.75 11 5.75C11.5523 5.75 12 6.19727 12 6.75V14.75C12 15.3027 11.5523 15.75 11 15.75Z" fill="#292929"/>
<path fill-rule="evenodd" clip-rule="evenodd" d="M15 20.25C14.4477 20.25 14 19.8027 14 19.25V2.75C14 2.19727 14.4477 1.75 15 1.75C15.5523 1.75 16 2.19727 16 2.75V19.25C16 19.8027 15.5523 20.25 15 20.25Z" fill="#292929"/>
</svg>
