<svg width="22" height="22" viewBox="0 0 22 22" fill="none" xmlns="http://www.w3.org/2000/svg">
<g clip-path="url(#clip0_55_43629)">
<path fill-rule="evenodd" clip-rule="evenodd" d="M16.2618 8.56843C15.9562 8.56843 15.6505 8.45613 15.4132 8.23249C15.1476 7.97761 15.0109 7.628 15.0324 7.26862L15.1779 5.2276L13.6827 3.81256C13.4454 3.58697 13.3058 3.27057 13.2999 2.94342C13.2951 2.61627 13.424 2.29498 13.6544 2.06256C13.9044 1.80768 14.2618 1.66803 14.6183 1.70026L16.7081 1.84381L18.1593 0.368222C18.629 -0.107368 19.4034 -0.118108 19.8868 0.336972C20.1564 0.596742 20.2931 0.950252 20.2667 1.31353L20.1212 3.34185L21.6173 4.75689C21.8575 4.98443 21.9933 5.29205 22.0001 5.62212C22.006 5.95415 21.882 6.26665 21.6495 6.50396C21.3937 6.7608 21.048 6.89849 20.6964 6.87115L18.5929 6.72564L17.1407 8.20123C16.9025 8.44537 16.5822 8.56843 16.2618 8.56843ZM15.4425 5.47859C15.4445 5.47957 15.4454 5.48152 15.4474 5.4825L15.4425 5.47859ZM16.6241 3.84284L16.8195 4.02741C17.0861 4.27839 17.2257 4.63581 17.1984 5.00495L17.1769 5.31354L17.4152 5.07135C17.67 4.81744 18.0236 4.67877 18.3673 4.70612L18.6759 4.7276L18.4806 4.54303C18.213 4.2901 18.0734 3.93365 18.1007 3.56451L18.1222 3.25787L17.8859 3.4981C17.6261 3.75787 17.2784 3.89947 16.9181 3.86236L16.6241 3.84284Z" fill="#292929"/>
<path fill-rule="evenodd" clip-rule="evenodd" d="M13.9629 10.2183C13.9875 10.1583 13.9976 10.097 13.9984 10.0354C13.9984 10.0325 14 10.0299 14 10.027C14 10.023 13.9977 10.0196 13.9976 10.0157C13.9958 9.95378 13.9831 9.89387 13.9584 9.8365C13.9572 9.83355 13.9564 9.8305 13.9551 9.8276C13.9277 9.76714 13.8923 9.7095 13.8404 9.66099L12.8068 8.69758L12.8737 7.77201L12.907 7.31356C12.9123 7.24234 12.8979 7.17525 12.8754 7.11129C12.8716 7.1008 12.8672 7.09144 12.8628 7.08122C12.8123 6.96339 12.722 6.86365 12.5939 6.80846C12.5919 6.8076 12.5898 6.80769 12.5879 6.80687C12.5619 6.79461 12.5369 6.79338 12.51 6.78625C12.4671 6.7753 12.4248 6.76894 12.3816 6.76849C12.3774 6.76908 12.3731 6.76595 12.369 6.76672C12.3644 6.76681 12.3605 6.76922 12.3559 6.7694C12.295 6.77163 12.2361 6.78348 12.1794 6.80583C12.1729 6.80837 12.1662 6.80992 12.1597 6.81269C12.1 6.83899 12.0432 6.8726 11.9949 6.92075L10.9971 7.91932L9.56365 7.82157C9.48285 7.81585 9.40732 7.83279 9.33626 7.85918C9.33607 7.85927 9.33644 7.85909 9.33626 7.85918C9.20834 7.90683 9.0998 7.99722 9.04105 8.12536C9.03738 8.13335 9.03733 8.14185 9.03409 8.14993C9.03381 8.15057 9.03376 8.15134 9.03353 8.15197C9.00978 8.21179 9.00014 8.27284 9 8.33416C8.99995 8.34161 9.00056 8.3487 9.00089 8.35614C9.00329 8.41178 9.01481 8.46547 9.03583 8.51748C9.03955 8.52702 9.04209 8.53638 9.04636 8.54573C9.07232 8.60006 9.10581 8.65125 9.1518 8.69571C9.15481 8.69871 9.15575 8.70275 9.15885 8.7057L10.191 9.67056L10.1374 10.4065L10.0897 11.0575C10.0893 11.0632 10.0925 11.0684 10.0923 11.074C10.0907 11.1348 10.1012 11.1925 10.12 11.2477C10.1261 11.2658 10.1337 11.2821 10.1419 11.2995C10.164 11.3462 10.1928 11.3884 10.2285 11.4267C10.237 11.436 10.2399 11.4484 10.2492 11.4572C10.2528 11.4606 10.2577 11.4616 10.2614 11.4648C10.3031 11.5016 10.3507 11.5331 10.4049 11.5564C10.4061 11.5568 10.4072 11.5566 10.4084 11.5571C10.4759 11.5855 10.5473 11.6026 10.6198 11.6026C10.7586 11.6026 10.8971 11.551 11.0021 11.447L12.0006 10.4528L13.4382 10.5459C13.4633 10.5486 13.4867 10.5372 13.5116 10.5357C13.5458 10.5329 13.5795 10.5307 13.6122 10.5218C13.6454 10.5124 13.6751 10.5008 13.7059 10.4849C13.7454 10.4661 13.7806 10.4419 13.8142 10.4143C13.8244 10.4056 13.838 10.4019 13.8476 10.3925C13.8506 10.3896 13.8515 10.3856 13.8543 10.3826C13.8957 10.3412 13.9316 10.2942 13.957 10.2391C13.959 10.2348 13.9589 10.2302 13.9608 10.2258C13.9618 10.2234 13.962 10.2208 13.9629 10.2183Z" fill="#292929"/>
<path fill-rule="evenodd" clip-rule="evenodd" d="M18 10C17.4473 10 17 10.4473 17 11V15.5996L15.5576 14.1797C14.7392 13.375 13.4072 13.375 12.5869 14.1797L11.585 15.166L8.09668 11.7315C7.27832 10.9248 5.94434 10.9248 5.12598 11.7315L3 13.8242V10C3 8.3457 4.3457 7 6 7H7.5C8.05273 7 8.5 6.55273 8.5 6C8.5 5.44727 8.05273 5 7.5 5H6C3.24316 5 1 7.24316 1 10V16C1 18.7568 3.24316 21 6 21H14C16.7568 21 19 18.7568 19 16V11C19 10.4473 18.5527 10 18 10ZM14 19H5.99999C4.5327 19 3.31322 17.9397 3.05517 16.5461C3.08398 16.5234 3.11865 16.5137 3.1455 16.4873L6.52831 13.1572C6.57128 13.1143 6.6494 13.1143 6.69433 13.1572L10.8838 17.2822C11.2724 17.665 11.8974 17.665 12.2861 17.2822L13.9883 15.6064C14.0332 15.5615 14.1103 15.5625 14.1553 15.6055L16.3848 17.8003C15.8364 18.5244 14.9761 19 14 19Z" fill="#292929"/>
</g>
<defs>
<clipPath id="clip0_55_43629">
<rect width="22" height="22" fill="white"/>
</clipPath>
</defs>
</svg>
