<svg width="22" height="22" viewBox="0 0 22 22" fill="none" xmlns="http://www.w3.org/2000/svg">
<path fill-rule="evenodd" clip-rule="evenodd" d="M14.8251 10.4708C13.4526 10.4708 12.0346 9.95025 10.4667 8.91998C7.87445 7.21783 5.35444 7.3897 3.18305 9.41998C2.78022 9.79889 2.14692 9.7774 1.76948 9.37213C1.39253 8.96881 1.41352 8.336 1.81684 7.95904C4.69916 5.2647 8.16205 5.01275 11.5644 7.2481C14.0537 8.88189 15.8574 9.19048 18.8046 6.34086C19.2016 5.95707 19.8349 5.96587 20.2187 6.36431C20.603 6.76177 20.5922 7.39457 20.1953 7.77836C18.3295 9.58207 16.6167 10.4708 14.8251 10.4708Z" fill="#292929"/>
<path fill-rule="evenodd" clip-rule="evenodd" d="M14.8251 16.2373C13.4526 16.2373 12.0346 15.7168 10.4667 14.6865C7.87397 12.9834 5.35492 13.1553 3.18305 15.1875C2.78022 15.5664 2.14692 15.5449 1.76948 15.1396C1.39253 14.7363 1.41352 14.1035 1.81684 13.7266C4.69965 11.0312 8.16157 10.7783 11.5644 13.0146C14.0537 14.6494 15.8574 14.957 18.8046 12.1074C19.2016 11.7226 19.8349 11.7334 20.2187 12.1309C20.603 12.5283 20.5922 13.1611 20.1953 13.5449C18.3295 15.3486 16.6167 16.2373 14.8251 16.2373Z" fill="#292929"/>
</svg>
