<svg width="22" height="22" viewBox="0 0 22 22" fill="none" xmlns="http://www.w3.org/2000/svg">
<g clip-path="url(#clip0_55_43636)">
<path fill-rule="evenodd" clip-rule="evenodd" d="M15 1H9.65723C8.85743 1 8.10352 1.31152 7.53516 1.87891L2.87793 6.53613C2.31152 7.10351 2 7.85742 2 8.65722V16C2 18.7568 4.24316 21 7 21C7.55273 21 8 20.5527 8 20C8 19.4473 7.55273 19 7 19C5.3457 19 4 17.6543 4 16V9.99999H8C9.6543 9.99999 11 8.65429 11 6.99999V3H15C16.6543 3 18 4.3457 18 6V8C18 8.55273 18.4473 9 19 9C19.5527 9 20 8.55273 20 8V6C20 3.24316 17.7568 1 15 1ZM8 8H4.25903C4.2727 7.98438 4.27832 7.96387 4.29297 7.94922L8.94824 3.29395C8.96338 3.27881 8.98413 3.27344 9 3.25928V7C9 7.55176 8.55176 8 8 8Z" fill="#292929"/>
<path fill-rule="evenodd" clip-rule="evenodd" d="M13.9629 20.6158C13.9875 20.5558 13.9976 20.4945 13.9984 20.4329C13.9984 20.43 14 20.4274 14 20.4244C14 20.4205 13.9977 20.4171 13.9976 20.4132C13.9958 20.3512 13.9831 20.2913 13.9584 20.234C13.9572 20.231 13.9564 20.228 13.9551 20.2251C13.9277 20.1646 13.8923 20.107 13.8404 20.0585L12.8068 19.095L12.8737 18.1695L12.907 17.711C12.9123 17.6398 12.8979 17.5727 12.8754 17.5088C12.8716 17.4983 12.8672 17.4889 12.8628 17.4787C12.8123 17.3609 12.722 17.2611 12.5939 17.2059C12.5919 17.2051 12.5898 17.2052 12.5879 17.2043C12.5619 17.1921 12.5369 17.1908 12.51 17.1837C12.4671 17.1728 12.4248 17.1664 12.3816 17.166C12.3774 17.1665 12.3731 17.1634 12.369 17.1642C12.3644 17.1643 12.3605 17.1667 12.3559 17.1669C12.295 17.1691 12.2361 17.1809 12.1794 17.2033C12.1729 17.2058 12.1662 17.2074 12.1597 17.2102C12.1 17.2365 12.0432 17.2701 11.9949 17.3182L10.9971 18.3168L9.56365 18.219C9.48285 18.2133 9.40732 18.2303 9.33626 18.2566C9.33607 18.2567 9.33644 18.2566 9.33626 18.2566C9.20834 18.3043 9.0998 18.3947 9.04105 18.5228C9.03738 18.5308 9.03733 18.5393 9.03409 18.5474C9.03381 18.548 9.03376 18.5488 9.03353 18.5494C9.00978 18.6093 9.00014 18.6703 9 18.7316C8.99995 18.7391 9.00056 18.7462 9.00089 18.7536C9.00329 18.8092 9.01481 18.8629 9.03583 18.9149C9.03955 18.9245 9.04209 18.9338 9.04636 18.9432C9.07232 18.9975 9.10581 19.0487 9.1518 19.0932C9.15481 19.0962 9.15575 19.1002 9.15885 19.1032L10.191 20.068L10.1374 20.804L10.0897 21.455C10.0893 21.4606 10.0925 21.4658 10.0923 21.4714C10.0907 21.5323 10.1012 21.59 10.12 21.6452C10.1261 21.6633 10.1337 21.6796 10.1419 21.697C10.164 21.7437 10.1928 21.7859 10.2285 21.8242C10.237 21.8335 10.2399 21.8459 10.2492 21.8547C10.2528 21.8581 10.2577 21.859 10.2614 21.8623C10.3031 21.8991 10.3507 21.9306 10.4049 21.9538C10.4061 21.9543 10.4072 21.9541 10.4084 21.9546C10.4759 21.983 10.5473 22 10.6198 22C10.7586 22 10.8971 21.9484 11.0021 21.8445L12.0006 20.8503L13.4382 20.9433C13.4633 20.9461 13.4867 20.9346 13.5116 20.9332C13.5458 20.9303 13.5795 20.9281 13.6122 20.9193C13.6454 20.9099 13.6751 20.8982 13.7059 20.8823C13.7454 20.8635 13.7806 20.8394 13.8142 20.8117C13.8244 20.803 13.838 20.7994 13.8476 20.79C13.8506 20.7871 13.8515 20.783 13.8543 20.7801C13.8957 20.7386 13.9316 20.6916 13.957 20.6366C13.959 20.6323 13.9589 20.6276 13.9608 20.6233C13.9618 20.6208 13.962 20.6182 13.9629 20.6158Z" fill="#292929"/>
<path fill-rule="evenodd" clip-rule="evenodd" d="M16.402 18.7685C16.0969 18.7685 15.7917 18.6572 15.5563 18.4316C15.2936 18.1855 15.1545 17.8291 15.1823 17.4609L15.321 15.5107L13.8811 14.1474C13.6447 13.9238 13.5061 13.6093 13.5007 13.2832C13.4948 12.958 13.6232 12.6386 13.8522 12.4072C14.1018 12.1523 14.4572 12.0097 14.8132 12.0468L16.8244 12.1855L18.2233 10.7636C18.6862 10.29 19.4572 10.2763 19.9401 10.7324C20.2087 10.9902 20.3449 11.3427 20.3186 11.705L20.1784 13.6572L21.6193 15.0205C21.8605 15.2509 21.9943 15.5566 21.9997 15.8847C22.0056 16.2128 21.882 16.5224 21.6521 16.7578C21.3962 17.0136 21.0505 17.1523 20.7019 17.123L18.676 16.9834L17.277 18.4052C17.0378 18.6474 16.7199 18.7685 16.402 18.7685ZM17.1774 17.6015L17.1769 17.6064C17.1769 17.6045 17.1769 17.6025 17.1774 17.6015ZM16.8356 14.1904L16.965 14.3125C17.2326 14.5664 17.3698 14.9218 17.342 15.2871L17.3268 15.5029L17.5007 15.3261C17.758 15.0722 18.1037 14.9375 18.4494 14.9629L18.6638 14.9775L18.5353 14.8564C18.2687 14.6054 18.1296 14.25 18.1574 13.8818L18.1725 13.666L17.9997 13.8418C17.7448 14.0996 17.4006 14.2363 17.0358 14.2041L16.8356 14.1904ZM15.3474 15.1406C15.3474 15.1435 15.3474 15.1455 15.3469 15.1474L15.3474 15.1406ZM19.9074 13.4004L19.9118 13.4052C19.9103 13.4033 19.9089 13.4023 19.9074 13.4004ZM19.6511 12.164L19.6476 12.1679C19.6486 12.166 19.6501 12.165 19.6511 12.164Z" fill="#292929"/>
</g>
<defs>
<clipPath id="clip0_55_43636">
<rect width="22" height="22" fill="white"/>
</clipPath>
</defs>
</svg>
