<svg width="22" height="22" viewBox="0 0 22 22" fill="none" xmlns="http://www.w3.org/2000/svg">
<g clip-path="url(#clip0_440_45788)">
<path fill-rule="evenodd" clip-rule="evenodd" d="M9.13378 21C9.06835 21 9.00292 20.9941 8.93651 20.9804C8.57323 20.9082 8.20409 20.8066 7.83983 20.6797C7.31835 20.498 7.04295 19.9277 7.2246 19.4062C7.40625 18.8847 7.98144 18.6103 8.49804 18.791C8.77538 18.8877 9.05566 18.9648 9.32909 19.0195C9.87011 19.1279 10.2217 19.6543 10.1133 20.1963C10.0185 20.6719 9.60057 21 9.13378 21ZM12.0977 20.8818C11.6689 20.8818 11.2724 20.6045 11.1406 20.1728C10.9805 19.6445 11.2783 19.0859 11.8066 18.9248C12.0645 18.8467 12.3184 18.7431 12.5615 18.6162C13.0517 18.3633 13.6543 18.5527 13.9102 19.0429C14.1641 19.5332 13.9736 20.1367 13.4834 20.3916C13.1328 20.5742 12.7637 20.7246 12.3887 20.8389C12.292 20.8682 12.1934 20.8818 12.0977 20.8818ZM5.57714 19.2549C5.35253 19.2549 5.12597 19.1797 4.93944 19.0244C4.66014 18.792 4.38768 18.5429 4.12792 18.2763C3.74218 17.8808 3.74999 17.248 4.1455 16.8623C4.54101 16.4775 5.17382 16.4844 5.55956 16.8799C5.7705 17.0957 5.99022 17.2978 6.21679 17.4853C6.64159 17.8379 6.70019 18.4687 6.34765 18.8935C6.14941 19.1318 5.86425 19.2549 5.57714 19.2549ZM15.1855 18.4795C15.0049 18.4795 14.8232 18.4306 14.6582 18.3291C14.1894 18.0371 14.0459 17.4209 14.3369 16.9511C14.4824 16.7177 14.6113 16.4668 14.7207 16.2051C14.9346 15.6943 15.5215 15.4541 16.0293 15.6679C16.5391 15.8818 16.7793 16.4668 16.5664 16.9765C16.415 17.3369 16.2373 17.6836 16.0361 18.0078C15.8467 18.3125 15.5195 18.4795 15.1855 18.4795ZM3.09667 16.1504C2.73437 16.1504 2.38573 15.9541 2.208 15.6103C2.0371 15.2802 1.88378 14.9463 1.75097 14.6093C1.54785 14.0957 1.79882 13.5146 2.31249 13.3115C2.82421 13.1093 3.40722 13.3584 3.61034 13.873C3.71972 14.1474 3.84374 14.4209 3.98339 14.6904C4.2373 15.1806 4.04589 15.7841 3.55566 16.0381C3.4082 16.1142 3.25096 16.1504 3.09667 16.1504ZM16.2031 14.6621C15.6504 14.6621 15.2031 14.2148 15.2031 13.6621C15.2031 13.372 15.1855 13.0771 15.1514 12.7802C15.0879 12.2324 15.4805 11.7353 16.0293 11.6718C16.5879 11.6113 17.0732 12.0009 17.1377 12.5498C17.1816 12.9248 17.2031 13.2959 17.2031 13.6621C17.2031 14.2148 16.7559 14.6621 16.2031 14.6621ZM2.01562 12.3291C1.49023 12.3291 1.0498 11.9199 1.01855 11.3886C1.00683 11.1894 1 10.9902 1 10.7929C1 10.6191 1.00488 10.4453 1.01465 10.2724C1.0459 9.72068 1.53223 9.29002 2.06934 9.33103C2.6211 9.36228 3.04297 9.83494 3.01075 10.3857C3.00294 10.5215 3.00001 10.6562 3.00001 10.7929C3.00001 10.9511 3.00489 11.1094 3.01466 11.2695C3.04786 11.8203 2.62794 12.2939 2.07618 12.3271C2.05567 12.3281 2.03613 12.3291 2.01562 12.3291ZM2.75878 8.44627C2.60644 8.44627 2.45214 8.41111 2.30663 8.33787C1.81444 8.08787 1.61815 7.48533 1.86815 6.99314C2.04588 6.64353 2.25194 6.30955 2.48045 6.00095C2.80857 5.55661 3.43357 5.46091 3.87889 5.79197C4.32323 6.12009 4.41698 6.74607 4.08787 7.19041C3.92576 7.41014 3.77928 7.64842 3.65135 7.89939C3.47459 8.24607 3.12304 8.44627 2.75878 8.44627ZM10.4805 5.90525C10.3515 5.90525 10.2207 5.88084 10.0937 5.8281C9.82323 5.71384 9.54882 5.61912 9.27343 5.54392C8.74023 5.40037 8.42577 4.85056 8.57031 4.31736C8.71386 3.78416 9.26367 3.46287 9.79687 3.61424C10.1514 3.70994 10.5117 3.83397 10.8672 3.9824C11.376 4.19627 11.6162 4.7822 11.4033 5.29197C11.2422 5.67478 10.8711 5.90525 10.4805 5.90525ZM5.6123 5.7656C5.21972 5.7656 4.84765 5.53318 4.68847 5.14744C4.47753 4.6367 4.71972 4.05271 5.23046 3.84178C5.59374 3.69139 5.97265 3.57323 6.35644 3.49217C6.89648 3.36815 7.42773 3.72069 7.54296 4.26072C7.65819 4.80174 7.31444 5.33299 6.77441 5.44724C6.50781 5.50486 6.24609 5.58591 5.99414 5.68943C5.86914 5.74119 5.74023 5.7656 5.6123 5.7656Z" fill="#292929"/>
<path fill-rule="evenodd" clip-rule="evenodd" d="M12.8837 7.64361L12.7553 9.11997L13.811 10.16C14.1267 10.4709 13.8797 11.0062 13.4383 10.9678L11.9619 10.8394L10.9219 11.8951C10.611 12.2108 10.0757 11.9638 10.1141 11.5224L10.2424 10.046L9.18673 9.006C8.87111 8.69507 9.11811 8.15978 9.5595 8.19816L11.0359 8.32654L12.0759 7.27084C12.3868 6.95522 12.9221 7.20222 12.8837 7.64361Z" fill="#292929"/>
<path fill-rule="evenodd" clip-rule="evenodd" d="M16.2618 8.56832C15.9562 8.56832 15.6505 8.45602 15.4132 8.23238C15.1476 7.9775 15.0109 7.62788 15.0324 7.26851L15.1779 5.22749L13.6827 3.81245C13.4454 3.58686 13.3058 3.27046 13.2999 2.94331C13.2951 2.61616 13.424 2.29487 13.6544 2.06245C13.9044 1.80659 14.2628 1.66987 14.6183 1.70015L16.7081 1.8437L18.1593 0.368105C18.629 -0.107485 19.4034 -0.119195 19.8868 0.336855C20.1564 0.596625 20.2931 0.950135 20.2667 1.31342L20.1212 3.34174L21.6173 4.75678C21.8575 4.98432 21.9933 5.29193 22.0001 5.622C22.006 5.95403 21.882 6.26654 21.6495 6.50385C21.3937 6.76068 21.0431 6.89643 20.6964 6.87104L18.5929 6.72553L17.1407 8.20112C16.9025 8.44526 16.5822 8.56832 16.2618 8.56832ZM16.6241 3.84273L16.8195 4.0273C17.0861 4.27828 17.2257 4.63569 17.1984 5.00484L17.1769 5.31343L17.4152 5.07124C17.6691 4.81733 18.0187 4.67572 18.3673 4.70601L18.6759 4.72749L18.4806 4.54292C18.213 4.28999 18.0734 3.93354 18.1007 3.5644L18.1222 3.25776L17.8859 3.49799C17.6261 3.75776 17.2736 3.89838 16.9181 3.86225L16.6241 3.84273Z" fill="#292929"/>
</g>
<defs>
<clipPath id="clip0_440_45788">
<rect width="22" height="22" fill="white"/>
</clipPath>
</defs>
</svg>
