<svg width="22" height="22" viewBox="0 0 22 22" fill="none" xmlns="http://www.w3.org/2000/svg">
<path fill-rule="evenodd" clip-rule="evenodd" d="M18.9541 22H10.5459C8.86621 22 7.5 20.6338 7.5 18.9541V14.75C7.5 14.6123 7.3877 14.5 7.25 14.5H3.0459C1.36621 14.5 0 13.1338 0 11.4541V3.0459C0 1.36621 1.36621 0 3.0459 0H11.4541C13.1338 0 14.5 1.36621 14.5 3.0459V7.25C14.5 7.3877 14.6123 7.5 14.75 7.5H18.9541C20.6338 7.5 22 8.86621 22 10.5459V18.9541C22 20.6338 20.6338 22 18.9541 22ZM3.0459 2C2.46875 2 2 2.46875 2 3.0459V11.4541C2 12.0312 2.46875 12.5 3.0459 12.5H7.25C8.49023 12.5 9.5 13.5098 9.5 14.75V18.9541C9.5 19.5312 9.96875 20 10.5459 20H18.9541C19.5312 20 20 19.5312 20 18.9541V10.5459C20 9.96875 19.5312 9.5 18.9541 9.5H14.75C13.5098 9.5 12.5 8.49023 12.5 7.25V3.0459C12.5 2.46875 12.0313 2 11.4541 2H3.0459Z" fill="#292929"/>
<path d="M10.0832 12.8333C10.5894 12.8333 10.9998 12.4229 10.9998 11.9167C10.9998 11.4104 10.5894 11 10.0832 11C9.57691 11 9.1665 11.4104 9.1665 11.9167C9.1665 12.4229 9.57691 12.8333 10.0832 12.8333Z" fill="#292929"/>
<path d="M11.9167 11C12.4229 11 12.8333 10.5896 12.8333 10.0833C12.8333 9.57703 12.4229 9.16663 11.9167 9.16663C11.4104 9.16663 11 9.57703 11 10.0833C11 10.5896 11.4104 11 11.9167 11Z" fill="#292929"/>
<path fill-rule="evenodd" clip-rule="evenodd" d="M5.2666 8.74398V5.25596C5.2666 4.74155 5.7818 4.42793 6.17898 4.70057L8.71966 6.44458C9.09336 6.7011 9.09336 7.29884 8.71966 7.55536L6.17898 9.29938C5.7818 9.57201 5.2666 9.2584 5.2666 8.74398Z" fill="#292929"/>
<path fill-rule="evenodd" clip-rule="evenodd" d="M13.2666 16.744V13.256C13.2666 12.7416 13.7818 12.4279 14.179 12.7006L16.7197 14.4446C17.0934 14.7011 17.0934 15.2988 16.7197 15.5554L14.179 17.2994C13.7818 17.572 13.2666 17.2584 13.2666 16.744Z" fill="#292929"/>
</svg>
