<svg width="22" height="22" viewBox="0 0 22 22" fill="none" xmlns="http://www.w3.org/2000/svg">
<path fill-rule="evenodd" clip-rule="evenodd" d="M16 2H6C3.24316 2 1 4.24316 1 7V15C1 17.7568 3.24316 20 6 20H16C18.7568 20 21 17.7568 21 15V7C21 4.24316 18.7568 2 16 2ZM16 18H6C4.38892 18 3.08105 16.7209 3.01318 15.1263L7.01269 11.0723C7.10937 10.9756 7.26562 10.9766 7.38574 11.0937L12.3154 15.7285C12.7031 16.0928 13.3105 16.0908 13.6943 15.7197L15.4062 14.0683C15.5029 13.9717 15.6611 13.9707 15.7812 14.0918L18.507 16.6395C17.9705 17.4571 17.0488 18 16 18ZM19 14.3636L17.1709 12.6543C16.2949 11.7783 14.8691 11.7773 14.0049 12.6416L12.9912 13.6191L8.77734 9.6582C7.92675 8.80761 6.44726 8.80859 5.59863 9.6582L3 12.2568V7C3 5.3457 4.3457 4 6 4H16C17.6543 4 19 5.3457 19 7V14.3636Z" fill="#292929"/>
<path d="M15.5 9C16.3284 9 17 8.32843 17 7.5C17 6.67157 16.3284 6 15.5 6C14.6716 6 14 6.67157 14 7.5C14 8.32843 14.6716 9 15.5 9Z" fill="#292929"/>
</svg>
