<svg width="22" height="22" viewBox="0 0 22 22" fill="none" xmlns="http://www.w3.org/2000/svg">
<path d="M15.5 9C16.3284 9 17 8.32843 17 7.5C17 6.67157 16.3284 6 15.5 6C14.6716 6 14 6.67157 14 7.5C14 8.32843 14.6716 9 15.5 9Z" fill="#292929"/>
<path fill-rule="evenodd" clip-rule="evenodd" d="M16 2H6C3.24316 2 1 4.24316 1 7V15C1 17.7568 3.24316 20 6 20H16C18.7568 20 21 17.7568 21 15V7C21 4.24316 18.7568 2 16 2ZM6 4H16C17.6543 4 19 5.3457 19 7V14.2852L17.1709 12.4561C16.293 11.5781 14.8682 11.5801 13.9922 12.4561L12.7832 13.665L8.77735 9.6582C7.92676 8.80761 6.44727 8.80957 5.59864 9.6582L3.00001 12.2568V7C3.00001 5.3457 4.3457 4 6 4ZM16 18H6C4.35059 18 3.00952 16.662 3.00146 15.0144C3.07202 14.9726 3.14648 14.9386 3.20703 14.8779L7.01269 11.0723C7.10937 10.9775 7.26464 10.9756 7.36328 11.0723L12.0762 15.7861C12.2637 15.9736 12.5176 16.0791 12.7832 16.0791C13.0488 16.0791 13.3027 15.9736 13.4902 15.7861L15.4062 13.8701C15.5029 13.7754 15.6582 13.7734 15.7568 13.8701L18.5137 16.627C17.9785 17.4512 17.0539 18 16 18Z" fill="#292929"/>
<path opacity="0.3" d="M11 4H7V8H11V4Z" fill="#292929"/>
<path opacity="0.3" fill-rule="evenodd" clip-rule="evenodd" d="M16 4H15V6.0918C15.1572 6.03589 15.3237 6 15.5 6C16.3284 6 17 6.67163 17 7.5C17 7.67627 16.9641 7.8429 16.9082 8H19V7C19 5.3457 17.6543 4 16 4Z" fill="#292929"/>
<path opacity="0.3" fill-rule="evenodd" clip-rule="evenodd" d="M17.1709 12.4561L19 14.2852V12H16.4985C16.7415 12.1086 16.9714 12.2566 17.1709 12.4561Z" fill="#292929"/>
<path opacity="0.3" fill-rule="evenodd" clip-rule="evenodd" d="M14.0918 8H11V11.8813L11.1187 12H14.6645C14.7739 11.9512 14.8857 11.915 15 11.8845V8.9082C14.5759 8.75732 14.2427 8.42407 14.0918 8Z" fill="#292929"/>
<path opacity="0.3" fill-rule="evenodd" clip-rule="evenodd" d="M3 12.2568L5.59863 9.65821C5.97705 9.27967 6.48217 9.07935 7 9.03821V8H3V12.2568Z" fill="#292929"/>
</svg>
