<svg width="22" height="22" viewBox="0 0 22 22" fill="none" xmlns="http://www.w3.org/2000/svg">
<path fill-rule="evenodd" clip-rule="evenodd" d="M16 1H6C3.24316 1 1 3.24316 1 6V16C1 18.7568 3.24316 21 6 21H16C18.7568 21 21 18.7568 21 16V6C21 3.24316 18.7568 1 16 1ZM19 16C19 17.6543 17.6543 19 16 19H6C4.3457 19 3 17.6543 3 16V6C3 4.3457 4.3457 3 6 3H16C17.6543 3 19 4.3457 19 6V16Z" fill="#292929"/>
<path d="M5 12C5.55228 12 6 11.5523 6 11C6 10.4477 5.55228 10 5 10C4.44772 10 4 10.4477 4 11C4 11.5523 4.44772 12 5 12Z" fill="#292929"/>
<path d="M8 12C8.55228 12 9 11.5523 9 11C9 10.4477 8.55228 10 8 10C7.44772 10 7 10.4477 7 11C7 11.5523 7.44772 12 8 12Z" fill="#292929"/>
<path d="M11 15C11.5523 15 12 14.5523 12 14C12 13.4477 11.5523 13 11 13C10.4477 13 10 13.4477 10 14C10 14.5523 10.4477 15 11 15Z" fill="#292929"/>
<path fill-rule="evenodd" clip-rule="evenodd" d="M16 5H12C11.4477 5 11 5.44727 11 6C11 6.55273 11.4477 7 12 7H13.5859L10.3927 10.1932C10.3754 10.2106 10.3695 10.2336 10.3538 10.252C10.1414 10.4353 10 10.6974 10 11C10 11.5523 10.4477 12 11 12C11.3026 12 11.5648 11.8586 11.7481 11.6462C11.7664 11.6305 11.7894 11.6246 11.8068 11.6073L15 8.41407V10C15 10.5527 15.4478 11 16 11C16.5522 11 17 10.5527 17 10V6C17 5.44727 16.5522 5 16 5Z" fill="#292929"/>
<path d="M11 18C11.5523 18 12 17.5523 12 17C12 16.4477 11.5523 16 11 16C10.4477 16 10 16.4477 10 17C10 17.5523 10.4477 18 11 18Z" fill="#292929"/>
</svg>
