<svg width="32" height="32" viewBox="0 0 32 32" fill="none" xmlns="http://www.w3.org/2000/svg">
<path d="M16.2016 29H16.1938C12.3146 28.974 9.33241 27.6948 7.32781 25.1988C5.54681 22.9758 4.62641 19.8844 4.59521 16.0104V15.9922C4.62641 12.1156 5.54681 9.0268 7.33041 6.8038C9.33241 4.3052 12.3172 3.026 16.1938 3H16.2016H16.2094C19.1838 3.0208 21.672 3.7852 23.6038 5.2724C25.4212 6.6712 26.7004 8.6628 27.405 11.1952L25.195 11.8114C23.999 7.5214 20.9726 5.3296 16.199 5.2958C13.0478 5.3192 10.6636 6.3098 9.11401 8.239C7.66581 10.046 6.91701 12.6564 6.88841 16C6.91701 19.3436 7.66581 21.954 9.11661 23.761C10.6662 25.6928 13.0504 26.6834 16.2016 26.7042C19.0434 26.6834 20.9232 26.0204 22.4858 24.489C24.2694 22.7418 24.2382 20.5968 23.6662 19.2916C23.3308 18.522 22.7198 17.8824 21.8956 17.3962C21.6876 18.86 21.2222 20.0456 20.5046 20.94C19.5452 22.1334 18.1854 22.786 16.4642 22.8796C15.1616 22.9498 13.9058 22.643 12.9334 22.0112C11.7816 21.265 11.1082 20.1262 11.0354 18.8002C10.9652 17.5106 11.4774 16.325 12.4758 15.4618C13.43 14.6376 14.7716 14.154 16.3576 14.063C17.525 13.998 18.6196 14.05 19.6284 14.2164C19.4932 13.413 19.2228 12.7734 18.8172 12.3132C18.2608 11.6788 17.4002 11.3564 16.2614 11.3486C16.251 11.3486 16.2406 11.3486 16.2302 11.3486C15.315 11.3486 14.0722 11.6008 13.2818 12.7786L11.3786 11.502C12.4394 9.9264 14.1606 9.058 16.2302 9.058C16.2458 9.058 16.2614 9.058 16.277 9.058C19.7376 9.0788 21.7994 11.1978 22.0048 14.895C22.1218 14.9444 22.2388 14.9964 22.3532 15.0484C23.9678 15.8076 25.1482 16.9568 25.7696 18.3738C26.6328 20.3472 26.7134 23.5634 24.0926 26.1296C22.088 28.09 19.657 28.9766 16.2094 29H16.2016ZM17.2884 16.3354C17.0258 16.3354 16.7606 16.3432 16.4876 16.3588C14.4986 16.4706 13.2584 17.3832 13.3286 18.6806C13.4014 20.0404 14.9016 20.6722 16.3446 20.5942C17.6706 20.524 19.397 20.0066 19.6882 16.5746C18.955 16.416 18.1516 16.3354 17.2884 16.3354Z" fill="#222222"/>
</svg>
