<svg width="22" height="22" viewBox="0 0 22 22" fill="none" xmlns="http://www.w3.org/2000/svg">
<path fill-rule="evenodd" clip-rule="evenodd" d="M20.3343 12.2822L20.2351 12.2405L20.8234 10.8694C21.1446 10.1218 21.0714 9.27247 20.6272 8.59827C20.2516 8.02808 19.6598 7.66431 19.0005 7.55127V6C19.0005 3.24316 16.7569 1 14 1H8.65697C7.85568 1 7.10224 1.3125 6.53582 1.87891L1.87795 6.53613C1.31202 7.10351 1 7.85742 1 8.65722V16C1 18.7568 3.24323 21 6.00014 21H13.4579C13.9172 21.6228 14.6328 22 15.4124 22C16.0989 22 16.7573 21.7029 17.2187 21.1847L21.3135 16.5879C21.7673 16.0771 22.0078 15.4187 21.9998 14.75C21.9975 14.5623 21.9757 14.3738 21.9335 14.1875C21.7405 13.3352 21.1427 12.6229 20.3343 12.2822ZM8.0002 3.25952V7C8.0002 7.55176 7.55146 8 7.00017 8H3.2591C3.27277 7.98438 7.98494 3.27295 8.0002 3.25952ZM12.0667 15.3092C12.259 16.1627 12.8568 16.8761 13.6658 17.2174C13.6658 17.2174 13.102 18.876 13.0707 19H6C4.34566 19 3 17.6543 3 16V9.99999H7.00017C8.65451 9.99999 10.0003 8.65429 10.0003 6.99999L10 2.99999H14C15.6543 2.99999 17.0005 4.34569 17.0005 5.99999V7.99999C17.0005 8.03515 12.688 12.9119 12.688 12.9119C12.1077 13.5625 11.8751 14.4591 12.0667 15.3092ZM19.8201 15.2576L15.7251 19.8546C15.6344 19.9564 15.5221 20 15.4125 20C15.1393 20 14.8826 19.7299 15.0162 19.4191L16.3974 16.1985L14.4433 15.3748C13.9877 15.1825 13.8542 14.609 14.1814 14.2422L18.2763 9.64539C18.3669 9.54358 18.4791 9.5 18.5888 9.5C18.8618 9.5 19.1188 9.77014 18.9853 10.0808L17.6035 13.3016L19.5575 14.1252C20.0137 14.3175 20.1461 14.8907 19.8201 15.2576Z" fill="#292929"/>
</svg>
