<svg width="21" height="22" viewBox="0 0 21 22" fill="none" xmlns="http://www.w3.org/2000/svg">
<path fill-rule="evenodd" clip-rule="evenodd" d="M17.1819 10C17.1819 10.5527 17.6088 11 18.1365 11C18.6641 11 19.091 10.5527 19.091 10V8.65723C19.091 7.85743 18.7936 7.10352 18.252 6.53516L13.8065 1.87793C13.2649 1.31152 12.5453 1 11.7818 1H6.68191C4.05038 1 1.90918 3.24316 1.90918 6V16C1.90918 18.7568 4.05038 21 6.68191 21H9.54554C10.0731 21 10.5001 20.5527 10.5001 20C10.5001 19.4473 10.0731 19 9.54554 19H6.68191C5.1028 19 3.81827 17.6543 3.81827 16V6C3.81827 4.3457 5.1028 3 6.68191 3H10.5001V7C10.5001 8.6543 11.7846 10 13.3637 10H17.1819ZM12.4092 7V3.25903C12.4241 3.2727 12.4436 3.27832 12.4577 3.29297L16.9013 7.94824C16.9156 7.96338 16.921 7.98413 16.9344 8H13.3637C12.837 8 12.4092 7.55176 12.4092 7Z" fill="#292929"/>
<path fill-rule="evenodd" clip-rule="evenodd" d="M20.0455 16H17.1819V13C17.1819 12.4473 16.7549 12 16.2273 12C15.6997 12 15.2728 12.4473 15.2728 13V16H12.4091C11.8815 16 11.4546 16.4473 11.4546 17C11.4546 17.5527 11.8815 18 12.4091 18H15.2728V21C15.2728 21.5527 15.6997 22 16.2273 22C16.7549 22 17.1819 21.5527 17.1819 21V18H20.0455C20.5731 18 21 17.5527 21 17C21 16.4473 20.5731 16 20.0455 16Z" fill="#292929"/>
</svg>
