<svg width="22" height="22" viewBox="0 0 22 22" fill="none" xmlns="http://www.w3.org/2000/svg">
<path fill-rule="evenodd" clip-rule="evenodd" d="M18.2549 6.67573C18.2827 5.21885 17.751 3.85346 16.6338 2.67768C15.6377 1.62788 13.9453 1.00866 12.4199 1.08784C10.0908 1.20873 8.17676 2.47456 7.32422 4.51069C7.15234 4.49311 6.97899 4.48566 6.81006 4.48335C5.45421 4.46479 4.13574 5.10347 3.25977 6.23042C2.51954 7.18452 2.19336 8.34956 2.30567 9.5898C1.00488 10.0898 0.12207 11.4277 0.12207 13.0839C0.12207 15.3183 1.45801 16.8915 3.5 16.9999H4.75C5.30273 16.9999 5.75 16.5527 5.75 15.9999C5.75 15.4472 5.30273 15.0004 4.75 15.0004H3.55371C2.22559 14.9291 2.12207 13.5156 2.12207 13.0839C2.12207 11.9628 2.79785 11.3769 3.46582 11.3769H4.78809L4.42774 10.1044C4.14454 9.10445 4.29102 8.16402 4.83985 7.45699C5.3086 6.8525 6.02163 6.49639 6.73243 6.48238C7.07931 6.47554 7.39356 6.52437 7.70997 6.6191L8.72364 6.92476L8.97071 5.89449C9.37208 4.21871 10.7194 3.18117 12.5166 3.08492C13.4407 3.03543 14.6006 3.44137 15.1836 4.05465C15.9297 4.84078 16.2735 5.67914 16.2559 6.58688C16.2539 6.68745 16.2451 6.93747 16.1709 7.47653L15.999 8.72067L17.25 8.60934C17.332 8.60348 17.4561 8.60543 17.6231 8.61227C18.9512 8.66891 19.8779 10.0371 19.8779 11.9404C19.8779 13.6884 18.9512 14.8261 17.4141 14.9824L17.1641 15.0039C16.6143 15.0507 16.2061 15.5351 16.2539 16.0859C16.2988 16.6064 16.7354 16.9999 17.249 16.9999C17.2773 16.9999 17.3067 16.999 17.3359 16.996L17.6006 16.9736C20.1592 16.7138 21.8779 14.6913 21.8779 11.9404C21.8779 9.18647 20.3838 7.06636 18.2549 6.67573Z" fill="#292929"/>
<path fill-rule="evenodd" clip-rule="evenodd" d="M11.707 9.29296C11.3164 8.90235 10.6836 8.90235 10.293 9.29296L6.79296 12.793C6.40235 13.1836 6.40235 13.8164 6.79296 14.207C7.18358 14.5976 7.81641 14.5976 8.20703 14.207L9.99999 12.4141V20C9.99999 20.5527 10.4473 21 11 21C11.5527 21 12 20.5527 12 20V12.4141L13.793 14.207C13.9883 14.4023 14.2441 14.5 14.5 14.5C14.7559 14.5 15.0117 14.4023 15.207 14.207C15.5976 13.8164 15.5976 13.1836 15.207 12.793L11.707 9.29296Z" fill="#292929"/>
</svg>
