<svg width="22" height="22" viewBox="0 0 22 22" fill="none" xmlns="http://www.w3.org/2000/svg">
<g clip-path="url(#clip0_55_43696)">
<path fill-rule="evenodd" clip-rule="evenodd" d="M15.22 3H10.25C9.49 3 8.74 3.31 8.2 3.85L3.84 8.24C3.3 8.78 3 9.51 3 10.28V17.22C3 19.85 5.14 22 7.78 22H13C13.55 22 14 21.55 14 21C14 20.45 13.55 20 13 20H7.78C6.25 20 5 18.75 5 17.22V12H9C10.65 12 12 10.65 12 9V5H15.22C16.75 5 18 6.25 18 7.78V8C18 8.55 18.45 9 19 9C19.55 9 20 8.55 20 8V7.78C20 5.15 17.86 3 15.22 3ZM9 10H5.06C5.1 9.87 5.17 9.75 5.26 9.66L9.62 5.27C9.73 5.16 9.86 5.1 10 5.06V9.01C10 9.56 9.55 10.01 9 10.01V10ZM19.29 11.5C19.52 11.5 19.74 11.73 19.63 12L18.45 14.76L20.12 15.47C20.51 15.63 20.62 16.13 20.35 16.44L16.84 20.38C16.76 20.47 16.67 20.5 16.57 20.5C16.34 20.5 16.12 20.27 16.23 20L17.41 17.24L15.74 16.53C15.35 16.37 15.24 15.87 15.52 15.56L19.03 11.62C19.11 11.53 19.2 11.5 19.3 11.5M19.3 10C18.77 10 18.27 10.23 17.91 10.63L14.4 14.57C13.95 15.08 13.77 15.77 13.92 16.44C14.07 17.1 14.53 17.66 15.16 17.93L15.44 18.05L14.85 19.42C14.6 19.99 14.66 20.65 15 21.16C15.35 21.69 15.93 22 16.57 22C17.1 22 17.6 21.77 17.96 21.37L21.47 17.43C21.92 16.92 22.1 16.22 21.95 15.56C21.8 14.9 21.33 14.34 20.7 14.08L20.42 13.96L21.01 12.59C21.26 12.02 21.2 11.36 20.86 10.85C20.51 10.32 19.93 10 19.29 10H19.3ZM1 16C0.45 16 0 15.55 0 15V7.66C0 6.86 0.31 6.11 0.88 5.54L5.54 0.88C6.11 0.31 6.86 0 7.66 0H13C13.55 0 14 0.45 14 1C14 1.55 13.55 2 13 2H7.66C7.39 2 7.14 2.1 6.95 2.29L2.29 6.95C2.1 7.14 2 7.39 2 7.66V15C2 15.55 1.55 16 1 16Z" fill="#292929"/>
</g>
<defs>
<clipPath id="clip0_55_43696">
<rect width="22" height="22" fill="white"/>
</clipPath>
</defs>
</svg>
