<svg width="22" height="22" viewBox="0 0 22 22" fill="none" xmlns="http://www.w3.org/2000/svg">
<g clip-path="url(#clip0_55_43576)">
<path fill-rule="evenodd" clip-rule="evenodd" d="M7.0625 17H5C2.24316 17 0 14.7568 0 12V5C0 2.24316 2.24316 0 5 0H12C14.7568 0 17 2.24316 17 5V9C17 9.55273 16.5527 10 16 10C15.4473 10 15 9.55273 15 9V5C15 3.3457 13.6543 2 12 2H5C3.3457 2 2 3.3457 2 5V12C2 13.6543 3.3457 15 5 15H7.0625C7.61523 15 8.0625 15.4473 8.0625 16C8.0625 16.5527 7.61523 17 7.0625 17Z" fill="#292929"/>
<path fill-rule="evenodd" clip-rule="evenodd" d="M6 11.1128V5.99338C6 5.21385 6.85235 4.73407 7.51877 5.13847L11.7371 7.69819C12.3787 8.08754 12.3787 9.01866 11.7371 9.40801L7.51877 11.9677C6.85234 12.3721 6 11.8923 6 11.1128Z" fill="#292929"/>
<path fill-rule="evenodd" clip-rule="evenodd" d="M19.5002 17.125C19.015 17.125 18.5642 17.2725 18.1877 17.5234C18.187 17.5229 18.1865 17.522 18.1858 17.5215L16.6366 16.5723L18.2534 15.5122C18.6169 15.7383 19.0417 15.875 19.5002 15.875C20.8098 15.875 21.8752 14.8096 21.8752 13.5C21.8752 12.1904 20.8098 11.125 19.5002 11.125C18.1907 11.125 17.1252 12.1904 17.1252 13.5C17.1252 13.6162 17.1433 13.7275 17.1595 13.8394L14.7522 15.417L9.77269 12.3652C9.30003 12.0772 8.68578 12.2256 8.39769 12.6953C8.10863 13.166 8.25707 13.7822 8.72777 14.0703L12.9028 16.6289L8.70238 19.3818C8.24047 19.6846 8.11156 20.3037 8.41429 20.7656C8.6057 21.0586 8.92503 21.2178 9.2512 21.2178C9.4387 21.2178 9.62913 21.1651 9.79808 21.0537L14.7872 17.7842L17.1409 19.2266C17.1445 19.229 17.1487 19.2295 17.1523 19.2314C17.1422 19.3208 17.1252 19.4082 17.1252 19.5C17.1252 20.8096 18.1907 21.875 19.5002 21.875C20.8098 21.875 21.8752 20.8096 21.8752 19.5C21.8752 18.1904 20.8098 17.125 19.5002 17.125ZM19.5002 12.625C19.9826 12.625 20.3752 13.0176 20.3752 13.5C20.3752 13.9824 19.9826 14.375 19.5002 14.375C19.0178 14.375 18.6252 13.9824 18.6252 13.5C18.6252 13.0176 19.0178 12.625 19.5002 12.625ZM19.5002 20.375C19.0178 20.375 18.6252 19.9824 18.6252 19.5C18.6252 19.0176 19.0178 18.625 19.5002 18.625C19.9826 18.625 20.3752 19.0176 20.3752 19.5C20.3752 19.9824 19.9826 20.375 19.5002 20.375Z" fill="#292929"/>
</g>
<defs>
<clipPath id="clip0_55_43576">
<rect width="22" height="22" fill="white"/>
</clipPath>
</defs>
</svg>
