<svg width="22" height="22" viewBox="0 0 22 22" fill="none" xmlns="http://www.w3.org/2000/svg">
<path fill-rule="evenodd" clip-rule="evenodd" d="M16 1H6C3.24316 1 1 3.24316 1 6V16C1 18.7568 3.24316 21 6 21H16C18.7568 21 21 18.7568 21 16V6C21 3.24316 18.7568 1 16 1ZM19 16C19 17.6543 17.6543 19 16 19H6C4.3457 19 3 17.6543 3 16V6C3 4.3457 4.3457 3 6 3H16C17.6543 3 19 4.3457 19 6V16Z" fill="#292929"/>
<path fill-rule="evenodd" clip-rule="evenodd" d="M14.4745 10.0743L9.71069 7.16771C8.966 6.71324 8 7.23595 8 8.09325V13.9067C8 14.764 8.966 15.2867 9.71069 14.8323L14.4745 11.9256C15.1752 11.498 15.1752 10.5019 14.4745 10.0743Z" fill="#292929"/>
</svg>
