<svg width="18" height="18" viewBox="0 0 18 18" fill="none" xmlns="http://www.w3.org/2000/svg">
<g clip-path="url(#clip0_759_35417)">
<path fill-rule="evenodd" clip-rule="evenodd" d="M8.91895 18.0004C6.45997 17.9819 4.24219 17.1361 2.60352 15.6195C0.92481 14.0658 0 11.9848 0 9.76016C0 7.53653 0.9248 5.45645 2.60449 3.90274C3.63379 2.94669 4.8916 2.21426 6.23926 1.78653C6.83692 1.59805 7.44727 1.46817 8.05469 1.39981C8.60254 1.34415 9.09766 1.73477 9.15918 2.2836C9.21973 2.83243 8.82422 3.32657 8.27539 3.38809C7.79785 3.44082 7.31543 3.54336 6.84375 3.69278C5.77637 4.03165 4.78027 4.61173 3.96387 5.36954C2.69727 6.54142 2 8.10099 2 9.76114C2 11.4213 2.69727 12.9809 3.96289 14.1527C5.21582 15.3119 7.00293 15.9857 8.86523 16.0004C10.751 16.0004 12.4805 15.3695 13.6621 14.2689C13.7324 14.2035 13.71 13.9643 13.6465 13.892C13.6143 13.8803 13.416 13.8451 13.2969 13.8246C12.6768 13.7162 12.3399 13.5561 11.9434 13.185C11.4873 12.7602 11.2353 12.2025 11.2353 11.6176C11.2363 11.0316 11.4883 10.475 11.9463 10.0502L13.0508 9.02287C13.4541 8.64885 14.0859 8.66935 14.4639 9.07463C14.8399 9.47893 14.8174 10.1117 14.4121 10.4877L13.3076 11.5151C13.249 11.5697 13.2363 11.6088 13.2353 11.6186C13.2353 11.6274 13.249 11.6674 13.3086 11.7221C13.373 11.7826 13.4775 11.8256 13.6221 11.851C14.0156 11.9194 14.585 12.019 15.042 12.4594C15.4688 12.8764 15.7148 13.5053 15.706 14.1459C15.6973 14.7719 15.4541 15.3364 15.0225 15.7348C13.4766 17.1733 11.251 18.0004 8.91895 18.0004Z" fill="#292929"/>
<path d="M5.12207 8.88086C5.81243 8.88086 6.37207 8.32122 6.37207 7.63086C6.37207 6.9405 5.81243 6.38086 5.12207 6.38086C4.43171 6.38086 3.87207 6.9405 3.87207 7.63086C3.87207 8.32122 4.43171 8.88086 5.12207 8.88086Z" fill="#292929"/>
<path d="M5.12207 13.2119C5.81243 13.2119 6.37207 12.6523 6.37207 11.9619C6.37207 11.2716 5.81243 10.7119 5.12207 10.7119C4.43171 10.7119 3.87207 11.2716 3.87207 11.9619C3.87207 12.6523 4.43171 13.2119 5.12207 13.2119Z" fill="#292929"/>
<path d="M8.78711 15.0439C9.47747 15.0439 10.0371 14.4843 10.0371 13.7939C10.0371 13.1036 9.47747 12.5439 8.78711 12.5439C8.09675 12.5439 7.53711 13.1036 7.53711 13.7939C7.53711 14.4843 8.09675 15.0439 8.78711 15.0439Z" fill="#292929"/>
<path fill-rule="evenodd" clip-rule="evenodd" d="M11.4678 7.80429C11.4891 7.75247 11.4977 7.69951 11.4984 7.64636C11.4984 7.64381 11.4999 7.64157 11.4998 7.63902C11.4998 7.63561 11.4978 7.63266 11.4977 7.62929C11.4962 7.57582 11.4852 7.52408 11.4639 7.47453C11.4628 7.47198 11.4622 7.46935 11.4611 7.46684C11.4374 7.41463 11.4069 7.36485 11.362 7.32295L10.4693 6.49091L10.5271 5.69155L10.5558 5.29562C10.5604 5.23411 10.548 5.17617 10.5286 5.12094C10.5253 5.11188 10.5215 5.1038 10.5177 5.09497C10.4741 4.99321 10.3961 4.90707 10.2855 4.8594C10.2838 4.85865 10.282 4.85873 10.2803 4.85803C10.2579 4.84744 10.2362 4.84638 10.213 4.84022C10.176 4.83077 10.1394 4.82527 10.1021 4.82488C10.0985 4.82539 10.0948 4.82268 10.0912 4.82335C10.0873 4.82343 10.0839 4.82551 10.0799 4.82566C10.0273 4.82758 9.97643 4.83782 9.92752 4.85712C9.92183 4.85932 9.91607 4.86065 9.91046 4.86304C9.85892 4.88575 9.80985 4.91478 9.76818 4.95636L8.90645 5.81876L7.66844 5.73434C7.59866 5.7294 7.53343 5.74403 7.47206 5.76682C7.47223 5.76674 7.4719 5.7669 7.47206 5.76682C7.36158 5.80797 7.26783 5.88604 7.2171 5.9967C7.21393 6.0036 7.21389 6.01094 7.21109 6.01792C7.21085 6.01847 7.21081 6.01914 7.2106 6.01969C7.19009 6.07135 7.18176 6.12408 7.18164 6.17704C7.1816 6.18347 7.18213 6.18959 7.18241 6.19603C7.18448 6.24408 7.19443 6.29045 7.21259 6.33537C7.2158 6.34361 7.21799 6.35169 7.22169 6.35977C7.24411 6.40669 7.27303 6.4509 7.31275 6.4893C7.31535 6.49189 7.31616 6.49538 7.31884 6.49793L8.21023 7.33122L8.16393 7.96684L8.12274 8.52902C8.12242 8.53392 8.12518 8.5384 8.12501 8.54326C8.12363 8.59579 8.13269 8.64561 8.14889 8.69331C8.15417 8.70892 8.16079 8.72301 8.16786 8.73803C8.18691 8.7784 8.21177 8.81484 8.2426 8.84791C8.24995 8.85595 8.25251 8.86666 8.26051 8.87423C8.26364 8.87717 8.26786 8.878 8.27103 8.88082C8.3071 8.91256 8.34816 8.93978 8.39499 8.95987C8.39596 8.96026 8.39698 8.96011 8.39796 8.9605C8.45633 8.98506 8.51794 8.99977 8.58058 8.99977C8.70048 8.99977 8.82006 8.95521 8.91072 8.86545L9.7731 8.00682L11.0147 8.08716C11.0363 8.08955 11.0565 8.07967 11.078 8.07837C11.1075 8.07594 11.1367 8.07402 11.1649 8.06637C11.1936 8.05825 11.2192 8.04821 11.2459 8.03448C11.2799 8.01824 11.3103 7.99741 11.3394 7.97352C11.3482 7.96599 11.36 7.96285 11.3682 7.95473C11.3708 7.95222 11.3716 7.94873 11.374 7.94618C11.4097 7.9104 11.4408 7.8698 11.4627 7.82226C11.4645 7.81853 11.4644 7.81453 11.466 7.81077C11.4669 7.80865 11.467 7.80641 11.4678 7.80429Z" fill="#292929"/>
<path fill-rule="evenodd" clip-rule="evenodd" d="M13.2794 7.00253C13.045 7.00253 12.8106 6.91659 12.629 6.74472C12.423 6.55234 12.3146 6.27402 12.3399 5.98593L12.463 4.25644L11.1798 3.04257C10.9962 2.86777 10.8898 2.6246 10.8868 2.37362C10.8829 2.12264 10.9835 1.87655 11.1612 1.69882C11.3478 1.50741 11.6095 1.40097 11.8946 1.42343L13.6886 1.54648L14.9337 0.280856C15.2941 -0.0843738 15.8878 -0.0902339 16.2579 0.259376C16.462 0.453716 16.5675 0.725196 16.548 1.00547L16.4239 2.74668L17.7071 3.96152C17.8937 4.14121 17.9962 4.37754 18.0001 4.63047C18.003 4.8834 17.9073 5.12168 17.7296 5.30137C17.5441 5.49278 17.2784 5.59336 17.005 5.58164L15.1993 5.45664L13.9532 6.72226C13.7697 6.90878 13.5245 7.00253 13.2794 7.00253ZM13.836 6.08847L13.8351 6.10312C13.836 6.09824 13.836 6.09335 13.836 6.08847ZM13.3448 3.02597L13.6866 3.34921C13.8917 3.54452 13.9972 3.81601 13.9776 4.09628L13.9425 4.5953L14.3097 4.22225C14.5069 4.02498 14.7804 3.92342 15.048 3.94295L15.5411 3.97713L15.1993 3.65389C14.9942 3.45858 14.8888 3.18709 14.9083 2.90682L14.9435 2.40975L14.5772 2.78182C14.3751 2.98397 14.0987 3.08358 13.8253 3.05916L13.3448 3.02597ZM13.9239 1.56308L13.9415 1.56406C13.9356 1.56308 13.9298 1.56308 13.9239 1.56308Z" fill="#292929"/>
</g>
<defs>
<clipPath id="clip0_759_35417">
<rect width="18" height="18" fill="white"/>
</clipPath>
</defs>
</svg>
