<svg width="18" height="18" viewBox="0 0 18 18" fill="none" xmlns="http://www.w3.org/2000/svg">
<path fill-rule="evenodd" clip-rule="evenodd" d="M8.295 13.7127L7.22908 12.6825L7.3326 11.203C7.34676 11.0096 7.27449 10.8211 7.13485 10.6854C6.87557 10.4335 6.46053 10.4403 6.2076 10.702L5.17977 11.7694L3.69735 11.6649C3.5035 11.6542 3.31551 11.7245 3.18417 11.8631C3.06259 11.9881 2.99716 12.1542 3.00009 12.329C3.00253 12.5038 3.07333 12.6668 3.19931 12.7889L4.26523 13.8211L4.16025 15.3026C4.14804 15.4901 4.21787 15.6756 4.35507 15.8124C4.48202 15.9374 4.64755 15.9999 4.81405 15.9999C4.98446 15.9999 5.15536 15.9344 5.28573 15.8016L6.316 14.7381L7.79549 14.8378C7.98641 14.8563 8.17684 14.7782 8.30428 14.6444C8.42782 14.5194 8.4952 14.3534 8.49373 14.1776C8.49226 14.0018 8.42244 13.8368 8.295 13.7127Z" fill="#222222"/>
<path fill-rule="evenodd" clip-rule="evenodd" d="M10.4503 10.4336C10.1319 10.4336 9.83114 10.3125 9.60165 10.0899C9.34091 9.83989 9.20517 9.4854 9.23251 9.12114L9.37118 7.1436L7.94149 5.76274C7.70516 5.53422 7.57235 5.22758 7.56747 4.90044C7.56356 4.57329 7.68661 4.26372 7.9161 4.02935C8.16122 3.77349 8.51962 3.62798 8.87899 3.66509L10.8585 3.80376L12.2374 2.3731C12.711 1.8897 13.4835 1.87701 13.9669 2.3438C14.2247 2.59673 14.3585 2.94243 14.337 3.29692C14.337 3.30083 14.337 3.30376 14.336 3.30766L14.1974 5.29008L15.627 6.67094C16.1124 7.13969 16.1251 7.91508 15.6563 8.39946C15.4063 8.6602 15.0401 8.79594 14.6886 8.7686L12.7101 8.62993L11.3302 10.0596C11.1075 10.293 10.8019 10.4268 10.4747 10.4336H10.4503ZM10.8683 5.80864L11.0206 5.9561C11.2843 6.21489 11.4181 6.56548 11.3907 6.92485L11.3761 7.1309L11.5225 6.97953C11.7765 6.71976 12.1222 6.57621 12.4776 6.60844L12.6983 6.62406L12.547 6.47758C12.2852 6.2266 12.1495 5.87309 12.1768 5.50883L12.1915 5.30278L12.045 5.45415C11.7862 5.71782 11.4239 5.85161 11.0753 5.82329L10.8683 5.80864Z" fill="#222222"/>
</svg>
