<svg width="18" height="18" viewBox="0 0 18 18" fill="none" xmlns="http://www.w3.org/2000/svg">
<g clip-path="url(#clip0_756_32263)">
<path fill-rule="evenodd" clip-rule="evenodd" d="M15.5518 8.52051L14.7935 9.30664C14.2075 9.91309 13.4238 10.2529 12.584 10.2666H12.5337C11.7134 10.2666 10.9375 9.95117 10.3477 9.37988C9.68067 8.73828 9.33448 7.83008 9.4043 6.89453L9.47998 5.81641L8.69287 5.05762C8.08838 4.47266 7.74853 3.68946 7.73535 2.84961C7.73059 2.55713 7.77936 2.2749 7.85174 2H5.00549C2.21771 2.15967 0 4.46973 0 7.29736V13C0 15.7615 2.23859 18 5 18H11C13.7614 18 16 15.7615 16 13V8.55176L15.5518 8.52051ZM9.05713 12.7207C8.92969 12.8535 8.73926 12.9326 8.54834 12.9141L7.06885 12.8145L6.03858 13.8779C5.90821 14.0108 5.73731 14.0762 5.5669 14.0762C5.4004 14.0762 5.23487 14.0137 5.10792 13.8887C4.97071 13.752 4.90089 13.5664 4.9131 13.3789L5.01808 11.8975L3.95216 10.8652C3.82618 10.7432 3.75538 10.5801 3.75294 10.4053C3.75001 10.2305 3.81544 10.0645 3.93702 9.93945C4.06837 9.80175 4.25636 9.72363 4.4502 9.74121L5.93262 9.8457L6.96045 8.77832C7.21338 8.51758 7.62842 8.50977 7.8877 8.76172C8.02735 8.89746 8.09961 9.08594 8.08545 9.2793L7.98193 10.7588L9.04785 11.7891C9.17529 11.9131 9.24512 12.0781 9.24658 12.2539C9.24804 12.4297 9.18066 12.5957 9.05713 12.7207Z" fill="#5258E4"/>
<path fill-rule="evenodd" clip-rule="evenodd" d="M17.653 4.64877L16.194 3.23959L16.3361 1.21908C16.36 0.885103 16.2365 0.558923 15.9904 0.317713C15.5392 -0.114907 14.8171 -0.101237 14.3815 0.347983L12.9748 1.80696L10.943 1.66341C10.611 1.64095 10.2873 1.76888 10.0568 2.00716C9.84488 2.22493 9.73013 2.51302 9.73501 2.81771C9.73989 3.1224 9.86294 3.40658 10.0822 3.61849L11.5402 5.02572L11.3991 7.04427C11.3737 7.38411 11.5002 7.71322 11.7409 7.94466C11.9552 8.15267 12.236 8.26693 12.5339 8.26693H12.5519C12.8566 8.26205 13.1413 8.139 13.3537 7.91927L14.7599 6.46029L16.7922 6.60384C17.1193 6.61458 17.4479 6.49837 17.6784 6.26009C17.8903 6.04232 18.0051 5.75423 18.0002 5.44954C17.9953 5.14485 17.8722 4.86068 17.653 4.64877Z" fill="#5258E4"/>
</g>
<defs>
<clipPath id="clip0_756_32263">
<rect width="18" height="18" fill="white"/>
</clipPath>
</defs>
</svg>
