<svg width="18" height="18" viewBox="0 0 18 18" fill="none" xmlns="http://www.w3.org/2000/svg">
<path fill-rule="evenodd" clip-rule="evenodd" d="M15.5694 6.73124L14.1114 5.32304L14.253 3.30156C14.253 3.29863 14.254 3.29472 14.254 3.29179C14.2735 2.96171 14.1495 2.63945 13.9083 2.40312C13.4581 1.96855 12.7374 1.98027 12.297 2.43144L10.8917 3.88945L8.87314 3.74785C8.54013 3.72637 8.20419 3.84941 7.97568 4.08769C7.76279 4.30546 7.64756 4.59355 7.65146 4.89921C7.65537 5.2039 7.77939 5.48905 7.99912 5.70194L9.45713 7.11014L9.31553 9.12674C9.29014 9.46658 9.41709 9.79666 9.66026 10.0301C9.87413 10.2371 10.1534 10.3494 10.4503 10.3494H10.4737C10.7784 10.3435 11.0626 10.2185 11.2696 10.0017L12.6769 8.54373L14.6945 8.68533C15.0284 8.70193 15.3624 8.58377 15.5968 8.3406C16.0333 7.88943 16.0206 7.16777 15.5694 6.73124Z" fill="#5258E4"/>
<path fill-rule="evenodd" clip-rule="evenodd" d="M7.22908 12.6825L7.3326 11.203C7.34676 11.0096 7.27449 10.8211 7.13485 10.6854C6.87557 10.4335 6.46053 10.4403 6.2076 10.702L5.17977 11.7694L3.69735 11.6649C3.5035 11.6542 3.31551 11.7245 3.18417 11.8631C3.06259 11.9881 2.99716 12.1542 3.00009 12.329C3.00253 12.5038 3.07333 12.6668 3.19931 12.7889L4.26523 13.8211L4.16025 15.3026C4.14804 15.4901 4.21787 15.6756 4.35507 15.8124C4.48202 15.9374 4.64755 15.9999 4.81405 15.9999C4.98446 15.9999 5.15536 15.9344 5.28573 15.8016L6.316 14.7381L7.79549 14.8378C7.98641 14.8563 8.17684 14.7782 8.30428 14.6444C8.42782 14.5194 8.4952 14.3534 8.49373 14.1776C8.49226 14.0018 8.42244 13.8368 8.295 13.7128L7.22908 12.6825Z" fill="#5258E4"/>
</svg>
