<svg width="18" height="18" viewBox="0 0 18 18" fill="none" xmlns="http://www.w3.org/2000/svg">
<g clip-path="url(#clip0_756_32226)">
<path fill-rule="evenodd" clip-rule="evenodd" d="M9.54793 11.2889L8.48201 10.2586L8.58553 8.77915C8.59969 8.58579 8.52742 8.39731 8.38778 8.26157C8.1285 8.00962 7.71346 8.01646 7.46053 8.27818L6.4327 9.34556L4.95028 9.24106C4.75692 9.22446 4.56844 9.30162 4.4371 9.43931C4.31552 9.56431 4.25009 9.73032 4.25302 9.90512C4.25546 10.0799 4.32626 10.243 4.45224 10.3651L5.51816 11.3973L5.41318 12.8788C5.40097 13.0663 5.4708 13.2518 5.608 13.3885C5.73495 13.5135 5.90048 13.576 6.06698 13.576C6.23739 13.576 6.40829 13.5106 6.53866 13.3778L7.56893 12.3143L9.04842 12.4139C9.24178 12.4315 9.42977 12.3534 9.55721 12.2206C9.68075 12.0956 9.74813 11.9295 9.74666 11.7538C9.74519 11.578 9.67537 11.4129 9.54793 11.2889Z" fill="#292929"/>
<path fill-rule="evenodd" clip-rule="evenodd" d="M10.6919 18H5.30811C2.38135 18 0 15.6191 0 12.6924V7.30761C1e-05 4.38086 2.38136 2 5.30812 2H6.98781C7.54006 2 7.98781 2.44727 7.98781 3C7.98781 3.55273 7.54006 4 6.98781 4H5.30812C3.4839 4 2.00001 5.4834 2.00001 7.30762V12.6924C2.00001 14.5166 3.4839 16 5.30812 16H10.6919C12.5161 16 14 14.5166 14 12.6924V10.5C14 9.94728 14.4478 9.50001 15 9.50001C15.5523 9.50001 16 9.94728 16 10.5V12.6924C16 15.6192 13.6187 18 10.6919 18Z" fill="#292929"/>
<path fill-rule="evenodd" clip-rule="evenodd" d="M12.4499 8.43258C12.13 8.43258 11.8288 8.31051 11.5988 8.08688C11.3405 7.83883 11.2047 7.48532 11.2321 7.12106L11.3703 5.14157L9.94057 3.76169C9.70473 3.53415 9.57289 3.22849 9.56752 2.90134C9.56264 2.57517 9.6852 2.2656 9.91322 2.03122C10.1608 1.77634 10.507 1.63669 10.8639 1.66306L12.8576 1.80271L14.2374 0.37302C14.7057 -0.11136 15.4791 -0.126 15.964 0.34079C16.2282 0.5986 16.361 0.94919 16.3356 1.30759L16.1959 3.28904L17.6271 4.67088C17.8624 4.89842 17.9943 5.20408 17.9996 5.53123C18.0045 5.8574 17.882 6.16697 17.6539 6.40135C17.4069 6.65623 17.067 6.80565 16.7033 6.76951L14.7091 6.62986L13.3297 8.05955C13.1017 8.2949 12.7965 8.42771 12.4694 8.4326L12.4499 8.43258ZM12.8693 3.80856L13.0207 3.95504C13.2819 4.2109 13.4152 4.55953 13.3908 4.91793L13.3761 5.13082L13.5226 4.97848C13.7765 4.71676 14.133 4.57223 14.4914 4.60934L14.6989 4.62399L14.546 4.47653C14.2882 4.23141 14.151 3.87887 14.1754 3.51462L14.1901 3.30271L14.0451 3.4531C13.7946 3.71384 13.4411 3.86619 13.0753 3.82322L12.8693 3.80856Z" fill="#292929"/>
</g>
<defs>
<clipPath id="clip0_756_32226">
<rect width="18" height="18" fill="white"/>
</clipPath>
</defs>
</svg>
