<svg width="18" height="18" viewBox="0 0 18 18" fill="none" xmlns="http://www.w3.org/2000/svg">
<path fill-rule="evenodd" clip-rule="evenodd" d="M8.9834 18C13.4255 18 17 14.4233 17 10.0113V3.00177C17 1.34393 15.6569 0 14 0H4C2.34314 0 1 1.34393 1 3.00177V10.0118C1 14.4236 4.57428 18 8.9834 18ZM6 5C6 4.44769 6.44769 4 7 4H8.84705C10.1537 4 11.3506 4.9339 11.4861 6.23352C11.5262 6.61792 11.4783 6.98865 11.3599 7.32617C12.4843 7.90075 13.2009 9.16315 12.9499 10.5551C12.6892 12.0007 11.3411 13 9.87226 13H7.00001C6.4477 13 6.00001 12.5523 6.00001 12L6 5Z" fill="#5258E4"/>
<path fill-rule="evenodd" clip-rule="evenodd" d="M11 10C11 9.44824 10.5513 9 10 9H8V11H10C10.5513 11 11 10.5518 11 10Z" fill="#5258E4"/>
<path fill-rule="evenodd" clip-rule="evenodd" d="M9.5 6.5C9.5 6.22461 9.27588 6 9 6H8V7H9C9.27588 7 9.5 6.77539 9.5 6.5Z" fill="#5258E4"/>
</svg>
