<svg width="18" height="18" viewBox="0 0 18 18" fill="none" xmlns="http://www.w3.org/2000/svg">
<path fill-rule="evenodd" clip-rule="evenodd" d="M7 13H10C11.6543 13 13 11.6543 13 10C13 8.83496 12.3325 7.82324 11.3599 7.32617C11.4507 7.06738 11.5 6.78906 11.5 6.5C11.5 5.12109 10.3784 4 9 4H7C6.44775 4 6 4.44727 6 5V12C6 12.5527 6.44775 13 7 13ZM8 6H9C9.27588 6 9.5 6.22461 9.5 6.5C9.5 6.77539 9.27588 7 9 7H8V6ZM8 9H10C10.5513 9 11 9.44824 11 10C11 10.5518 10.5513 11 10 11H8V9Z" fill="#292929"/>
<path fill-rule="evenodd" clip-rule="evenodd" d="M8.98389 18C13.4185 18 17 14.4168 17 10.0118V3.00177C17 1.34649 15.6543 0 14 0H4C2.3457 0 1 1.34649 1 3.00177V10.0118C1 14.4168 4.58154 18 8.98389 18ZM3 3.00073C3 2.44854 3.44873 2 4 2H14C14.5513 2 15 2.44855 15 3.00073V10.012C15 13.3133 12.3154 16 9.01611 16C5.68457 16 3 13.3133 3 10.012V3.00073Z" fill="#292929"/>
</svg>
