<svg width="18" height="18" viewBox="0 0 18 18" fill="none" xmlns="http://www.w3.org/2000/svg">
<g clip-path="url(#clip0_756_32224)">
<path fill-rule="evenodd" clip-rule="evenodd" d="M15 4H14V3C14 1.3457 12.6543 0 11 0H7C5.3457 0 4 1.3457 4 3V4H3C1.3457 4 0 5.3457 0 7V15C0 16.6543 1.3457 18 3 18H15C16.6543 18 18 16.6543 18 15V7C18 5.3457 16.6543 4 15 4ZM6 3C6 2.44824 6.44824 2 7 2H11C11.5518 2 12 2.44824 12 3V4H6V3ZM3 6H15C15.5518 6 16 6.44824 16 7V9H10V8C10 7.44727 9.55273 7 9 7C8.44727 7 8 7.44727 8 8V9H2V7C2 6.44824 2.44824 6 3 6ZM15 16H3C2.44824 16 2 15.5518 2 15V11H8V12C8 12.5527 8.44727 13 9 13C9.55273 13 10 12.5527 10 12V11H16V15C16 15.5518 15.5518 16 15 16Z" fill="#292929"/>
</g>
<defs>
<clipPath id="clip0_756_32224">
<rect width="18" height="18" fill="white"/>
</clipPath>
</defs>
</svg>
