<svg width="18" height="18" viewBox="0 0 18 18" fill="none" xmlns="http://www.w3.org/2000/svg">
<g clip-path="url(#clip0_756_32261)">
<path fill-rule="evenodd" clip-rule="evenodd" d="M8 9.25V8C8 7.44727 8.44727 7 9 7C9.55273 7 10 7.44727 10 8V9.25H18V7C18 5.3457 16.6543 4 15 4H14V3C14 1.3457 12.6543 0 11 0H7C5.3457 0 4 1.3457 4 3V4H3C1.3457 4 0 5.3457 0 7V9.25H8ZM6 3C6 2.44824 6.44824 2 7 2H11C11.5518 2 12 2.44824 12 3V4H6V3ZM18 10.75V15C18 16.6543 16.6543 18 15 18H3C1.3457 18 0 16.6543 0 15V10.75H8V12C8 12.5527 8.44727 13 9 13C9.55273 13 10 12.5527 10 12V10.75H18Z" fill="#5258E4"/>
</g>
<defs>
<clipPath id="clip0_756_32261">
<rect width="18" height="18" fill="white"/>
</clipPath>
</defs>
</svg>
