<svg width="18" height="18" viewBox="0 0 18 18" fill="none" xmlns="http://www.w3.org/2000/svg">
<path fill-rule="evenodd" clip-rule="evenodd" d="M7.25795 7.66797L7.14209 8.09983L7.58913 8.123C7.83163 8.13538 8.04416 8.28999 8.13086 8.51651L8.29026 8.93439L8.66539 8.69029C8.76727 8.62397 8.88352 8.59081 9.00018 8.59081C9.11683 8.59081 9.23309 8.62397 9.33496 8.69029L9.71009 8.93439L9.8695 8.5169C9.95619 8.29039 10.1687 8.13578 10.4112 8.1234L10.8587 8.10022L10.7424 7.66796C10.6797 7.43385 10.7608 7.18456 10.9494 7.03195L11.2977 6.74991L10.9494 6.46786C10.7608 6.31525 10.6797 6.06596 10.7424 5.83185L10.8583 5.39999L10.4112 5.37682C10.1687 5.36443 9.95619 5.20983 9.8695 4.98331L9.71009 4.56543L9.33496 4.80953C9.13121 4.94216 8.86914 4.94216 8.66539 4.80953L8.29026 4.56543L8.13086 4.98291C8.04417 5.20943 7.83163 5.36404 7.58913 5.37642L7.14169 5.39959L7.25795 5.83185C7.32067 6.06596 7.23957 6.31525 7.051 6.46786L6.70264 6.74991L7.051 7.03196C7.23957 7.18457 7.32067 7.43386 7.25795 7.66797Z" fill="#5258E4"/>
<path fill-rule="evenodd" clip-rule="evenodd" d="M5.11341 17.182H12.8861C15.0291 17.182 16.7725 15.4386 16.7725 13.2956V4.70472C16.7725 2.56179 15.0291 0.818359 12.8861 0.818359H5.11341C2.97048 0.818359 1.22705 2.56179 1.22705 4.70472V13.2956C1.22705 15.4386 2.97048 17.182 5.11341 17.182ZM5.34113 6.27317L5.96875 5.765L5.75941 4.98517C5.71147 4.80619 5.74703 4.61523 5.85609 4.46542C5.96475 4.3156 6.13574 4.22292 6.32071 4.21333L7.12651 4.17178L7.41495 3.41752C7.48127 3.24454 7.6223 3.1107 7.79847 3.05318C7.97505 2.99645 8.16801 3.02202 8.32302 3.12269L8.99978 3.56334L9.67654 3.12269C9.83195 3.02202 10.0249 2.99645 10.2011 3.05318C10.3773 3.1107 10.5183 3.24454 10.5846 3.41752L10.8731 4.17178L11.6789 4.21333C11.8638 4.22292 12.0348 4.3156 12.1435 4.46542C12.2525 4.61523 12.2881 4.80619 12.2402 4.98517L12.0308 5.765L12.6584 6.27317C12.8027 6.38983 12.8861 6.56521 12.8861 6.75018C12.8861 6.93515 12.8027 7.11053 12.6584 7.22719L12.0308 7.73535L12.2402 8.51518C12.2881 8.69416 12.2525 8.88512 12.1435 9.03494C12.0348 9.18475 11.8638 9.27744 11.6789 9.28702L10.8731 9.32857L10.5846 10.0828C10.5183 10.2558 10.3773 10.3897 10.2011 10.4472C10.0249 10.5047 9.83195 10.4787 9.67654 10.3777L8.99978 9.93701L8.32302 10.3777C8.22235 10.4432 8.10569 10.4771 7.98824 10.4771C7.92472 10.4771 7.8604 10.4672 7.79847 10.4472C7.6223 10.3897 7.48127 10.2558 7.41495 10.0828L7.12651 9.32857L6.32071 9.28702C6.13574 9.27744 5.96475 9.18475 5.85609 9.03494C5.74703 8.88512 5.71147 8.69416 5.75941 8.51518L5.96875 7.73535L5.34113 7.22719C5.19691 7.11053 5.11341 6.93515 5.11341 6.75018C5.11341 6.56521 5.19691 6.38983 5.34113 6.27317ZM4.70432 11.4547H8.38614C8.72492 11.4547 8.99978 11.7296 8.99978 12.0684C8.99978 12.4071 8.72492 12.682 8.38614 12.682H4.70432C4.36555 12.682 4.09069 12.4071 4.09069 12.0684C4.09069 11.7296 4.36555 11.4547 4.70432 11.4547ZM4.70432 13.5002H13.2952C13.634 13.5002 13.9089 13.775 13.9089 14.1138C13.9089 14.4526 13.634 14.7275 13.2952 14.7275H4.70432C4.36555 14.7275 4.09069 14.4526 4.09069 14.1138C4.09069 13.775 4.36555 13.5002 4.70432 13.5002Z" fill="#5258E4"/>
</svg>
