<svg width="18" height="18" viewBox="0 0 18 18" fill="none" xmlns="http://www.w3.org/2000/svg">
<path fill-rule="evenodd" clip-rule="evenodd" d="M12 0H6C3.24316 0 1 2.24316 1 5V13C1 15.7568 3.24316 18 6 18H12C14.7568 18 17 15.7568 17 13V5C17 2.24316 14.7568 0 12 0ZM15 13C15 14.6543 13.6543 16 12 16H6C4.3457 16 3 14.6543 3 13V5C3 3.3457 4.3457 2 6 2H12C13.6543 2 15 3.3457 15 5V13Z" fill="#292929"/>
<path fill-rule="evenodd" clip-rule="evenodd" d="M6 12H9C9.55273 12 10 11.5527 10 11C10 10.4473 9.55273 10 9 10H6C5.44727 10 5 10.4473 5 11C5 11.5527 5.44727 12 6 12Z" fill="#292929"/>
<path fill-rule="evenodd" clip-rule="evenodd" d="M12 13H6C5.44727 13 5 13.4473 5 14C5 14.5527 5.44727 15 6 15H12C12.5527 15 13 14.5527 13 14C13 13.4473 12.5527 13 12 13Z" fill="#292929"/>
<path fill-rule="evenodd" clip-rule="evenodd" d="M6.66029 6.79297L6.49867 7.42041C6.46168 7.56445 6.48915 7.71826 6.57325 7.83887C6.65723 7.95948 6.78919 8.03418 6.93201 8.04199L7.55396 8.07519L7.77662 8.68261C7.82777 8.82177 7.93665 8.92968 8.07264 8.97558C8.12049 8.99169 8.17017 8.99999 8.21912 8.99999C8.30982 8.99999 8.39991 8.97265 8.47754 8.91991L9 8.56493L9.52246 8.91991C9.60022 8.97264 9.69043 8.99999 9.78137 8.99999C9.83044 8.99999 9.87976 8.99169 9.92737 8.97558C10.0634 8.92968 10.1722 8.82177 10.2234 8.68261L10.4461 8.07519L11.068 8.04199C11.2108 8.03418 11.3428 7.95947 11.4268 7.83887C11.5109 7.71826 11.5383 7.56446 11.5013 7.42041L11.3397 6.79297L11.8242 6.38379C11.9356 6.29004 12 6.14893 12 6C12 5.85107 11.9356 5.70996 11.8242 5.61572L11.3397 5.20654L11.5013 4.5791C11.5383 4.43506 11.5109 4.28125 11.4268 4.16064C11.3428 4.04003 11.2108 3.96533 11.068 3.95752L10.4461 3.92432L10.2234 3.3169C10.1722 3.17774 10.0634 3.07032 9.92737 3.02393C9.87976 3.00782 9.83045 3 9.78125 3C9.69043 3 9.60022 3.02686 9.52246 3.07959L9 3.43457L8.47754 3.07959C8.3999 3.02686 8.31006 3 8.21924 3C8.17005 3 8.12061 3.00781 8.07263 3.02393C7.93664 3.07032 7.82776 3.17774 7.77661 3.3169L7.55395 3.92432L6.932 3.95752C6.78918 3.96533 6.65722 4.04004 6.57324 4.16064C6.48913 4.28125 6.46167 4.43505 6.49866 4.5791L6.66028 5.20654L6.17578 5.61572C6.06445 5.70996 6 5.85107 6 6C6 6.14893 6.06445 6.29004 6.17578 6.38379L6.66029 6.79297ZM9.00001 5C9.55226 5 10 5.44727 10 6C10 6.55225 9.55226 7 9.00001 7C8.44764 7 8.00001 6.55225 8.00001 6C8.00001 5.44727 8.44764 5 9.00001 5Z" fill="#292929"/>
</svg>
