<svg width="18" height="18" viewBox="0 0 18 18" fill="none" xmlns="http://www.w3.org/2000/svg">
<path d="M12.5 7C13.3284 7 14 6.32843 14 5.5C14 4.67157 13.3284 4 12.5 4C11.6716 4 11 4.67157 11 5.5C11 6.32843 11.6716 7 12.5 7Z" fill="#292929"/>
<path fill-rule="evenodd" clip-rule="evenodd" d="M13 1H5C2.24316 1 0 3.24316 0 6V12C0 14.7568 2.24316 17 5 17H13C15.7568 17 18 14.7568 18 12V6C18 3.24316 15.7568 1 13 1ZM13 15H5C3.3457 15 2 13.6543 2 12C2 11.9879 5.01172 9.07324 5.01172 9.07324C5.10938 8.97558 5.26758 8.97656 5.36328 9.07226L9.07617 12.7861C9.45019 13.1611 10.0547 13.1777 10.4502 12.8242L12.4062 11.0713C12.5293 10.9512 12.6045 10.9229 12.79 11.1035L15.5283 13.6003C14.9956 14.4387 14.0647 15 13 15ZM16 11.3239L14.1709 9.65722C13.2959 8.78124 11.8682 8.77929 11.0322 9.61913L9.82129 10.7031L6.77637 7.65721C5.90039 6.78416 4.47461 6.78123 3.61035 7.64647L2 9.20476V5.99999C2 4.34569 3.3457 2.99999 5 2.99999H13C14.6543 2.99999 16 4.34569 16 5.99999V11.3239Z" fill="#292929"/>
</svg>
