<svg width="18" height="18" viewBox="0 0 18 18" fill="none" xmlns="http://www.w3.org/2000/svg">
<path fill-rule="evenodd" clip-rule="evenodd" d="M13 1H5C2.24316 1 0 3.24316 0 6V11.1406L3.61035 7.64648C4.47558 6.78125 5.90137 6.78418 6.77637 7.65722L9.82129 10.7031L11.0322 9.61914C11.8682 8.7793 13.2959 8.78125 14.1709 9.65723L17.8867 13.0435C17.9587 12.7064 18 12.3582 18 12V6C18 3.24316 15.7568 1 13 1ZM12.5 7C11.6716 7 11 6.32843 11 5.5C11 4.67157 11.6716 4 12.5 4C13.3284 4 14 4.67157 14 5.5C14 6.32843 13.3284 7 12.5 7Z" fill="#5258E4"/>
<path fill-rule="evenodd" clip-rule="evenodd" d="M12.4065 11.071L10.4504 12.824C10.0549 13.1775 9.45044 13.1609 9.07642 12.7859L5.36353 9.07202C5.26783 8.97632 5.10962 8.97534 5.01197 9.073L0.297852 13.6356C0.979492 15.587 2.81933 16.9998 5.00024 16.9998H13.0002C14.6488 16.9998 16.1017 16.1877 17.0131 14.9533L12.7903 11.1033C12.6614 10.9734 12.5042 10.9744 12.4065 11.071Z" fill="#5258E4"/>
</svg>
