<svg width="18" height="18" viewBox="0 0 18 18" fill="none" xmlns="http://www.w3.org/2000/svg">
<g clip-path="url(#clip0_756_32262)">
<path fill-rule="evenodd" clip-rule="evenodd" d="M15 9.99146V11.0071C15 13.2415 12.278 14.9954 9 14.9954C7.51246 15.0323 7 14.5414 7 14.0002V11.4842L7.32617 11.609C7.87207 11.8014 8.43457 11.899 9 11.899C9.60547 11.899 10.1992 11.7916 10.7656 11.5787L15 9.99146ZM16.6875 3.62037L10.0605 1.18091C9.38086 0.928959 8.61719 0.929929 7.94141 1.17993L1.31348 3.62037C0.51563 3.91334 0 4.64771 0 5.49146C0 6.60767 1.14453 7.21998 1.27539 7.28638L3.13306 7.98658C3.39356 7.14063 4.02002 6.44044 4.87207 6.09498L8.62402 4.5735C9.13379 4.36549 9.71875 4.61159 9.92675 5.12428C10.1338 5.636 9.88769 6.21901 9.37597 6.42701L5.62402 7.94849C5.30127 8.07911 5.08593 8.36597 5.02612 8.7002L7.99511 9.81861C8.32421 9.93287 8.66308 9.99146 8.99999 9.99146C9.36425 9.99146 9.72069 9.92798 10.0586 9.80298L16.6885 7.36255C17.4853 7.0686 18 6.33423 18 5.49146C18 4.64771 17.4844 3.91334 16.6875 3.62037ZM5.44727 15.6584L5 14.7639V8.87525C5 8.8147 5.01587 8.75831 5.02612 8.7002L3.13306 7.98658C3.04615 8.26917 2.99999 8.56788 2.99999 8.87525V14.7642L2.55272 15.6594C2.30077 16.1643 2.32713 16.7532 2.62401 17.2336C2.92186 17.7141 3.43553 18.0002 3.99999 18.0002C4.56445 18.0002 5.07811 17.7141 5.37597 17.2336C5.67285 16.7532 5.69922 16.1643 5.44727 15.6584Z" fill="#5258E4"/>
</g>
<defs>
<clipPath id="clip0_756_32262">
<rect width="18" height="18" fill="white"/>
</clipPath>
</defs>
</svg>
