<svg width="18" height="18" viewBox="0 0 18 18" fill="none" xmlns="http://www.w3.org/2000/svg">
<g clip-path="url(#clip0_756_32225)">
<path fill-rule="evenodd" clip-rule="evenodd" d="M5 8.87452V14.7632L5.44727 15.6577C5.69922 16.1636 5.67286 16.7524 5.37598 17.2329C5.07813 17.7134 4.56446 17.9995 4 17.9995C3.43554 17.9995 2.92188 17.7134 2.62402 17.2329C2.32714 16.7524 2.30078 16.1636 2.55273 15.6587L3 14.7634V8.87452C3 7.64698 3.73535 6.55517 4.87207 6.09424L8.62402 4.57276C9.13379 4.36475 9.71972 4.61086 9.92675 5.12355C10.1338 5.63527 9.88769 6.21828 9.37597 6.42628L5.62402 7.94775C5.24511 8.10107 5 8.46534 5 8.87452ZM16.6934 3.67823L10.0635 1.1919C9.38184 0.936035 8.61914 0.936035 7.93555 1.1919L1.30762 3.67823C0.51367 3.97511 0 4.71632 0 5.56495C0 6.07569 0.19824 6.56593 0.55859 6.94581C0.93945 7.34718 1.57324 7.35498 1.97265 6.97412C2.37304 6.59326 2.38964 5.95167 2.00976 5.55128L8.63769 3.06494C8.87011 2.979 9.13085 2.979 9.36132 3.06494L15.9902 5.57862L9.3623 8.06494C9.14257 8.14599 8.90332 8.15577 8.65722 8.06788C8.13476 7.88624 7.56542 8.15772 7.38085 8.67823C7.19726 9.19971 7.47069 9.77099 7.9912 9.95459C8.32323 10.0708 8.6621 10.1304 8.99999 10.1304C9.36522 10.1304 9.72265 10.0659 10.0644 9.93799L16.6924 7.45166C17.4863 7.15478 18 6.41358 18 5.56495C18 4.71632 17.4863 3.97511 16.6934 3.67823ZM14 9.49951C13.4473 9.49951 13 9.94678 13 10.4995V11.0151C13 11.9517 11.2891 12.9995 9 12.9995C8.53223 12.9995 8.07324 12.9565 7.63477 12.8706C7.09082 12.7612 6.56739 13.1177 6.46192 13.6606C6.35645 14.2026 6.70997 14.728 7.25196 14.8335C7.81641 14.9438 8.4043 14.9995 9.00001 14.9995C12.3643 14.9995 15 13.2495 15 11.0151V10.4995C15 9.94678 14.5527 9.49951 14 9.49951Z" fill="#292929"/>
</g>
<defs>
<clipPath id="clip0_756_32225">
<rect width="18" height="18" fill="white"/>
</clipPath>
</defs>
</svg>
