<svg width="18" height="18" viewBox="0 0 18 18" fill="none" xmlns="http://www.w3.org/2000/svg">
<path fill-rule="evenodd" clip-rule="evenodd" d="M12 17H6C3.24316 17 1 14.7568 1 12V5C1 2.24316 3.24316 0 6 0H10.1714C10.9727 0 11.7266 0.3125 12.293 0.8789L16.1211 4.70702C16.688 5.27343 17 6.02733 17 6.82811V12C17 14.7568 14.7568 17 12 17ZM6 2C4.3457 2 3 3.3457 3 5V12C3 13.6543 4.3457 15 6 15H12C13.6543 15 15 13.6543 15 12V6.82812C15 6.56542 14.8931 6.30761 14.707 6.12109L10.8789 2.29297C10.69 2.10449 10.4385 2 10.1714 2H6Z" fill="#5258E4"/>
<path fill-rule="evenodd" clip-rule="evenodd" d="M13.2413 9.63115C12.9529 9.31299 12.4013 9.15127 11.6018 9.15127C11.2083 9.15127 10.7637 9.19104 10.2776 9.26926C10.0144 9.00866 9.75783 8.70127 9.51481 8.35432C9.34123 8.10735 9.18116 7.85159 9.03751 7.59187C9.31903 6.68077 9.4618 5.94117 9.4618 5.39285C9.4618 4.71983 9.20236 4 8.47424 4C8.23507 4 7.99007 4.14875 7.86472 4.3698C7.55419 4.91802 7.67861 6.04631 8.17431 7.19428C8.00171 7.72173 7.81357 8.23534 7.58308 8.80433C7.38928 9.28509 7.15879 9.77684 6.91478 10.231C6.17221 10.5384 4.59342 11.2839 4.44302 12.1077C4.39858 12.3547 4.47483 12.5876 4.65907 12.764C4.71592 12.8196 4.9329 13 5.30232 13C6.25319 13 7.2012 11.6467 7.83967 10.4818C8.20227 10.355 8.57262 10.2399 8.94099 10.1398C9.34512 10.0298 9.73569 9.93956 10.1041 9.8721C11.111 10.7753 12.0059 10.9121 12.4544 10.9121C13.0706 10.9121 13.3011 10.6375 13.385 10.4065C13.4959 10.1051 13.3879 9.79287 13.2413 9.63115ZM5.12385 12.4816C5.05925 12.4816 5.00624 12.4617 4.96762 12.4241C4.89725 12.3566 4.87121 12.2833 4.88764 12.194C4.95416 11.833 5.64756 11.3126 6.68138 10.8378C6.07285 11.8449 5.47393 12.4816 5.12385 12.4816ZM8.25528 4.6038C8.3045 4.51646 8.3836 4.46394 8.46556 4.46394C8.69605 4.46394 8.74621 4.74947 8.74621 4.98843C8.74813 5.36911 8.63624 5.97599 8.44431 6.64704C8.05759 5.59411 8.11158 4.85649 8.25528 4.6038ZM9.60643 9.39725C9.34512 9.45361 9.07502 9.51909 8.80119 9.59347C8.60442 9.64708 8.4048 9.70553 8.20518 9.76804C8.31125 9.54502 8.40865 9.32386 8.49346 9.11369C8.60536 8.83607 8.71049 8.55844 8.80695 8.28686C8.89182 8.42364 8.9796 8.55646 9.06925 8.68435C9.24668 8.93726 9.43784 9.17895 9.60643 9.39725ZM12.1245 10.4015C12.057 10.4015 11.9866 10.3925 11.9162 10.3747C11.463 10.2637 11.0289 10.0385 10.5959 9.68761C11.0019 9.62411 11.3443 9.61038 11.5729 9.61038C11.8333 9.61038 12.0715 9.62917 12.2238 9.66191C12.4196 9.70366 12.6405 9.81462 12.5855 10.106C12.5517 10.2855 12.3714 10.4015 12.1245 10.4015Z" fill="#5258E4"/>
</svg>
