<svg width="18" height="18" viewBox="0 0 18 18" fill="none" xmlns="http://www.w3.org/2000/svg">
<g clip-path="url(#clip0_757_33604)">
<path d="M17.0004 10H16.0273C15.4751 10 15.0273 10.4477 15.0273 11V11.973C15.0273 12.5253 15.4751 12.973 16.0273 12.973H17.0004C17.5527 12.973 18.0004 12.5253 18.0004 11.973V11C18.0004 10.4477 17.5527 10 17.0004 10Z" fill="#5258E4"/>
<path d="M17.0004 15.0273H16.0273C15.4751 15.0273 15.0273 15.4751 15.0273 16.0273V17.0004C15.0273 17.5527 15.4751 18.0004 16.0273 18.0004H17.0004C17.5527 18.0004 18.0004 17.5527 18.0004 17.0004V16.0273C18.0004 15.4751 17.5527 15.0273 17.0004 15.0273Z" fill="#5258E4"/>
<path d="M11.976 10H11C10.4477 10 10 10.4477 10 11V11.976C10 12.5282 10.4477 12.976 11 12.976H11.976C12.5282 12.976 12.976 12.5282 12.976 11.976V11C12.976 10.4477 12.5282 10 11.976 10Z" fill="#5258E4"/>
<path d="M11.973 15.0273H11C10.4477 15.0273 10 15.4751 10 16.0273V17.0004C10 17.5527 10.4477 18.0004 11 18.0004H11.973C12.5253 18.0004 12.973 17.5527 12.973 17.0004V16.0273C12.973 15.4751 12.5253 15.0273 11.973 15.0273Z" fill="#5258E4"/>
<path fill-rule="evenodd" clip-rule="evenodd" d="M15 0H13C11.3457 0 10 1.3457 10 3V5C10 6.6543 11.3457 8 13 8H15C16.6543 8 18 6.6543 18 5V3C18 1.3457 16.6543 0 15 0ZM15 4.25C15 4.66418 14.6641 5 14.25 5H13.75C13.3359 5 13 4.66418 13 4.25V3.75C13 3.33569 13.3359 3 13.75 3H14.25C14.6641 3 15 3.33569 15 3.75V4.25Z" fill="#5258E4"/>
<path fill-rule="evenodd" clip-rule="evenodd" d="M5 0H3C1.3457 0 0 1.3457 0 3V5C0 6.6543 1.3457 8 3 8H5C6.6543 8 8 6.6543 8 5V3C8 1.3457 6.6543 0 5 0ZM5 4.25C5 4.66418 4.66406 5 4.25 5H3.75C3.33594 5 3 4.66418 3 4.25V3.75C3 3.33569 3.33594 3 3.75 3H4.25C4.66406 3 5 3.33569 5 3.75V4.25Z" fill="#5258E4"/>
<path fill-rule="evenodd" clip-rule="evenodd" d="M5 10H3C1.3457 10 0 11.3457 0 13V15C0 16.6543 1.3457 18 3 18H5C6.6543 18 8 16.6543 8 15V13C8 11.3457 6.6543 10 5 10ZM5 14.25C5 14.6642 4.66406 15 4.25 15H3.75C3.33594 15 3 14.6642 3 14.25V13.75C3 13.3357 3.33594 13 3.75 13H4.25C4.66406 13 5 13.3357 5 13.75V14.25Z" fill="#5258E4"/>
<path d="M14.25 13H13.75C13.3358 13 13 13.3358 13 13.75V14.25C13 14.6642 13.3358 15 13.75 15H14.25C14.6642 15 15 14.6642 15 14.25V13.75C15 13.3358 14.6642 13 14.25 13Z" fill="#5258E4"/>
</g>
<defs>
<clipPath id="clip0_757_33604">
<rect width="18" height="18" fill="white"/>
</clipPath>
</defs>
</svg>
