<svg width="18" height="18" viewBox="0 0 18 18" fill="none" xmlns="http://www.w3.org/2000/svg">
<g clip-path="url(#clip0_757_33557)">
<path fill-rule="evenodd" clip-rule="evenodd" d="M5 8H3C1.3457 8 0 6.6543 0 5V3C0 1.3457 1.3457 0 3 0H5C6.6543 0 8 1.3457 8 3V5C8 6.6543 6.6543 8 5 8ZM3 2C2.44824 2 2 2.44824 2 3V5C2 5.55176 2.44824 6 3 6H5C5.55176 6 6 5.55176 6 5V3C6 2.44824 5.55176 2 5 2H3Z" fill="#292929"/>
<path fill-rule="evenodd" clip-rule="evenodd" d="M15 8H13C11.3457 8 10 6.6543 10 5V3C10 1.3457 11.3457 0 13 0H15C16.6543 0 18 1.3457 18 3V5C18 6.6543 16.6543 8 15 8ZM13 2C12.4482 2 12 2.44824 12 3V5C12 5.55176 12.4482 6 13 6H15C15.5518 6 16 5.55176 16 5V3C16 2.44824 15.5518 2 15 2H13Z" fill="#292929"/>
<path fill-rule="evenodd" clip-rule="evenodd" d="M5 18H3C1.3457 18 0 16.6543 0 15V13C0 11.3457 1.3457 10 3 10H5C6.6543 10 8 11.3457 8 13V15C8 16.6543 6.6543 18 5 18ZM3 12C2.44824 12 2 12.4482 2 13V15C2 15.5518 2.44824 16 3 16H5C5.55176 16 6 15.5518 6 15V13C6 12.4482 5.55176 12 5 12H3Z" fill="#292929"/>
<path d="M17.0004 10H16.0273C15.4751 10 15.0273 10.4477 15.0273 11V11.973C15.0273 12.5253 15.4751 12.973 16.0273 12.973H17.0004C17.5527 12.973 18.0004 12.5253 18.0004 11.973V11C18.0004 10.4477 17.5527 10 17.0004 10Z" fill="#292929"/>
<path d="M17.0004 15.0273H16.0273C15.4751 15.0273 15.0273 15.4751 15.0273 16.0273V17.0004C15.0273 17.5527 15.4751 18.0004 16.0273 18.0004H17.0004C17.5527 18.0004 18.0004 17.5527 18.0004 17.0004V16.0273C18.0004 15.4751 17.5527 15.0273 17.0004 15.0273Z" fill="#292929"/>
<path d="M11.976 10H11C10.4477 10 10 10.4477 10 11V11.976C10 12.5282 10.4477 12.976 11 12.976H11.976C12.5282 12.976 12.976 12.5282 12.976 11.976V11C12.976 10.4477 12.5282 10 11.976 10Z" fill="#292929"/>
<path d="M11.973 15.0273H11C10.4477 15.0273 10 15.4751 10 16.0273V17.0004C10 17.5527 10.4477 18.0004 11 18.0004H11.973C12.5253 18.0004 12.973 17.5527 12.973 17.0004V16.0273C12.973 15.4751 12.5253 15.0273 11.973 15.0273Z" fill="#292929"/>
<path d="M14.25 3H13.75C13.3358 3 13 3.33579 13 3.75V4.25C13 4.66421 13.3358 5 13.75 5H14.25C14.6642 5 15 4.66421 15 4.25V3.75C15 3.33579 14.6642 3 14.25 3Z" fill="#292929"/>
<path d="M4.25 3H3.75C3.33579 3 3 3.33579 3 3.75V4.25C3 4.66421 3.33579 5 3.75 5H4.25C4.66421 5 5 4.66421 5 4.25V3.75C5 3.33579 4.66421 3 4.25 3Z" fill="#292929"/>
<path d="M4.25 13H3.75C3.33579 13 3 13.3358 3 13.75V14.25C3 14.6642 3.33579 15 3.75 15H4.25C4.66421 15 5 14.6642 5 14.25V13.75C5 13.3358 4.66421 13 4.25 13Z" fill="#292929"/>
<path d="M14.25 13H13.75C13.3358 13 13 13.3358 13 13.75V14.25C13 14.6642 13.3358 15 13.75 15H14.25C14.6642 15 15 14.6642 15 14.25V13.75C15 13.3358 14.6642 13 14.25 13Z" fill="#292929"/>
</g>
<defs>
<clipPath id="clip0_757_33557">
<rect width="18" height="18" fill="white"/>
</clipPath>
</defs>
</svg>
