<svg width="18" height="18" viewBox="0 0 18 18" fill="none" xmlns="http://www.w3.org/2000/svg">
<path fill-rule="evenodd" clip-rule="evenodd" d="M3 7.00524V17.0004C1.34326 17.0004 0 15.6572 0 14.0004V10.0133C0 8.36865 1.3457 7.01501 3 7.00524ZM14.7617 5.00036H11.5C11.2251 5.00036 11 4.77526 11 4.50036V2.61364C11 1.15112 9.95312 0.0478516 8.56543 0.0478516C6.92383 0.0478516 6.35059 1.89904 5.79492 3.68957C5.53027 4.54333 5.27807 5.29614 5 5.87353V17.0004H11.5303C13.584 17.0004 15.206 15.476 16.3467 12.4847L17.5957 9.3822C17.7539 8.98669 17.834 8.5697 17.834 8.14294C17.834 6.35095 16.5137 5.00036 14.7617 5.00036Z" fill="#5258E4"/>
</svg>
