<svg width="18" height="18" viewBox="0 0 18 18" fill="none" xmlns="http://www.w3.org/2000/svg">
<path fill-rule="evenodd" clip-rule="evenodd" d="M14.7617 5.00018H11.5C11.225 5.00018 11 4.77518 11 4.50018V2.61641C11 1.15564 9.95312 0.0537109 8.56445 0.0537109C6.92383 0.0537109 6.34961 1.90265 5.79492 3.68999C5.21387 5.56239 4.69922 6.99823 3.81543 7.00018H2.99023C1.33877 7.00018 0 8.33895 0 9.99041V14.0002C0 15.657 1.34315 17.0002 3 17.0002H11.5303C13.582 17.0002 15.2041 15.4758 16.3467 12.4846L17.5957 9.38202C17.7539 8.98651 17.834 8.56952 17.834 8.14276C17.834 6.35077 16.5137 5.00018 14.7617 5.00018ZM2 14.0002V10.0085C2 9.45391 2.45374 9.00018 3.0083 9.00018H3.82031C3.88281 9.00006 3.93969 8.98859 4 8.98505V15.0002H3C2.44772 15.0002 2 14.5525 2 14.0002ZM15.7393 8.6369L14.4844 11.7551C13.6504 13.9387 12.6836 15.0002 11.5303 15.0002H6V8.00018C6.84717 7.0368 7.30688 5.56659 7.70508 4.28534C7.94336 3.51679 8.34278 2.23163 8.56446 2.05975C8.69532 2.05975 9.00001 2.11444 9.00001 2.66717V4.50018C9.00001 5.87909 10.1211 7.00018 11.5 7.00018H14.7617C15.4981 7.00018 15.834 7.59198 15.834 8.14276C15.834 8.31171 15.8008 8.4826 15.7393 8.6369Z" fill="#222222"/>
</svg>
