<svg width="18" height="18" viewBox="0 0 18 18" fill="none" xmlns="http://www.w3.org/2000/svg">
<path fill-rule="evenodd" clip-rule="evenodd" d="M13 0H5C2.24316 0 0 2.24316 0 5V12C0 14.7568 2.24316 17 5 17H13C15.7568 17 18 14.7568 18 12V5C18 2.24316 15.7568 0 13 0ZM16 12C16 13.6543 14.6543 15 13 15H5C3.3457 15 2 13.6543 2 12V5C2 3.3457 3.3457 2 5 2H13C14.6543 2 16 3.3457 16 5V12Z" fill="#292929"/>
<path fill-rule="evenodd" clip-rule="evenodd" d="M12.4745 7.57433L7.71069 4.66771C6.966 4.21324 6 4.73595 6 5.59325V11.4067C6 12.264 6.966 12.7867 7.71069 12.3323L12.4745 9.42565C13.1752 8.99804 13.1752 8.00194 12.4745 7.57433Z" fill="#292929"/>
</svg>
