<svg width="32" height="32" viewBox="0 0 32 32" fill="none" xmlns="http://www.w3.org/2000/svg">
<path fill-rule="evenodd" clip-rule="evenodd" d="M11.8859 16.1504C11.7129 16.1086 11.5377 16.0768 11.3611 16.0551C11.13 16.0276 10.8973 16.0149 10.6645 16.0169H9.02344V19.1653C9.23959 19.1779 9.45589 19.1875 9.67233 19.194C9.88849 19.2005 10.1493 19.2037 10.4549 19.2035C10.9217 19.2105 11.3872 19.1527 11.8381 19.0317C12.1869 18.9484 12.5026 18.7622 12.7444 18.4974C12.9517 18.2455 13.0603 17.9268 13.0499 17.6007C13.0573 17.2838 12.971 16.9717 12.8017 16.7037C12.5764 16.4112 12.2496 16.2137 11.8859 16.1504Z" fill="#222222"/>
<path fill-rule="evenodd" clip-rule="evenodd" d="M11.3325 13.7843C11.5698 13.7861 11.8064 13.8117 12.0386 13.8607C12.2069 13.7167 12.3461 13.5418 12.4488 13.3456C12.5643 13.1081 12.62 12.846 12.6111 12.5821C12.6244 12.2824 12.537 11.9869 12.3629 11.7427C12.178 11.5131 11.929 11.3437 11.6476 11.2561C11.2615 11.1373 10.8586 11.0825 10.4549 11.0938H9.90148C9.73615 11.0938 9.58637 11.0974 9.45313 11.1034C9.31945 11.1099 9.17622 11.1131 9.02344 11.1129V13.7652H10.3212C10.6645 13.7652 11.0016 13.7716 11.3325 13.7843Z" fill="#222222"/>
<path fill-rule="evenodd" clip-rule="evenodd" d="M25.283 1.77777H6.71707C5.4071 1.77777 4.15079 2.29815 3.2245 3.22444C2.29821 4.15073 1.77783 5.40704 1.77783 6.71701V23.5052C1.77783 24.8152 2.29821 26.0715 3.2245 26.9978C4.15079 27.9241 5.4071 28.4444 6.71707 28.4444H25.283C26.593 28.4444 27.8493 27.9241 28.7756 26.9978C29.7019 26.0715 30.2223 24.8152 30.2223 23.5052V6.71701C30.2223 5.40704 29.7019 4.15073 28.7756 3.22444C27.8493 2.29815 26.593 1.77777 25.283 1.77777ZM19.191 8.62652C19.191 8.53797 19.2414 8.49318 19.3434 8.49318H24.8456C24.9341 8.49318 24.9788 8.54417 24.9788 8.64552V10.1876C24.9818 10.2083 24.9799 10.2294 24.9733 10.2493C24.9667 10.2691 24.9556 10.2871 24.9408 10.3019C24.926 10.3167 24.908 10.3278 24.8881 10.3344C24.8683 10.341 24.8472 10.3429 24.8265 10.34H19.3243C19.2353 10.34 19.1909 10.2894 19.1909 10.1876L19.191 8.62652ZM15.1585 19.566C14.6884 20.1842 14.0534 20.6571 13.3264 20.9303C12.416 21.2752 11.4473 21.4405 10.474 21.4169H9.20491C8.80432 21.4169 8.4354 21.4137 8.09815 21.4073C7.76091 21.401 7.46837 21.3946 7.22053 21.3882C6.97229 21.3817 6.75918 21.3785 6.58121 21.3787C6.49225 21.3663 6.44769 21.3091 6.44754 21.207V9.09027C6.44754 8.97569 6.48573 8.91231 6.56212 8.8993C6.77826 8.88693 7.10899 8.87745 7.55431 8.87086C7.99962 8.86456 8.48298 8.8582 9.00439 8.85176C9.5261 8.84547 10.0032 8.84228 10.4358 8.8422C11.2794 8.81268 12.1218 8.92891 12.9258 9.18577C13.4597 9.36291 13.9459 9.65984 14.3473 10.0538C14.6529 10.3621 14.8817 10.738 15.0152 11.1511C15.1231 11.4907 15.181 11.8442 15.1871 12.2005C15.1939 12.5813 15.1291 12.96 14.9961 13.3168C14.8869 13.6095 14.7324 13.8832 14.5382 14.1278C14.3934 14.3136 14.2194 14.4747 14.0231 14.6048C14.2946 14.7487 14.5477 14.9249 14.777 15.1296C15.0737 15.3958 15.3165 15.7165 15.4923 16.0742C15.7096 16.5326 15.8144 17.0363 15.7978 17.5434C15.8095 18.2691 15.5851 18.9789 15.1585 19.566ZM26.1672 16.6085C26.1481 16.8372 26.1322 17.0026 26.1194 17.1045C26.1144 17.1465 26.0941 17.1853 26.0624 17.2134C26.0307 17.2415 25.9899 17.257 25.9476 17.2571C25.8711 17.2571 25.7405 17.2666 25.5564 17.2857C25.3716 17.3046 25.1425 17.3173 24.8694 17.3237C24.5955 17.3304 24.3061 17.3336 24.0013 17.3332H20.2422C20.2885 17.6897 20.4122 18.0316 20.6046 18.3352C20.8181 18.6533 21.12 18.902 21.4731 19.0507C21.954 19.2464 22.4712 19.3375 22.99 19.3178C23.4025 19.3195 23.8143 19.2844 24.2205 19.2129C24.6041 19.1443 24.9786 19.0322 25.3368 18.8787C25.4002 18.8282 25.4323 18.8598 25.4323 18.9742V20.7871C25.4355 20.8365 25.4256 20.8858 25.4037 20.9302C25.3818 20.9648 25.3525 20.9941 25.3177 21.0159C24.9228 21.2029 24.5063 21.3408 24.0777 21.4263C23.5242 21.5301 22.9616 21.578 22.3985 21.5693C21.6202 21.5933 20.8459 21.4502 20.1276 21.1496C19.5505 20.8955 19.0408 20.5099 18.6393 20.0237C18.2642 19.5656 17.9851 19.0367 17.8186 18.4686C17.654 17.9077 17.5706 17.3263 17.5708 16.7418C17.5691 16.1036 17.6689 15.4691 17.8663 14.8622C18.0568 14.2702 18.358 13.7198 18.7539 13.2403C19.1443 12.7663 19.6324 12.3823 20.1849 12.1144C20.8063 11.8278 21.4852 11.6874 22.1693 11.7042C22.8023 11.6883 23.4311 11.812 24.0109 12.0667C24.5007 12.2885 24.9295 12.6257 25.2604 13.0495C25.5732 13.4528 25.8123 13.9083 25.9666 14.3948C26.1169 14.8635 26.1941 15.3526 26.1953 15.8449C26.1953 16.1249 26.186 16.3794 26.1672 16.6085Z" fill="#222222"/>
<path fill-rule="evenodd" clip-rule="evenodd" d="M23.3524 14.395C23.2015 14.2019 23.0069 14.0476 22.7845 13.9447C22.5622 13.8419 22.3185 13.7934 22.0737 13.8034C21.7527 13.7839 21.4329 13.8583 21.1534 14.0176C20.874 14.1768 20.6469 14.414 20.5 14.7001C20.3697 14.9442 20.2825 15.2089 20.2422 15.4826H22.7417C23.0469 15.4826 23.2727 15.4794 23.4193 15.4731C23.5122 15.4731 23.6048 15.4635 23.6957 15.4444V15.3298C23.6919 15.1806 23.6663 15.0328 23.6198 14.891C23.5608 14.7111 23.4703 14.5431 23.3524 14.395Z" fill="#222222"/>
</svg>
