<svg width="10" height="10" viewBox="0 0 10 10" fill="none" xmlns="http://www.w3.org/2000/svg">
<path d="M4.82298 7.96534C4.88255 7.97779 4.94041 7.99903 5.00096 7.99903C5.06151 7.99903 5.11937 7.97779 5.17894 7.96534C5.22923 7.95484 5.28099 7.95484 5.32909 7.93531C5.3872 7.91187 5.43578 7.86719 5.48851 7.83082C5.53075 7.80177 5.57848 7.78443 5.6162 7.74708C5.61742 7.74586 5.61766 7.74415 5.61889 7.74293C5.62012 7.74171 5.62182 7.74147 5.62304 7.74024L9.69823 3.61524C10.0381 3.27149 10.0351 2.71778 9.69139 2.37794C9.34764 2.0381 8.79295 2.04103 8.45409 2.38478L5.00097 5.88014L1.54785 2.38478C1.20898 2.04103 0.654303 2.0381 0.310553 2.37794C0.137703 2.54884 0.0507822 2.77442 0.0507822 3.00001C0.0507822 3.22169 0.134762 3.44435 0.303712 3.61524L4.37891 7.74024C4.38013 7.74146 4.38184 7.7417 4.38306 7.74293C4.38428 7.74416 4.38452 7.74586 4.38575 7.74708C4.42347 7.78443 4.4712 7.80177 4.51344 7.83082C4.56617 7.8672 4.61476 7.91187 4.67286 7.93531C4.72096 7.95484 4.77268 7.95484 4.82298 7.96534Z" fill="#131313"/>
</svg>
