<svg width="18" height="18" viewBox="0 0 18 18" fill="none" xmlns="http://www.w3.org/2000/svg">
<path d="M9 16.875C4.65732 16.875 1.125 13.3427 1.125 9C1.125 4.65732 4.65732 1.125 9 1.125C13.3427 1.125 16.875 4.65732 16.875 9C16.875 13.3427 13.3427 16.875 9 16.875ZM9 2.475C5.40175 2.475 2.475 5.40175 2.475 9C2.475 12.5982 5.40175 15.525 9 15.525C12.5982 15.525 15.525 12.5982 15.525 9C15.525 5.40175 12.5982 2.475 9 2.475Z" fill="#222222"/>
<path d="M8.29813 12.1526C8.10741 12.1526 7.92459 12.0717 7.79627 11.9293L5.5366 9.41653C5.287 9.1388 5.30985 8.71252 5.5867 8.46292C5.86354 8.21331 6.28982 8.23616 6.54031 8.51301L8.2445 10.4088L11.3831 6.12854C11.6019 5.82796 12.0229 5.76028 12.3261 5.98353C12.6267 6.20325 12.6918 6.62601 12.4712 6.92659L8.84215 11.8766C8.72262 12.0409 8.53453 12.142 8.33151 12.1517C8.32096 12.1526 8.30956 12.1526 8.29813 12.1526Z" fill="#222222"/>
</svg>
