<svg width="32" height="17" viewBox="0 0 32 17" fill="none" xmlns="http://www.w3.org/2000/svg">
<g clip-path="url(#clip0_21181_167596)">
<path d="M30.5036 7.1958L27.4209 2.78125C26.8594 1.97852 25.9404 1.5 24.9619 1.5H22.2197C21.6702 0.89062 20.8832 0.5 20 0.5H8.99998C8.44773 0.5 7.99998 0.94727 7.99998 1.5C7.99998 2.05273 8.44773 2.5 8.99998 2.5H20C20.5513 2.5 21 2.94824 21 3.5V5.5C21 7.1543 22.3457 8.5 24 8.5H29V11.5C29 12.0518 28.5513 12.5 28 12.5H26.5657C26.1516 11.3384 25.0519 10.5 23.75 10.5C22.448 10.5 21.3484 11.3384 20.9343 12.5H16.8157C16.4016 11.3384 15.3019 10.5 14 10.5C12.6981 10.5 11.5984 11.3384 11.1843 12.5H8.08691C7.53466 12.5 7.08691 12.9473 7.08691 13.5C7.08691 14.0527 7.53466 14.5 8.08691 14.5H11.1843C11.5984 15.6616 12.6981 16.5 14 16.5C15.3019 16.5 16.4016 15.6616 16.8157 14.5H20.9343C21.3484 15.6616 22.448 16.5 23.75 16.5C25.0519 16.5 26.1516 15.6616 26.5657 14.5H28C29.6543 14.5 31 13.1543 31 11.5V8.5C31 7.99951 30.8087 7.54688 30.5036 7.1958ZM14 14.5C13.4487 14.5 13 14.0518 13 13.5C13 12.9482 13.4487 12.5 14 12.5C14.5513 12.5 15 12.9482 15 13.5C15 14.0518 14.5513 14.5 14 14.5ZM23.75 14.5C23.1987 14.5 22.75 14.0518 22.75 13.5C22.75 12.9482 23.1987 12.5 23.75 12.5C24.3013 12.5 24.75 12.9482 24.75 13.5C24.75 14.0518 24.3013 14.5 23.75 14.5ZM23 5.5V3.5H24.9619C25.2881 3.5 25.5947 3.66016 25.7817 3.92676L27.5788 6.5H24C23.4487 6.5 23 6.05176 23 5.5Z" fill="black"/>
<path d="M5 6.5H12C12.5522 6.5 13 6.05273 13 5.5C13 4.94727 12.5522 4.5 12 4.5H5C4.44775 4.5 4 4.94727 4 5.5C4 6.05273 4.44775 6.5 5 6.5Z" fill="black"/>
<path d="M10 9.5C10 8.94727 9.55225 8.5 9 8.5H2C1.44775 8.5 1 8.94727 1 9.5C1 10.0527 1.44775 10.5 2 10.5H9C9.55225 10.5 10 10.0527 10 9.5Z" fill="black"/>
</g>
<defs>
<clipPath id="clip0_21181_167596">
<rect width="32" height="16" fill="white" transform="translate(0 0.5)"/>
</clipPath>
</defs>
</svg>
