<svg width="20" height="20" viewBox="0 0 20 20" fill="none" xmlns="http://www.w3.org/2000/svg">
<path d="M9.99088 2.47955e-05C4.47063 2.47955e-05 0 4.50533 0 10.0671C0 15.014 3.58205 19.2286 8.43587 20V12.9681H5.89789V10.0615H8.43587V7.82561C8.43587 5.29907 9.92979 3.91282 12.2123 3.91282C12.9565 3.91841 13.7007 3.98549 14.4337 4.10846V6.5847H13.1897C12.4011 6.4785 11.6736 7.03747 11.5681 7.83121C11.5514 7.93741 11.5514 8.0492 11.5681 8.15541V10.0615H14.3449L13.9006 12.9681H11.5625V20C17.0161 19.1336 20.737 13.9799 19.8762 8.49079C19.1098 3.59421 14.9113 -0.0111542 9.99088 2.47955e-05Z" fill="#292929"/>
</svg>
