<svg width="20" height="20" viewBox="0 0 20 20" fill="none" xmlns="http://www.w3.org/2000/svg">
<path d="M0 1.44321V18.5565C0.0111888 19.3621 0.671329 20.011 1.47692 19.9999H18.5231C19.3287 20.011 19.9888 19.3621 20 18.5565V1.44321C19.9888 0.637621 19.3287 -0.0113316 18.5231 -0.000143051H1.47692C0.671329 -0.0113316 0.0111888 0.637621 0 1.44321ZM5.93007 17.046H2.96503V7.50196H5.93007V17.046ZM7.79301 7.50196H10.6294V8.80545H10.6685C11.2448 7.81524 12.3189 7.22223 13.4657 7.2614C16.4699 7.2614 17.0238 9.24182 17.0238 11.8096V17.046H14.0811V12.4027C14.0811 11.2838 14.0811 9.87398 12.5371 9.87398C10.993 9.87398 10.758 11.0768 10.758 12.3075V17.0292H7.79301V7.50196ZM4.47552 2.7579C5.42657 2.77468 6.18741 3.5579 6.17063 4.50895C6.15385 5.46 5.37063 6.22084 4.41958 6.20405C3.47413 6.18727 2.71888 5.42084 2.72448 4.47538C2.72448 3.52433 3.49091 2.7579 4.44196 2.7579C4.45315 2.7579 4.46434 2.7579 4.47552 2.7579Z" fill="#292929"/>
</svg>
