<svg width="20" height="20" viewBox="0 0 20 20" fill="none" xmlns="http://www.w3.org/2000/svg">
<path d="M10 0C15.5228 0 20 4.47715 20 10C20 15.5228 15.5228 20 10 20C4.47715 20 0 15.5228 0 10C0 4.47715 4.47715 0 10 0ZM11.7676 7.52539C10.4008 6.15857 8.1852 6.15859 6.81836 7.52539L3.98926 10.3535C2.62257 11.7204 2.62247 13.9369 3.98926 15.3037L4.69629 16.0107C6.06307 17.3775 8.27964 17.3774 9.64648 16.0107C10.0369 15.6203 10.0367 14.9872 9.64648 14.5967C9.25596 14.2062 8.62295 14.2062 8.23242 14.5967C7.64677 15.1822 6.6971 15.182 6.11133 14.5967L5.4043 13.8887C4.81851 13.3029 4.81851 12.3534 5.4043 11.7676L8.23242 8.93945C8.81821 8.3537 9.76774 8.35368 10.3535 8.93945L10.707 9.29297C11.0975 9.68344 11.7306 9.68334 12.1211 9.29297C12.5116 8.90244 12.5116 8.26943 12.1211 7.87891L11.7676 7.52539ZM15.3037 3.98926C13.9369 2.62247 11.7204 2.62257 10.3535 3.98926C9.96308 4.37969 9.96325 5.01277 10.3535 5.40332C10.744 5.79384 11.3771 5.79384 11.7676 5.40332C12.3532 4.81783 13.3029 4.81803 13.8887 5.40332L14.5967 6.11133C15.182 6.6971 15.1822 7.64677 14.5967 8.23242L11.7676 11.0605C11.1818 11.6463 10.2323 11.6463 9.64648 11.0605L9.29297 10.707C8.90249 10.3166 8.26944 10.3167 7.87891 10.707C7.48838 11.0976 7.48838 11.7306 7.87891 12.1211L8.23242 12.4746C9.59924 13.8414 11.8148 13.8414 13.1816 12.4746L16.0107 9.64648C17.3774 8.27964 17.3775 6.06308 16.0107 4.69629L15.3037 3.98926Z" fill="#292929"/>
</svg>
