<svg width="12" height="12" viewBox="0 0 12 12" fill="none" xmlns="http://www.w3.org/2000/svg">
<path d="M11.5 5H7V0.5C7 0.367392 6.94732 0.240215 6.85355 0.146447C6.75979 0.0526785 6.63261 0 6.5 0H5.5C5.36739 0 5.24021 0.0526785 5.14645 0.146447C5.05268 0.240215 5 0.367392 5 0.5V5H0.5C0.367392 5 0.240215 5.05268 0.146447 5.14645C0.0526785 5.24021 0 5.36739 0 5.5V6.5C0 6.63261 0.0526785 6.75979 0.146447 6.85355C0.240215 6.94732 0.367392 7 0.5 7H5V11.5C5 11.6326 5.05268 11.7598 5.14645 11.8536C5.24021 11.9473 5.36739 12 5.5 12H6.5C6.63261 12 6.75979 11.9473 6.85355 11.8536C6.94732 11.7598 7 11.6326 7 11.5V7H11.5C11.6326 7 11.7598 6.94732 11.8536 6.85355C11.9473 6.75979 12 6.63261 12 6.5V5.5C12 5.36739 11.9473 5.24021 11.8536 5.14645C11.7598 5.05268 11.6326 5 11.5 5Z" fill="#686868"/>
</svg>
