<svg width="123" height="14" viewBox="0 0 123 14" fill="none" xmlns="http://www.w3.org/2000/svg">
<g clip-path="url(#clip0_2343_51210)">
<path d="M89.5109 8.89576C89.5109 8.722 89.6075 8.27402 89.6898 7.95637L90.897 3.19694C90.9241 3.06661 90.8417 2.99467 90.6911 2.99467H89.6486C89.4981 2.99467 89.4286 3.05304 89.3604 3.13856L88.825 3.7603C88.3179 3.22544 87.5495 2.84941 86.5753 2.84941C84.888 2.84941 83.0232 4.07932 82.4891 6.56763C81.8855 9.36003 83.2432 11.2836 85.5753 11.2836C86.4672 11.2836 87.2214 10.9361 87.7426 10.3727C88.0849 10.9375 88.5791 11.2117 89.4981 11.2117C90.417 11.2117 90.9524 10.8071 91.0888 10.184C91.2535 9.47542 90.9382 9.06952 90.39 9.06952C90.1158 9.06952 89.9511 9.19984 89.7864 9.19984C89.6075 9.19984 89.5109 9.0831 89.5109 8.89576ZM76.3179 2.03898C77.1544 2.03898 77.9086 2.55891 78.8546 2.55891C78.9923 2.55891 79.1287 2.54397 79.2522 2.50053L71.6281 9.61932C71.4903 9.7347 71.4903 9.90846 71.601 10.0388L72.6705 11.2538C72.7941 11.3977 72.9305 11.3841 73.1506 11.2388C73.5341 10.9782 73.973 10.6605 74.6319 10.6605C75.7568 10.6605 77.0734 11.2972 78.5817 11.2972C79.61 11.3121 80.4054 10.8927 80.8031 10.2994C81.2149 9.67769 81.269 9.11296 81.269 8.62155C81.269 7.91293 80.8571 7.37671 80.1725 7.37671C79.61 7.37671 79.2677 7.75274 79.2265 8.21565C79.1995 8.46136 79.2407 8.80888 79.0888 9.03966C78.9511 9.25686 78.7465 9.34374 78.4582 9.34374C77.6628 9.34374 76.8674 8.85232 75.7014 8.85232C75.4955 8.85232 75.2896 8.89576 75.0978 8.9392L82.6409 1.92359C82.7645 1.8082 82.7645 1.70639 82.6551 1.57607L81.6126 0.447978C81.5161 0.33259 81.4208 0.33259 81.3114 0.433046C81.0232 0.693688 80.5302 0.867449 79.8855 0.867449C78.6654 0.867449 77.4994 0.187336 76.1416 0.187336C75.1544 0.187336 74.4685 0.491419 73.9472 1.02628C73.4672 1.53263 73.2613 2.28469 73.2613 2.83448C73.2613 3.48473 73.6448 4.03452 74.3308 4.03452C74.9202 4.03452 75.3179 3.64356 75.3179 3.1087C75.3179 2.79104 75.3861 2.48696 75.538 2.3132C75.7014 2.12586 75.9472 2.03898 76.3179 2.03898ZM119.161 11.2823C120.422 11.2823 121.396 10.8479 121.808 10.4135C122.069 10.1392 122.22 9.82023 122.22 9.45913C122.22 9.01115 121.919 8.67856 121.369 8.67856C120.615 8.67856 120.327 9.45913 119.175 9.45913C117.955 9.45913 117.077 8.6487 117.049 7.40522C117.803 7.78125 118.763 8.04189 119.901 8.04189C121.314 8.04189 122.548 7.50703 122.891 6.27713C123.385 4.45399 122.192 2.84941 119.654 2.84941C117.474 2.84941 115.801 4.15127 115.251 6.1183C114.498 8.83739 116.021 11.2823 119.161 11.2823ZM101.855 11.1234C101.937 11.2388 102.115 11.2253 102.266 11.0949C102.596 10.8194 102.911 10.6035 103.515 10.6035C104.653 10.6035 105.613 11.2402 106.97 11.2402C108.013 11.2551 108.658 10.8492 109.027 10.2859C109.315 9.85145 109.452 9.25958 109.452 8.79667C109.452 8.14642 109.095 7.71201 108.479 7.71201C107.862 7.71201 107.628 8.02967 107.601 8.49258C107.587 8.68128 107.587 9.04237 107.477 9.21614C107.368 9.40483 107.176 9.44827 106.929 9.44827C106.284 9.44827 105.462 9.01387 104.611 9.01387H104.515L110.111 4.29788C110.207 4.22593 110.248 4.05217 110.138 3.96529L109.287 2.90914C109.136 2.76389 109.026 2.77882 108.875 2.90914C108.587 3.15485 108.313 3.40056 107.723 3.40056C106.763 3.40056 105.776 2.79376 104.431 2.79376C103.471 2.79376 102.964 3.14128 102.593 3.54582C102.237 3.95035 101.99 4.60196 101.99 5.2237C101.99 5.84544 102.346 6.26491 102.936 6.26491C103.471 6.26491 103.786 5.94725 103.786 5.49792C103.786 5.23727 103.801 5.0065 103.91 4.83274C104.006 4.65897 104.225 4.52865 104.569 4.52865C105.104 4.52865 106.077 4.88975 106.708 4.88975H106.749L101.058 9.57723C100.949 9.66411 100.949 9.86638 101.017 9.9682L101.855 11.1234ZM95.4903 9.01115C95.408 9.01115 95.3398 9.01115 95.2574 9.02608L100.825 4.31009C100.921 4.23815 100.961 4.06438 100.852 3.9775L100.001 2.90779C99.8507 2.76253 99.74 2.77747 99.5894 2.90779C99.3012 3.1535 99.027 3.3992 98.4376 3.3992C97.4775 3.3992 96.435 2.7924 95.0914 2.7924C94.1313 2.7924 93.6242 3.13992 93.2535 3.54446C92.897 3.949 92.677 4.6006 92.677 5.22234C92.677 5.84408 93.0335 6.26355 93.6229 6.26355C94.13 6.26355 94.4736 5.94589 94.4736 5.49656C94.4736 5.23592 94.5148 5.00514 94.6242 4.83138C94.7207 4.65762 94.9395 4.5273 95.2819 4.5273C95.8172 4.5273 96.7902 4.88839 97.4208 4.88839H97.5032L91.8945 9.50257C91.7851 9.60438 91.7851 9.79172 91.8533 9.89353L92.7452 11.1234C92.8275 11.2388 93.0051 11.2253 93.157 11.0949C93.4865 10.8194 93.7876 10.6035 94.3912 10.6035C95.4607 10.6035 96.3797 11.2402 97.7374 11.2402C98.7799 11.2551 99.4247 10.8492 99.7941 10.2859C100.082 9.85145 100.219 9.25958 100.219 8.79667C100.219 8.14642 99.8623 7.71201 99.2445 7.71201C98.6963 7.71201 98.3938 8.02967 98.3668 8.49258C98.3526 8.68128 98.3526 9.04237 98.2432 9.21614C98.1338 9.40483 97.9421 9.44827 97.695 9.44827C97.0541 9.44555 96.3552 9.01115 95.4903 9.01115ZM114.965 0.202269C114.992 0.071948 114.924 0 114.788 0H113.224C113.059 0 112.991 0.0868806 112.95 0.245709L110.961 7.43508C110.701 8.37584 110.619 8.85232 110.619 9.41705C110.619 9.86503 110.784 10.3279 111.044 10.6171C111.345 10.9497 111.853 11.2103 112.69 11.2103C113.568 11.2103 114.157 10.8777 114.336 10.2261C114.528 9.54601 114.144 9.09803 113.637 9.09803C113.239 9.09803 113.13 9.24328 112.924 9.24328C112.773 9.24328 112.636 9.1279 112.636 8.92427C112.636 8.69349 112.745 8.20072 112.842 7.85455L114.965 0.202269ZM86.1506 9.38718C84.9846 9.38718 84.2445 8.46136 84.5869 6.79841C84.8752 5.38117 85.8353 4.58567 86.8365 4.58567C87.4672 4.58567 87.9202 4.87482 88.2085 5.25085L87.3449 8.82381C87.0566 9.1564 86.6718 9.38718 86.1506 9.38718ZM119.601 4.51236C120.588 4.51236 121.136 5.07709 120.973 5.65539C120.849 6.13323 120.411 6.3355 119.45 6.3355C118.682 6.3355 117.942 6.13323 117.366 5.9011C117.776 5.04722 118.544 4.51236 119.601 4.51236ZM2.91634 3.83768C3.50708 3.83768 4.02059 3.93542 4.4556 4.13226C4.89189 4.3291 5.25097 4.58703 5.53153 4.90876C5.81338 5.23049 6.02188 5.60109 6.1583 6.02327C6.29472 6.44546 6.36293 6.88122 6.36293 7.33055C6.36293 7.99166 6.24453 8.56725 6.00901 9.05595C5.7722 9.54465 5.46203 9.95462 5.07593 10.2845C4.68983 10.6157 4.24453 10.8614 3.74003 11.0243C3.23552 11.1872 2.72072 11.2687 2.19305 11.2687H2.07079C2.02574 11.2687 1.97941 11.2633 1.93436 11.2538V13.6973C1.93436 13.7733 1.89833 13.8167 1.82497 13.8262C1.68855 13.8452 1.52767 13.8615 1.34106 13.8765C1.15444 13.8914 0.975547 13.9077 0.803089 13.9267C0.630631 13.9457 0.480051 13.962 0.353925 13.9769C0.226512 13.9919 0.15444 13.9986 0.136422 13.9986C0.0733591 13.9986 0.041184 13.9647 0.041184 13.8982V5.44633C0.041184 5.39882 0.03861 5.33094 0.034749 5.24542C0.029601 5.15854 0.02574 5.0703 0.020592 4.97935C0.015444 4.88839 0.011583 4.80016 0.00643501 4.71327C0.001287 4.62639 0 4.55445 0 4.49743C0 4.45942 0.018018 4.43498 0.054054 4.42548C0.39897 4.30059 0.812098 4.17163 1.29472 4.03723C1.77606 3.90284 2.3166 3.83632 2.91634 3.83632V3.83768ZM2.7529 5.53321C2.59846 5.53321 2.45817 5.54 2.33076 5.55493C2.20335 5.56986 2.07207 5.60109 1.93565 5.6486V9.57316C1.9897 9.59216 2.06049 9.60167 2.14672 9.60167H2.37194C2.60746 9.60167 2.84685 9.56366 3.08752 9.48628C3.32819 9.41026 3.54826 9.28808 3.74903 9.11975C3.94852 8.95278 4.11068 8.7315 4.23295 8.45864C4.35521 8.18579 4.41699 7.8532 4.41699 7.45952C4.41699 6.83642 4.27413 6.35993 3.98842 6.0287C3.7027 5.69747 3.29086 5.53321 2.75547 5.53321H2.7529ZM10.5753 3.83768C11.121 3.83768 11.6023 3.93814 12.0193 4.13905C12.4376 4.33996 12.7851 4.61146 13.0618 4.95084C13.3385 5.29157 13.5483 5.68118 13.6885 6.12237C13.8288 6.56356 13.8996 7.02783 13.8996 7.51653C13.8996 8.08261 13.8172 8.59439 13.6538 9.05459C13.4903 9.51479 13.2587 9.90982 12.9588 10.2411C12.6589 10.5709 12.305 10.8261 11.8958 11.0026C11.4865 11.1805 11.0373 11.2687 10.547 11.2687C9.96525 11.2687 9.46332 11.1628 9.04118 10.9524C8.61905 10.742 8.26898 10.461 7.99228 10.1121C7.71557 9.76185 7.51094 9.3641 7.37966 8.91884C7.24839 8.47358 7.18147 8.02017 7.18147 7.55997C7.18147 7.05226 7.25869 6.57306 7.41313 6.12237C7.56757 5.67168 7.79279 5.27664 8.08752 4.93591C8.38224 4.59653 8.73874 4.32774 9.15701 4.1309C9.57529 3.93406 10.0476 3.83632 10.574 3.83632L10.5753 3.83768ZM10.4929 5.5047C10.0927 5.5047 9.7619 5.68254 9.49807 6.03685C9.23423 6.39116 9.10296 6.88936 9.10296 7.53147C9.10296 8.17357 9.23295 8.6677 9.49163 9.04102C9.75032 9.41433 10.112 9.60167 10.5753 9.60167C10.9743 9.60167 11.3063 9.42655 11.5701 9.07631C11.834 8.72607 11.9653 8.22108 11.9653 7.55997C11.9653 7.28168 11.9382 7.01833 11.8829 6.7699C11.8288 6.52148 11.74 6.30292 11.6178 6.11558C11.4955 5.92825 11.3411 5.78028 11.1544 5.67032C10.9678 5.56036 10.7477 5.5047 10.4929 5.5047ZM20.6178 11.1248C20.5637 11.1248 20.5264 11.1153 20.5084 11.0963C20.4903 11.0773 20.4723 11.0433 20.4543 10.9958C20.2819 10.2682 20.139 9.63018 20.0245 9.08446C19.9112 8.53874 19.8134 8.06904 19.731 7.67536C19.6486 7.28304 19.5856 6.95452 19.5405 6.69117C19.4955 6.42781 19.4543 6.20925 19.4183 6.03685H19.4041C19.3218 6.43052 19.2407 6.80791 19.1583 7.17308C19.0759 7.5369 18.9897 7.91157 18.8996 8.29439C18.8082 8.6772 18.7091 9.08717 18.5997 9.52293C18.4903 9.95869 18.3629 10.4501 18.2188 10.9958C18.1918 11.0814 18.1416 11.1248 18.0695 11.1248H16.3655C16.2921 11.1248 16.2471 11.1153 16.2291 11.0963C16.2111 11.0773 16.193 11.0433 16.175 10.9958L14.4028 4.11054C14.3668 4.02366 14.4028 3.98158 14.5122 3.98158H16.2432C16.3153 3.98158 16.3565 4.01551 16.3655 4.08203C16.547 4.85853 16.6976 5.53185 16.8147 6.10201C16.9331 6.67216 17.0283 7.15815 17.1004 7.56133C17.1725 7.96315 17.2304 8.29439 17.2703 8.55367C17.3115 8.81295 17.3449 9.01794 17.3719 9.17134H17.399C17.426 9.04645 17.462 8.86182 17.5084 8.61747C17.5534 8.37312 17.6178 8.05003 17.6988 7.64685C17.7799 7.24367 17.8867 6.75361 18.0193 6.17395C18.1506 5.5943 18.3166 4.9074 18.5161 4.1119C18.5251 4.02502 18.5663 3.98293 18.6384 3.98293H20.4376C20.5006 3.98293 20.538 4.01687 20.547 4.08339C20.7284 4.87889 20.879 5.56579 20.9961 6.14545C21.1145 6.7251 21.2098 7.2206 21.2819 7.63328C21.3539 8.04596 21.4118 8.37855 21.4517 8.63241C21.4929 8.88626 21.5264 9.08446 21.5534 9.22835H21.5804C21.6255 8.99893 21.6757 8.72472 21.7297 8.40842C21.7838 8.09212 21.8494 7.72287 21.9279 7.30205C22.0051 6.87986 22.1004 6.40337 22.2136 5.87123C22.3269 5.33909 22.4659 4.74314 22.6293 4.08203C22.6474 4.01551 22.6885 3.98158 22.7516 3.98158H24.3462C24.3732 3.98158 24.399 3.99108 24.4208 4.01008C24.444 4.02909 24.4453 4.0576 24.4273 4.09696L22.4788 10.9958C22.4607 11.0433 22.4453 11.0773 22.4311 11.0963C22.417 11.1153 22.3784 11.1248 22.3153 11.1248H20.6113H20.6178ZM26.8726 8.07718C26.8906 8.2781 26.9382 8.47086 27.0154 8.65277C27.0927 8.83467 27.2111 8.99486 27.3694 9.13468C27.5277 9.27315 27.7259 9.38175 27.9627 9.45777C28.1982 9.53515 28.4852 9.57316 28.8211 9.57316C29.4389 9.57316 29.9974 9.4632 30.4968 9.24193C30.5508 9.20392 30.5791 9.227 30.5791 9.31388V10.6795C30.5791 10.7651 30.547 10.8234 30.4839 10.8519C30.2111 10.9863 29.9138 11.0895 29.5907 11.1614C29.2677 11.2334 28.87 11.2687 28.399 11.2687C27.7542 11.2687 27.2111 11.1628 26.7709 10.9524C26.3308 10.742 25.9743 10.4637 25.7014 10.1189C25.4286 9.77407 25.2329 9.38582 25.1158 8.95414C24.9974 8.52245 24.9382 8.08261 24.9382 7.63192C24.9382 7.13371 25.009 6.65723 25.1493 6.20111C25.2896 5.74634 25.5006 5.34316 25.7825 4.99428C26.0643 4.64404 26.4093 4.36439 26.8185 4.15398C27.2278 3.94357 27.7001 3.83768 28.2355 3.83768C28.7709 3.83768 29.1943 3.93406 29.5573 4.12547C29.9202 4.31688 30.2188 4.56123 30.4504 4.85853C30.6821 5.15582 30.8507 5.48841 30.955 5.85766C31.0592 6.2269 31.112 6.588 31.112 6.94231C31.112 7.412 31.0888 7.73238 31.0438 7.90478C31.0347 7.97266 30.9987 8.01067 30.9344 8.02017C30.843 8.03917 30.6757 8.05411 30.4299 8.06361C30.184 8.07311 29.8842 8.07854 29.5302 8.07854H26.8726V8.07718ZM28.6448 6.68302C28.8623 6.68302 29.0245 6.68031 29.1287 6.67623C29.2329 6.6708 29.2986 6.66402 29.3269 6.65451V6.55406C29.3269 6.46853 29.3089 6.35993 29.2728 6.23097C29.2368 6.10201 29.1725 5.97712 29.0824 5.85766C28.991 5.73819 28.8739 5.63502 28.7284 5.54814C28.583 5.46126 28.3964 5.41918 28.1699 5.41918C27.9434 5.41918 27.7658 5.45719 27.6113 5.53457C27.4569 5.61195 27.3269 5.70969 27.2227 5.82915C27.1184 5.94861 27.036 6.08572 26.9768 6.23912C26.9176 6.39251 26.879 6.54048 26.861 6.68438H28.6461L28.6448 6.68302ZM33.8237 3.98022C33.906 3.98022 33.9601 4.02366 33.9871 4.10918C34.0232 4.20557 34.0553 4.32231 34.0824 4.46078C34.1094 4.59924 34.1274 4.75129 34.1364 4.91419C34.3629 4.6359 34.6589 4.38747 35.0219 4.1662C35.3848 3.94628 35.8121 3.83497 36.3024 3.83497C36.3745 3.83497 36.4118 3.87298 36.4118 3.95035V5.71783C36.4118 5.78435 36.3707 5.81829 36.2896 5.81829C35.7992 5.79928 35.3694 5.85358 35.0013 5.9839C34.6332 6.11287 34.3771 6.26355 34.2317 6.43595L34.2175 11.0067C34.2175 11.0841 34.1763 11.1221 34.0952 11.1221H32.4595C32.3681 11.1221 32.323 11.0786 32.323 10.9931V6.03413C32.323 5.72733 32.3179 5.38796 32.3089 5.01328C32.2999 4.63997 32.2819 4.32774 32.2548 4.07932C32.2548 4.0128 32.2819 3.97886 32.3372 3.97886H33.8224L33.8237 3.98022ZM38.7979 8.07718C38.816 8.2781 38.8636 8.47086 38.9408 8.65277C39.018 8.83467 39.1364 8.99486 39.2947 9.13468C39.453 9.27315 39.6512 9.38175 39.888 9.45777C40.1236 9.53515 40.4106 9.57316 40.7465 9.57316C41.3642 9.57316 41.9228 9.4632 42.4221 9.24193C42.4762 9.20392 42.5045 9.227 42.5045 9.31388V10.6795C42.5045 10.7651 42.4723 10.8234 42.4093 10.8519C42.1364 10.9863 41.8391 11.0895 41.5161 11.1614C41.193 11.2334 40.7954 11.2687 40.3243 11.2687C39.6795 11.2687 39.1364 11.1628 38.6963 10.9524C38.2561 10.742 37.8996 10.4637 37.6268 10.1189C37.3539 9.77407 37.1583 9.38582 37.0412 8.95414C36.9228 8.52245 36.8636 8.08261 36.8636 7.63192C36.8636 7.13371 36.9344 6.65723 37.0746 6.20111C37.2149 5.74634 37.426 5.34316 37.7078 4.99428C37.9897 4.64404 38.3346 4.36439 38.7439 4.15398C39.1532 3.94357 39.6255 3.83768 40.1609 3.83768C40.6963 3.83768 41.1197 3.93406 41.4826 4.12547C41.8456 4.31688 42.1441 4.56123 42.3758 4.85853C42.6075 5.15582 42.7761 5.48841 42.8803 5.85766C42.9846 6.2269 43.0373 6.588 43.0373 6.94231C43.0373 7.412 43.0142 7.73238 42.9691 7.90478C42.9601 7.97266 42.9241 8.01067 42.8597 8.02017C42.7683 8.03917 42.601 8.05411 42.3552 8.06361C42.1094 8.07311 41.8095 8.07854 41.4556 8.07854H38.7979V8.07718ZM40.5701 6.68302C40.7876 6.68302 40.9498 6.68031 41.0541 6.67623C41.1583 6.6708 41.2239 6.66402 41.2523 6.65451V6.55406C41.2523 6.46853 41.2342 6.35993 41.1982 6.23097C41.1622 6.10201 41.0978 5.97712 41.0077 5.85766C40.9163 5.73819 40.7992 5.63502 40.6538 5.54814C40.5084 5.46126 40.3218 5.41918 40.0952 5.41918C39.8687 5.41918 39.6911 5.45719 39.5367 5.53457C39.3822 5.61195 39.2523 5.70969 39.148 5.82915C39.0438 5.94861 38.9614 6.08572 38.9022 6.23912C38.843 6.39251 38.8044 6.54048 38.7864 6.68438H40.5714L40.5701 6.68302ZM47.4106 11.2687C46.9022 11.2687 46.4311 11.1913 46 11.0393C45.5689 10.8859 45.1918 10.6578 44.8687 10.3564C44.5457 10.0551 44.2934 9.67633 44.112 9.22021C43.9305 8.76544 43.8391 8.23058 43.8391 7.61699C43.8391 7.09978 43.9279 6.61379 44.1042 6.15767C44.2819 5.7029 44.5405 5.30243 44.8816 4.95763C45.2226 4.61282 45.6358 4.33996 46.1223 4.13769C46.6087 3.93678 47.1647 3.83632 47.7915 3.83632C47.8456 3.83632 47.9099 3.83904 47.982 3.84311C48.0541 3.84854 48.1403 3.85533 48.2407 3.86483V1.03578C48.2407 0.969262 48.2728 0.935324 48.3359 0.935324H50.0528C50.1068 0.935324 50.1351 0.963832 50.1351 1.02085V9.51614C50.1351 9.67905 50.139 9.85824 50.1493 10.0551C50.1583 10.2519 50.1725 10.4216 50.1905 10.5655C50.1905 10.6334 50.1583 10.6755 50.0952 10.6945C49.6229 10.9049 49.1634 11.0542 48.7194 11.1397C48.2741 11.2266 47.8378 11.2687 47.4118 11.2687H47.4106ZM48.242 5.57665C48.1686 5.54814 48.0914 5.52914 48.0103 5.51964C47.9279 5.51013 47.8378 5.5047 47.7374 5.5047C47.4736 5.5047 47.2239 5.54814 46.9884 5.63367C46.7516 5.72055 46.5457 5.8468 46.3681 6.01513C46.1905 6.18346 46.0502 6.39116 45.9459 6.64094C45.8417 6.89072 45.7889 7.18259 45.7889 7.51789C45.7889 8.22651 45.9614 8.74508 46.3063 9.07088C46.6512 9.39668 47.0837 9.55958 47.601 9.55958C47.7194 9.55958 47.8301 9.55551 47.9344 9.54465C48.0386 9.53515 48.1403 9.51071 48.2407 9.4727V5.57665H48.242ZM56.6203 0.933967C56.7104 0.933967 56.7568 0.971977 56.7568 1.04936V3.99651C57.1287 3.89062 57.5109 3.83768 57.9009 3.83768C58.4003 3.83768 58.852 3.92592 59.2574 4.10375C59.6615 4.28159 60.0051 4.52322 60.2857 4.83002C60.5676 5.13682 60.7851 5.49792 60.9395 5.91467C61.0939 6.33143 61.1712 6.7794 61.1712 7.25861C61.1712 7.92922 61.0553 8.51566 60.8237 9.0193C60.592 9.52293 60.2857 9.93969 59.9035 10.2696C59.5225 10.6008 59.0862 10.8492 58.5946 11.0176C58.1042 11.1845 57.5997 11.2687 57.0824 11.2687C56.7194 11.2687 56.3578 11.2415 55.9987 11.19C55.6396 11.137 55.2883 11.0528 54.9421 10.9388C54.888 10.9198 54.8597 10.8723 54.8597 10.7949V1.03578C54.8597 0.969262 54.8919 0.935324 54.955 0.935324H56.6178L56.6203 0.933967ZM59.2368 7.44594C59.2368 7.12014 59.1931 6.83778 59.1068 6.5975C59.0206 6.35858 58.9022 6.15902 58.7529 6.00155C58.6036 5.84272 58.426 5.72598 58.2214 5.64996C58.0167 5.57394 57.7966 5.53457 57.5598 5.53457C57.3423 5.53457 57.1763 5.5495 57.0631 5.57801C56.9498 5.60652 56.8468 5.63095 56.7568 5.64996V9.54465C56.8391 9.56366 56.9228 9.57859 57.009 9.58809C57.0952 9.5976 57.1789 9.60303 57.2613 9.60303C57.5161 9.60303 57.7632 9.55959 58.0039 9.47406C58.2445 9.38718 58.4556 9.25822 58.6371 9.08581C58.8185 8.91341 58.964 8.69078 59.0734 8.41792C59.1828 8.14506 59.2368 7.82197 59.2368 7.4473V7.44594ZM63.5161 3.98158C63.5791 3.98158 63.6255 4.01551 63.6525 4.08203C64.0425 5.31872 64.3449 6.31649 64.5586 7.07941C64.7722 7.84098 64.9292 8.40842 65.0283 8.78309C65.1377 8.40027 65.2458 8.02424 65.3552 7.655C65.4646 7.28576 65.5753 6.91244 65.6885 6.5337C65.8018 6.15495 65.9176 5.76399 66.036 5.36216C66.1544 4.96034 66.2819 4.53408 66.417 4.08339C66.435 4.01687 66.4852 3.98293 66.5663 3.98293H68.1879C68.2703 3.98293 68.3012 4.02637 68.2831 4.1119C68.0373 4.9169 67.7658 5.7572 67.4659 6.63415C67.166 7.5111 66.8597 8.37312 66.5457 9.22157C66.2317 10.07 65.9228 10.8845 65.619 11.6651C65.314 12.4457 65.0347 13.1434 64.7812 13.757C64.7632 13.7855 64.7426 13.8099 64.7194 13.829C64.6963 13.848 64.6538 13.8575 64.5894 13.8575L62.8726 14.0014C62.7812 14.0014 62.7593 13.9579 62.8044 13.8724C63.0039 13.4407 63.2059 12.9887 63.4106 12.5135C63.6152 12.0384 63.8263 11.5293 64.0438 10.9823C64.0618 10.9347 64.0734 10.894 64.0785 10.8601C64.0824 10.8261 64.0759 10.7854 64.0579 10.7379C63.9575 10.4895 63.8121 10.108 63.6216 9.59488C63.4311 9.08174 63.2175 8.5143 62.9807 7.89121C62.7439 7.26811 62.5032 6.62193 62.2587 5.95132C62.0129 5.28071 61.7902 4.66305 61.5907 4.09696C61.5727 4.05895 61.5727 4.03045 61.5907 4.01008C61.6087 3.99108 61.6358 3.98158 61.6731 3.98158H63.5122H63.5161Z" fill="black"/>
</g>
<defs>
<clipPath id="clip0_2343_51210">
<rect width="123" height="14" fill="white"/>
</clipPath>
</defs>
</svg>
