<svg width="18" height="18" viewBox="0 0 18 18" fill="none" xmlns="http://www.w3.org/2000/svg">
<path d="M15.0734 4.50078H14.3984V3.82578C14.3984 2.70957 13.4896 1.80078 12.3734 1.80078H5.62344C4.50723 1.80078 3.59844 2.70957 3.59844 3.82578V4.50078H2.92344C1.80723 4.50078 0.898438 5.40957 0.898438 6.52578V11.4758C0.898438 12.592 1.80723 13.5008 2.92344 13.5008H3.59844V14.1758C3.59844 15.292 4.50723 16.2008 5.62344 16.2008H12.3734C13.4896 16.2008 14.3984 15.292 14.3984 14.1758V13.5008H15.0734C16.1896 13.5008 17.0984 12.592 17.0984 11.4758V6.52578C17.0984 5.40957 16.1896 4.50078 15.0734 4.50078ZM4.94844 3.82578C4.94844 3.454 5.25166 3.15078 5.62344 3.15078H12.3734C12.7452 3.15078 13.0484 3.454 13.0484 3.82578V4.50078H4.94844V3.82578ZM13.0484 14.1758C13.0484 14.5476 12.7452 14.8508 12.3734 14.8508H5.62344C5.25166 14.8508 4.94844 14.5476 4.94844 14.1758V11.0258C4.94844 10.654 5.25166 10.3508 5.62344 10.3508H12.3734C12.7452 10.3508 13.0484 10.654 13.0484 11.0258V14.1758ZM15.7484 11.4758C15.7484 11.8476 15.4452 12.1508 15.0734 12.1508H14.3984V11.0258C14.3984 9.90957 13.4896 9.00078 12.3734 9.00078H5.62344C4.50723 9.00078 3.59844 9.90957 3.59844 11.0258V12.1508H2.92344C2.55166 12.1508 2.24844 11.8476 2.24844 11.4758V6.52578C2.24844 6.154 2.55166 5.85078 2.92344 5.85078H15.0734C15.4452 5.85078 15.7484 6.154 15.7484 6.52578V11.4758Z" fill="#292929"/>
<path d="M11.2492 13.4984H6.74922C6.37656 13.4984 6.07422 13.1961 6.07422 12.8234C6.07422 12.4508 6.37656 12.1484 6.74922 12.1484H11.2492C11.6219 12.1484 11.9242 12.4508 11.9242 12.8234C11.9242 13.1961 11.6219 13.4984 11.2492 13.4984Z" fill="#292929"/>
</svg>
