<svg preserveAspectRatio="none" width="100%" height="100%" overflow="visible" style="display: block;" viewBox="0 0 20 20" fill="none" xmlns="http://www.w3.org/2000/svg">
<g id="Frame">
<path id="iconPrimary" d="M11.4954 2.41401L12.6989 5.59718C12.9104 6.15646 13.4338 6.53674 14.031 6.56502L17.4306 6.726C18.9232 6.79668 19.5342 8.67714 18.3682 9.61167L15.7124 11.7402C15.2453 12.1146 15.0455 12.7308 15.204 13.308L16.0997 16.5689C16.4961 18.0121 14.893 19.1763 13.6433 18.3528L10.8241 16.495C10.3243 16.1656 9.67656 16.1649 9.17605 16.4932L6.30937 18.3734C5.06019 19.1928 3.46143 18.0306 3.85534 16.5896L4.75292 13.306C4.91058 12.7292 4.71065 12.1139 4.24409 11.74L1.58852 9.61165C0.42249 8.67712 1.03349 6.79667 2.52612 6.72598L5.92557 6.565C6.52281 6.53672 7.04622 6.15644 7.25768 5.59718L8.46125 2.41398C8.98973 1.01625 10.9669 1.01628 11.4954 2.41401Z" fill="#DADADA"/>
</g>
</svg>

