<svg width="18" height="18" viewBox="0 0 18 18" fill="none" xmlns="http://www.w3.org/2000/svg">
<path d="M9 17.1008C8.9332 17.1008 8.8664 17.0912 8.80137 17.0709C8.13076 16.8644 2.25 14.8746 2.25 8.644V4.73814C2.25 3.88472 2.79053 3.11832 3.59384 2.83091L8.30918 1.11002C8.75302 0.948294 9.24346 0.948295 9.68906 1.1065L14.4404 2.81773C15.2297 3.12183 15.75 3.88032 15.75 4.71177V8.644C15.75 14.7603 9.28389 17.0419 9.21884 17.0648C9.14765 17.0885 9.07383 17.1008 9 17.1008ZM9.00264 2.33696C8.92442 2.33696 8.84619 2.35102 8.77148 2.37827L4.05264 4.10005C3.78018 4.19761 3.6 4.45337 3.6 4.73813V8.64399C3.6 13.4929 7.86797 15.3158 8.98594 15.7104C10.0125 15.3017 14.4 13.2837 14.4 8.64399V4.71176C14.4 4.4349 14.2269 4.18266 13.9693 4.08335L9.23203 2.37739C9.1582 2.35014 9.08085 2.33696 9.00264 2.33696Z" fill="#292929"/>
<path d="M8.43123 11.4291C8.24051 11.4291 8.05769 11.3483 7.92937 11.2059L5.85691 8.90227C5.60731 8.62454 5.63016 8.19827 5.90701 7.94866C6.18386 7.69905 6.61013 7.7219 6.86062 7.99875L8.37762 9.68537L11.2147 5.81642C11.4336 5.51584 11.8546 5.44728 12.1578 5.67141C12.4584 5.89113 12.5234 6.31389 12.3028 6.61447L8.97526 11.1531C8.85573 11.3175 8.66764 11.4177 8.46462 11.4282C8.45407 11.4291 8.44266 11.4291 8.43123 11.4291Z" fill="#292929"/>
</svg>
