<svg width="61" height="60" viewBox="0 0 61 60" fill="none" xmlns="http://www.w3.org/2000/svg">
<path d="M39.9821 24.7155H35.0939C34.955 24.7155 34.8219 24.6598 34.7237 24.5606C34.6255 24.4615 34.5704 24.3271 34.5704 24.1869C34.5704 24.0467 34.6255 23.9123 34.7237 23.8132C34.8219 23.714 34.955 23.6583 35.0939 23.6583H39.9821C42.0917 23.6583 46.0805 22.345 46.0805 17.3732C46.0805 13.5434 42.2141 10.9161 39.4241 10.4914C39.3539 10.4807 39.2867 10.4558 39.2264 10.4181C39.1661 10.3804 39.114 10.3308 39.0732 10.2721C39.0325 10.2135 39.004 10.1471 38.9894 10.077C38.9748 10.007 38.9745 9.93461 38.9885 9.86439C39.0625 9.49377 39.1014 9.11689 39.1049 8.73883C39.1138 6.71083 38.3245 4.7623 36.9106 3.32187C35.4966 1.88144 33.5739 1.06709 31.5653 1.05795H31.5173C29.6386 1.03492 27.8057 1.64307 26.3068 2.78676C24.808 3.93045 23.7282 5.54476 23.2373 7.37579C23.2009 7.51119 23.1128 7.6265 22.9924 7.69645C22.8719 7.7664 22.7289 7.78528 22.5947 7.74896C21.8822 7.55357 21.1472 7.45456 20.4089 7.45454H20.4023C16.7825 7.45454 13.8383 10.1461 13.8383 13.4549C13.8402 13.9767 13.9296 14.4943 14.1029 14.9858C14.132 15.0685 14.1402 15.1572 14.1269 15.2439C14.1135 15.3306 14.079 15.4126 14.0264 15.4825C13.9739 15.5524 13.9049 15.608 13.8258 15.6443C13.7466 15.6806 13.6598 15.6964 13.5731 15.6903C13.5305 15.6873 13.4885 15.6824 13.4453 15.6776C13.4021 15.6714 13.3586 15.6678 13.3151 15.6667C11.1107 15.6673 9.45227 18.1329 9.45227 19.7316C9.45227 21.1897 10.3481 23.6565 13.7045 23.6565H20.5589C20.6977 23.6565 20.8309 23.7122 20.929 23.8113C21.0272 23.9105 21.0824 24.0449 21.0824 24.1851C21.0824 24.3253 21.0272 24.4597 20.929 24.5588C20.8309 24.658 20.6977 24.7136 20.5589 24.7136H13.7045C10.0637 24.7136 8.40527 22.1311 8.40527 19.731C8.40527 17.7852 10.1885 14.8883 12.9167 14.6272C12.8348 14.2421 12.7928 13.8494 12.7913 13.4555C12.7913 9.5621 16.2053 6.39622 20.4023 6.39622H20.4053C21.0662 6.39632 21.7252 6.46678 22.3715 6.60643C22.9994 4.66493 24.2254 2.97684 25.8705 1.78852C27.5157 0.600196 29.494 -0.0261674 31.5167 0.000837956H31.5707C33.8571 0.0118977 36.0456 0.939534 37.6546 2.57969C39.2637 4.21985 40.1615 6.43818 40.1507 8.7467C40.1482 9.01383 40.1308 9.2806 40.0985 9.54575C43.2023 10.2557 47.1269 13.1866 47.1269 17.3726C47.1269 22.7593 42.8537 24.7142 39.9815 24.7142L39.9821 24.7155Z" fill="#292929"/>
<path d="M27.7664 30.5656C27.6276 30.5656 27.4945 30.51 27.3964 30.4109C27.2983 30.3118 27.2432 30.1775 27.2432 30.0374V15.9999C27.2432 15.9305 27.2567 15.8617 27.283 15.7976C27.3093 15.7335 27.3479 15.6752 27.3965 15.6261C27.4451 15.577 27.5028 15.5381 27.5663 15.5115C27.6298 15.485 27.6979 15.4713 27.7667 15.4713C27.8354 15.4713 27.9035 15.485 27.967 15.5115C28.0305 15.5381 28.0882 15.577 28.1368 15.6261C28.1854 15.6752 28.224 15.7335 28.2503 15.7976C28.2766 15.8617 28.2902 15.9305 28.2902 15.9999V30.0374C28.2902 30.1068 28.2766 30.1755 28.2503 30.2396C28.224 30.3038 28.1854 30.362 28.1367 30.4111C28.0881 30.4602 28.0303 30.4991 27.9668 30.5256C27.9032 30.5521 27.8351 30.5657 27.7664 30.5656Z" fill="#5258E4"/>
<path d="M24.0234 20.0599C23.9198 20.0599 23.8186 20.0288 23.7324 19.9706C23.6463 19.9124 23.5793 19.8297 23.5397 19.733C23.5001 19.6363 23.4899 19.53 23.5102 19.4274C23.5305 19.3248 23.5805 19.2306 23.6538 19.1567L27.1392 15.6503C27.3058 15.4829 27.5312 15.3889 27.7662 15.3889C28.0013 15.3889 28.2267 15.4829 28.3932 15.6503L31.878 19.1561C31.9714 19.2561 32.0225 19.3888 32.0206 19.5262C32.0186 19.6636 31.9639 19.7948 31.8678 19.8921C31.7717 19.9894 31.6419 20.0452 31.5059 20.0475C31.3698 20.0499 31.2382 19.9987 31.1388 19.9048L27.7656 16.5124L24.3918 19.9048C24.2938 20.0037 24.1608 20.0593 24.0222 20.0593L24.0234 20.0599Z" fill="#5258E4"/>
<path d="M11.7691 59.7323C10.9162 59.7321 10.0835 59.47 9.38164 58.9808C8.67973 58.4917 8.14174 57.7986 7.83907 56.9935L4.50487 48.0944C4.11196 47.0431 4.14832 45.8775 4.60595 44.8533C5.06359 43.8291 5.90509 43.0302 6.94567 42.6319L17.7205 38.5161C18.7617 38.1203 19.9159 38.1574 20.93 38.6193C21.9442 39.0813 22.7356 39.9304 23.1307 40.9805L26.4649 49.8796C26.8578 50.9309 26.8214 52.0965 26.3638 53.1207C25.9062 54.1449 25.0646 54.9438 24.0241 55.3421L13.2493 59.4573C12.7764 59.6384 12.2749 59.732 11.7691 59.7323ZM19.2019 39.2994C18.8222 39.2994 18.4456 39.3692 18.0907 39.5054L7.31587 43.6212C6.53496 43.9203 5.90349 44.52 5.56006 45.2886C5.21663 46.0573 5.1893 46.9322 5.48407 47.7212L8.81827 56.6203C9.11437 57.4089 9.70832 58.0465 10.4697 58.3933C11.2311 58.7401 12.0976 58.7676 12.8791 58.4698L23.6539 54.3546C24.4348 54.0556 25.0662 53.4558 25.4097 52.6872C25.7531 51.9185 25.7804 51.0436 25.4857 50.2546L22.1515 41.3555C21.9243 40.7512 21.5206 40.231 20.9938 39.8639C20.4669 39.4968 19.842 39.2995 19.2019 39.2994Z" fill="#292929"/>
<path d="M8.08531 56.3804C8.01117 56.3804 7.93791 56.3643 7.87051 56.3331C7.80787 56.3046 7.75141 56.264 7.70436 56.2134C7.6573 56.1629 7.62058 56.1035 7.59628 56.0386C7.57199 55.9738 7.56059 55.9047 7.56276 55.8354C7.56493 55.766 7.58061 55.6978 7.60891 55.6346L10.1715 49.8984C10.3718 49.4519 10.7393 49.1039 11.1933 48.9305C11.6473 48.7571 12.1509 48.7725 12.5937 48.9733L18.4863 51.6564L19.4385 49.5246C19.6387 49.0781 20.0061 48.7299 20.4602 48.5565C20.9143 48.3831 21.4179 48.3986 21.8607 48.5995L26.3847 50.6592C26.4473 50.6878 26.5038 50.7285 26.5509 50.779C26.5979 50.8296 26.6347 50.889 26.659 50.9539C26.6833 51.0188 26.6947 51.0878 26.6926 51.1572C26.6905 51.2265 26.6749 51.2948 26.6466 51.358C26.6184 51.4213 26.578 51.4783 26.528 51.5258C26.4779 51.5733 26.4191 51.6104 26.3548 51.635C26.2905 51.6595 26.2221 51.671 26.1534 51.6689C26.0847 51.6668 26.0171 51.651 25.9545 51.6225L21.4305 49.5627C21.2409 49.4765 21.0251 49.4698 20.8306 49.5441C20.6361 49.6184 20.4787 49.7676 20.3931 49.9589L19.2261 52.5723C19.1689 52.7 19.0638 52.7995 18.934 52.849C18.8042 52.8985 18.6602 52.894 18.5337 52.8365L12.1629 49.9383C11.9733 49.8521 11.7575 49.8454 11.563 49.9197C11.3685 49.994 11.2111 50.1432 11.1255 50.3345L8.56291 56.0708C8.52139 56.1641 8.45392 56.2432 8.36871 56.2985C8.28349 56.3537 8.1842 56.3828 8.08291 56.3822L8.08531 56.3804Z" fill="#292929"/>
<path d="M18.6015 45.9535C18.1111 45.9537 17.6362 45.7803 17.2594 45.4634C16.8826 45.1465 16.6278 44.7063 16.5393 44.2193C16.4508 43.7323 16.5343 43.2294 16.7751 42.7982C17.016 42.3669 17.399 42.0345 17.8575 41.8589C18.1447 41.749 18.4524 41.7041 18.7587 41.7275C19.065 41.7508 19.3625 41.8419 19.6301 41.9943C19.8977 42.1466 20.1288 42.3565 20.3071 42.609C20.4855 42.8615 20.6067 43.1506 20.6621 43.4556C20.7175 43.7607 20.7058 44.0744 20.6279 44.3744C20.55 44.6744 20.4077 44.9534 20.2111 45.1917C20.0145 45.43 19.7684 45.6218 19.4902 45.7535C19.2121 45.8851 18.9087 45.9534 18.6015 45.9535ZM18.5979 42.7785C18.4714 42.7786 18.346 42.8018 18.2277 42.847C17.983 42.9405 17.7817 43.123 17.6635 43.3586C17.5452 43.5943 17.5186 43.8661 17.5887 44.1206C17.6589 44.3751 17.8207 44.5939 18.0425 44.734C18.2643 44.8742 18.53 44.9255 18.7874 44.8779C19.0447 44.8303 19.2752 44.6872 19.4334 44.4768C19.5916 44.2664 19.6662 44.0039 19.6424 43.7408C19.6187 43.4777 19.4983 43.2331 19.3051 43.0551C19.1118 42.877 18.8595 42.7784 18.5979 42.7785Z" fill="#292929"/>
<path d="M50.6624 59.9976C50.4411 59.9974 50.2203 59.9757 50.0029 59.9328L39.5703 57.8665C38.666 57.6864 37.8677 57.1423 37.3505 56.3538C36.8332 55.5652 36.6393 54.5965 36.8111 53.6601C36.8408 53.5253 36.9198 53.4077 37.0316 53.332C37.1433 53.2564 37.2791 53.2286 37.4103 53.2545C37.5415 53.2804 37.6579 53.358 37.7349 53.4709C37.8119 53.5839 37.8435 53.7234 37.8231 53.86C37.7022 54.5187 37.8386 55.2001 38.2024 55.7549C38.5662 56.3096 39.1278 56.6923 39.7639 56.8191L50.1959 58.8853C50.511 58.9478 50.8349 58.9455 51.1491 58.8784C51.4633 58.8113 51.7617 58.6809 52.0272 58.4945C52.2927 58.308 52.5201 58.0693 52.6964 57.7919C52.8727 57.5145 52.9945 57.2039 53.0549 56.8777L55.0524 46.0791C55.1127 45.7529 55.1105 45.4177 55.0457 45.0925C54.9809 44.7673 54.8548 44.4585 54.6747 44.1837C54.4946 43.9089 54.264 43.6735 53.996 43.491C53.728 43.3085 53.4278 43.1824 53.1127 43.12L42.679 41.0537C42.5487 41.0231 42.4351 40.9413 42.362 40.8256C42.2889 40.7099 42.262 40.5693 42.287 40.4335C42.3121 40.2977 42.387 40.1773 42.4962 40.0976C42.6053 40.0179 42.74 39.9852 42.872 40.0063L53.3046 42.0725C54.209 42.2525 55.0074 42.7965 55.5246 43.5851C56.0419 44.3737 56.2358 45.3425 56.0638 46.2789L54.0675 57.0794C53.9156 57.8995 53.4929 58.6394 52.8718 59.1723C52.2506 59.7051 51.4697 59.9978 50.663 60L50.6624 59.9976Z" fill="#292929"/>
<path d="M43.9739 53.75C43.5939 53.75 43.2262 53.622 42.9359 53.3886C42.7217 53.2205 42.5592 53.0005 42.4655 52.7518C42.3718 52.5031 42.3504 52.235 42.4034 51.9756L43.4379 46.8303C43.4887 46.5708 43.6122 46.3291 43.7954 46.1307C43.9785 45.9324 44.2145 45.7848 44.4784 45.7034C44.7495 45.6176 45.0396 45.6019 45.3192 45.6579C45.5988 45.7138 45.8577 45.8394 46.0696 46.0219L49.9839 49.4009C50.1832 49.5709 50.3329 49.7871 50.4185 50.0284C50.5041 50.2697 50.5226 50.5279 50.4724 50.7781C50.4221 51.0282 50.3047 51.2618 50.1316 51.456C49.9584 51.6502 49.7355 51.7985 49.4844 51.8865L44.5374 53.6527C44.3572 53.717 44.1664 53.7499 43.9739 53.75ZM43.4464 52.165C43.4298 52.2482 43.4372 52.3341 43.4677 52.4136C43.4983 52.4931 43.5508 52.5633 43.6198 52.6167C43.694 52.6775 43.7841 52.7179 43.8806 52.7337C43.977 52.7495 44.0762 52.7401 44.1674 52.7065L49.1144 50.9402C49.1958 50.9139 49.2685 50.8675 49.3249 50.8058C49.3814 50.744 49.4197 50.6692 49.4359 50.5888C49.4521 50.5084 49.4456 50.4254 49.4172 50.3482C49.3887 50.2709 49.3392 50.2023 49.2738 50.1491L45.3607 46.7701C45.289 46.7071 45.2007 46.6638 45.1053 46.6448C45.0098 46.6258 44.9107 46.6319 44.8185 46.6624C44.7338 46.6877 44.6579 46.7343 44.5988 46.7973C44.5396 46.8603 44.4995 46.9373 44.4826 47.0203L43.4482 52.1656L43.4464 52.165Z" fill="#292929"/>
<path d="M35.6163 52.3241H29.0079C28.869 52.3241 28.7359 52.2684 28.6377 52.1692C28.5395 52.0701 28.4844 51.9357 28.4844 51.7955C28.4844 51.6553 28.5395 51.5209 28.6377 51.4218C28.7359 51.3226 28.869 51.2669 29.0079 51.2669H35.6163C36.8633 51.2655 38.0588 50.7647 38.9405 49.8745C39.8223 48.9842 40.3182 47.7771 40.3197 46.5181V36.8302C40.3204 36.553 40.2666 36.2783 40.1615 36.0222C40.0563 35.7661 39.9019 35.5336 39.7071 35.3382L33.6237 29.1948C33.2309 28.8003 32.6999 28.5783 32.1459 28.5769H30.5763C30.4374 28.5769 30.3043 28.5212 30.2061 28.4221C30.1079 28.323 30.0528 28.1885 30.0528 28.0483C30.0528 27.9082 30.1079 27.7737 30.2061 27.6746C30.3043 27.5755 30.4374 27.5198 30.5763 27.5198H32.1441C32.9762 27.5215 33.774 27.8548 34.3641 28.4472L40.4493 34.5912C40.7418 34.8848 40.9736 35.2341 41.1314 35.6189C41.2892 36.0037 41.3698 36.4162 41.3685 36.8327V46.5181C41.3669 48.0578 40.7603 49.5339 39.6818 50.6224C38.6034 51.7109 37.1412 52.3229 35.6163 52.3241Z" fill="#292929"/>
<path d="M19.9373 36.9321C19.7985 36.9321 19.6654 36.8764 19.5673 36.7774C19.4692 36.6783 19.4141 36.5439 19.4141 36.4038V33.3252C19.4163 31.851 19.973 30.4328 20.9714 29.3572C21.9699 28.2816 23.3356 27.629 24.7925 27.5313C24.8611 27.5269 24.9298 27.5362 24.9949 27.5586C25.0599 27.581 25.1199 27.6162 25.1715 27.662C25.2231 27.7079 25.2653 27.7635 25.2956 27.8258C25.3258 27.8881 25.3437 27.9558 25.3481 28.0251C25.3524 28.0943 25.3433 28.1638 25.321 28.2294C25.2988 28.2951 25.264 28.3557 25.2186 28.4078C25.1732 28.4599 25.1181 28.5024 25.0564 28.533C24.9947 28.5636 24.9277 28.5816 24.8591 28.586C23.6675 28.6658 22.5504 29.1996 21.7339 30.0794C20.9174 30.9593 20.4624 32.1194 20.4611 33.3252V36.4038C20.4611 36.5439 20.4059 36.6783 20.3078 36.7774C20.2097 36.8764 20.076 36.9321 19.9373 36.9321Z" fill="#292929"/>
<path d="M40.845 37.8129H34.3116C33.4801 37.8119 32.6829 37.478 32.0948 36.8844C31.5068 36.2908 31.1759 35.486 31.1748 34.6464V28.0475C31.1748 27.9073 31.23 27.7729 31.3281 27.6737C31.4263 27.5746 31.5595 27.5189 31.6983 27.5189C31.8371 27.5189 31.9703 27.5746 32.0685 27.6737C32.1666 27.7729 32.2218 27.9073 32.2218 28.0475V34.6446C32.2224 35.2041 32.4429 35.7405 32.8348 36.1361C33.2267 36.5317 33.758 36.7541 34.3122 36.7546H40.845C40.9838 36.7546 41.117 36.8103 41.2152 36.9094C41.3134 37.0085 41.3685 37.1429 41.3685 37.2831C41.3685 37.4233 41.3134 37.5577 41.2152 37.6569C41.117 37.756 40.9838 37.8117 40.845 37.8117V37.8129Z" fill="#292929"/>
</svg>
