<svg width="20" height="20" viewBox="0 0 20 20" fill="none" xmlns="http://www.w3.org/2000/svg">
<path d="M10 20C15.5228 20 20 15.5228 20 10C20 4.47715 15.5228 0 10 0C4.47715 0 0 4.47715 0 10C0 15.5228 4.47715 20 10 20ZM4.44434 15.5557L8.78223 10.6221L4.44434 4.44434H7.75293L10.6221 8.5293L14.2129 4.44434H15.1934L11.0566 9.14941L15.5557 15.5557H12.2471L9.21777 11.2412L5.4248 15.5557H4.44434ZM14.2139 14.8662L10.5449 9.73145L10.1055 9.11621L7.2832 5.16602H5.77832L9.27539 10.0615L9.71484 10.6768L12.708 14.8662H14.2139Z" fill="#292929"/>
</svg>
